<?xml version="1.0" encoding="utf-8" standalone="no"?>
<!DOCTYPE svg PUBLIC "-//W3C//DTD SVG 1.1//EN"
  "http://www.w3.org/Graphics/SVG/1.1/DTD/svg11.dtd">
<!-- Created with matplotlib (https://matplotlib.org/) -->
<svg height="484.56pt" version="1.1" viewBox="0 0 796.32 484.56" width="796.32pt" xmlns="http://www.w3.org/2000/svg" xmlns:xlink="http://www.w3.org/1999/xlink">
 <metadata>
  <rdf:RDF xmlns:cc="http://creativecommons.org/ns#" xmlns:dc="http://purl.org/dc/elements/1.1/" xmlns:rdf="http://www.w3.org/1999/02/22-rdf-syntax-ns#">
   <cc:Work>
    <dc:type rdf:resource="http://purl.org/dc/dcmitype/StillImage"/>
    <dc:date>2023-11-03T13:19:53.778384</dc:date>
    <dc:format>image/svg+xml</dc:format>
    <dc:creator>
     <cc:Agent>
      <dc:title>Matplotlib v3.3.4, https://matplotlib.org/</dc:title>
     </cc:Agent>
    </dc:creator>
   </cc:Work>
  </rdf:RDF>
 </metadata>
 <defs>
  <style type="text/css">*{stroke-linecap:butt;stroke-linejoin:round;}</style>
 </defs>
 <g id="figure_1">
  <g id="patch_1">
   <path d="M 0 484.56 
L 796.32 484.56 
L 796.32 0 
L 0 0 
z
" style="fill:#ffffff;"/>
  </g>
  <g id="axes_1">
   <g id="patch_2">
    <path d="M 99.54 431.2584 
L 716.688 431.2584 
L 716.688 58.1472 
L 99.54 58.1472 
z
" style="fill:#ffffff;"/>
   </g>
   <g id="PathCollection_1">
    <defs>
     <path d="M 0 3 
C 0.795609 3 1.55874 2.683901 2.12132 2.12132 
C 2.683901 1.55874 3 0.795609 3 0 
C 3 -0.795609 2.683901 -1.55874 2.12132 -2.12132 
C 1.55874 -2.683901 0.795609 -3 0 -3 
C -0.795609 -3 -1.55874 -2.683901 -2.12132 -2.12132 
C -2.683901 -1.55874 -3 -0.795609 -3 0 
C -3 0.795609 -2.683901 1.55874 -2.12132 2.12132 
C -1.55874 2.683901 -0.795609 3 0 3 
z
" id="m205a7a7150" style="stroke:#808080;"/>
    </defs>
    <g clip-path="url(#p99c0d068db)">
     <use style="fill:#808080;stroke:#808080;" x="127.592182" xlink:href="#m205a7a7150" y="129.668549"/>
     <use style="fill:#808080;stroke:#808080;" x="131.283258" xlink:href="#m205a7a7150" y="227.791577"/>
     <use style="fill:#808080;stroke:#808080;" x="134.974335" xlink:href="#m205a7a7150" y="156.054678"/>
     <use style="fill:#808080;stroke:#808080;" x="138.665411" xlink:href="#m205a7a7150" y="82.411096"/>
     <use style="fill:#808080;stroke:#808080;" x="142.356488" xlink:href="#m205a7a7150" y="141.157695"/>
     <use style="fill:#808080;stroke:#808080;" x="146.047565" xlink:href="#m205a7a7150" y="153.408987"/>
     <use style="fill:#808080;stroke:#808080;" x="149.738641" xlink:href="#m205a7a7150" y="160.412802"/>
     <use style="fill:#808080;stroke:#808080;" x="153.429718" xlink:href="#m205a7a7150" y="180.18064"/>
     <use style="fill:#808080;stroke:#808080;" x="157.120794" xlink:href="#m205a7a7150" y="172.539923"/>
     <use style="fill:#808080;stroke:#808080;" x="160.811871" xlink:href="#m205a7a7150" y="156.341754"/>
     <use style="fill:#808080;stroke:#808080;" x="164.502947" xlink:href="#m205a7a7150" y="175.375807"/>
     <use style="fill:#808080;stroke:#808080;" x="168.194024" xlink:href="#m205a7a7150" y="150.255134"/>
     <use style="fill:#808080;stroke:#808080;" x="171.8851" xlink:href="#m205a7a7150" y="169.449967"/>
     <use style="fill:#808080;stroke:#808080;" x="175.576177" xlink:href="#m205a7a7150" y="169.817102"/>
     <use style="fill:#808080;stroke:#808080;" x="179.267254" xlink:href="#m205a7a7150" y="128.303008"/>
     <use style="fill:#808080;stroke:#808080;" x="182.95833" xlink:href="#m205a7a7150" y="140.022313"/>
     <use style="fill:#808080;stroke:#808080;" x="186.649407" xlink:href="#m205a7a7150" y="124.900943"/>
     <use style="fill:#808080;stroke:#808080;" x="190.340483" xlink:href="#m205a7a7150" y="117.17024"/>
     <use style="fill:#808080;stroke:#808080;" x="194.03156" xlink:href="#m205a7a7150" y="75.1068"/>
     <use style="fill:#808080;stroke:#808080;" x="197.722636" xlink:href="#m205a7a7150" y="122.274472"/>
     <use style="fill:#808080;stroke:#808080;" x="201.413713" xlink:href="#m205a7a7150" y="136.927371"/>
     <use style="fill:#808080;stroke:#808080;" x="205.104789" xlink:href="#m205a7a7150" y="165.849018"/>
     <use style="fill:#808080;stroke:#808080;" x="208.795866" xlink:href="#m205a7a7150" y="138.796503"/>
     <use style="fill:#808080;stroke:#808080;" x="212.486943" xlink:href="#m205a7a7150" y="196.992918"/>
     <use style="fill:#808080;stroke:#808080;" x="216.178019" xlink:href="#m205a7a7150" y="179.477825"/>
     <use style="fill:#808080;stroke:#808080;" x="219.869096" xlink:href="#m205a7a7150" y="167.342844"/>
     <use style="fill:#808080;stroke:#808080;" x="223.560172" xlink:href="#m205a7a7150" y="117.685102"/>
     <use style="fill:#808080;stroke:#808080;" x="227.251249" xlink:href="#m205a7a7150" y="130.519568"/>
     <use style="fill:#808080;stroke:#808080;" x="230.942325" xlink:href="#m205a7a7150" y="127.130017"/>
     <use style="fill:#808080;stroke:#808080;" x="234.633402" xlink:href="#m205a7a7150" y="142.235801"/>
     <use style="fill:#808080;stroke:#808080;" x="238.324478" xlink:href="#m205a7a7150" y="171.884661"/>
     <use style="fill:#808080;stroke:#808080;" x="242.015555" xlink:href="#m205a7a7150" y="215.707452"/>
     <use style="fill:#808080;stroke:#808080;" x="245.706632" xlink:href="#m205a7a7150" y="133.284844"/>
     <use style="fill:#808080;stroke:#808080;" x="249.397708" xlink:href="#m205a7a7150" y="163.187337"/>
     <use style="fill:#808080;stroke:#808080;" x="253.088785" xlink:href="#m205a7a7150" y="154.196442"/>
     <use style="fill:#808080;stroke:#808080;" x="256.779861" xlink:href="#m205a7a7150" y="164.294418"/>
     <use style="fill:#808080;stroke:#808080;" x="260.470938" xlink:href="#m205a7a7150" y="178.166839"/>
     <use style="fill:#808080;stroke:#808080;" x="264.162014" xlink:href="#m205a7a7150" y="178.517008"/>
     <use style="fill:#808080;stroke:#808080;" x="267.853091" xlink:href="#m205a7a7150" y="189.031701"/>
     <use style="fill:#808080;stroke:#808080;" x="271.544167" xlink:href="#m205a7a7150" y="209.450189"/>
     <use style="fill:#808080;stroke:#808080;" x="275.235244" xlink:href="#m205a7a7150" y="143.810174"/>
     <use style="fill:#808080;stroke:#808080;" x="278.926321" xlink:href="#m205a7a7150" y="146.019825"/>
     <use style="fill:#808080;stroke:#808080;" x="282.617397" xlink:href="#m205a7a7150" y="215.328201"/>
     <use style="fill:#808080;stroke:#808080;" x="286.308474" xlink:href="#m205a7a7150" y="165.379161"/>
     <use style="fill:#808080;stroke:#808080;" x="289.99955" xlink:href="#m205a7a7150" y="230.284702"/>
     <use style="fill:#808080;stroke:#808080;" x="293.690627" xlink:href="#m205a7a7150" y="203.59488"/>
    </g>
   </g>
   <g id="matplotlib.axis_1">
    <g id="xtick_1">
     <g id="line2d_1">
      <defs>
       <path d="M 0 0 
L 0 3.5 
" id="med540d48dd" style="stroke:#000000;stroke-width:0.8;"/>
      </defs>
      <g>
       <use style="stroke:#000000;stroke-width:0.8;" x="127.592182" xlink:href="#med540d48dd" y="431.2584"/>
      </g>
     </g>
     <g id="text_1">
      <!-- 0 -->
      <g transform="translate(121.229682 453.455275)scale(0.2 -0.2)">
       <defs>
        <path d="M 31.78125 66.40625 
Q 24.171875 66.40625 20.328125 58.90625 
Q 16.5 51.421875 16.5 36.375 
Q 16.5 21.390625 20.328125 13.890625 
Q 24.171875 6.390625 31.78125 6.390625 
Q 39.453125 6.390625 43.28125 13.890625 
Q 47.125 21.390625 47.125 36.375 
Q 47.125 51.421875 43.28125 58.90625 
Q 39.453125 66.40625 31.78125 66.40625 
z
M 31.78125 74.21875 
Q 44.046875 74.21875 50.515625 64.515625 
Q 56.984375 54.828125 56.984375 36.375 
Q 56.984375 17.96875 50.515625 8.265625 
Q 44.046875 -1.421875 31.78125 -1.421875 
Q 19.53125 -1.421875 13.0625 8.265625 
Q 6.59375 17.96875 6.59375 36.375 
Q 6.59375 54.828125 13.0625 64.515625 
Q 19.53125 74.21875 31.78125 74.21875 
z
" id="DejaVuSans-48"/>
       </defs>
       <use xlink:href="#DejaVuSans-48"/>
      </g>
     </g>
    </g>
    <g id="xtick_2">
     <g id="line2d_2">
      <g>
       <use style="stroke:#000000;stroke-width:0.8;" x="201.413713" xlink:href="#med540d48dd" y="431.2584"/>
      </g>
     </g>
     <g id="text_2">
      <!-- 20 -->
      <g transform="translate(188.688713 453.455275)scale(0.2 -0.2)">
       <defs>
        <path d="M 19.1875 8.296875 
L 53.609375 8.296875 
L 53.609375 0 
L 7.328125 0 
L 7.328125 8.296875 
Q 12.9375 14.109375 22.625 23.890625 
Q 32.328125 33.6875 34.8125 36.53125 
Q 39.546875 41.84375 41.421875 45.53125 
Q 43.3125 49.21875 43.3125 52.78125 
Q 43.3125 58.59375 39.234375 62.25 
Q 35.15625 65.921875 28.609375 65.921875 
Q 23.96875 65.921875 18.8125 64.3125 
Q 13.671875 62.703125 7.8125 59.421875 
L 7.8125 69.390625 
Q 13.765625 71.78125 18.9375 73 
Q 24.125 74.21875 28.421875 74.21875 
Q 39.75 74.21875 46.484375 68.546875 
Q 53.21875 62.890625 53.21875 53.421875 
Q 53.21875 48.921875 51.53125 44.890625 
Q 49.859375 40.875 45.40625 35.40625 
Q 44.1875 33.984375 37.640625 27.21875 
Q 31.109375 20.453125 19.1875 8.296875 
z
" id="DejaVuSans-50"/>
       </defs>
       <use xlink:href="#DejaVuSans-50"/>
       <use x="63.623047" xlink:href="#DejaVuSans-48"/>
      </g>
     </g>
    </g>
    <g id="xtick_3">
     <g id="line2d_3">
      <g>
       <use style="stroke:#000000;stroke-width:0.8;" x="275.235244" xlink:href="#med540d48dd" y="431.2584"/>
      </g>
     </g>
     <g id="text_3">
      <!-- 40 -->
      <g transform="translate(262.510244 453.455275)scale(0.2 -0.2)">
       <defs>
        <path d="M 37.796875 64.3125 
L 12.890625 25.390625 
L 37.796875 25.390625 
z
M 35.203125 72.90625 
L 47.609375 72.90625 
L 47.609375 25.390625 
L 58.015625 25.390625 
L 58.015625 17.1875 
L 47.609375 17.1875 
L 47.609375 0 
L 37.796875 0 
L 37.796875 17.1875 
L 4.890625 17.1875 
L 4.890625 26.703125 
z
" id="DejaVuSans-52"/>
       </defs>
       <use xlink:href="#DejaVuSans-52"/>
       <use x="63.623047" xlink:href="#DejaVuSans-48"/>
      </g>
     </g>
    </g>
    <g id="xtick_4">
     <g id="line2d_4">
      <g>
       <use style="stroke:#000000;stroke-width:0.8;" x="349.056775" xlink:href="#med540d48dd" y="431.2584"/>
      </g>
     </g>
     <g id="text_4">
      <!-- 60 -->
      <g transform="translate(336.331775 453.455275)scale(0.2 -0.2)">
       <defs>
        <path d="M 33.015625 40.375 
Q 26.375 40.375 22.484375 35.828125 
Q 18.609375 31.296875 18.609375 23.390625 
Q 18.609375 15.53125 22.484375 10.953125 
Q 26.375 6.390625 33.015625 6.390625 
Q 39.65625 6.390625 43.53125 10.953125 
Q 47.40625 15.53125 47.40625 23.390625 
Q 47.40625 31.296875 43.53125 35.828125 
Q 39.65625 40.375 33.015625 40.375 
z
M 52.59375 71.296875 
L 52.59375 62.3125 
Q 48.875 64.0625 45.09375 64.984375 
Q 41.3125 65.921875 37.59375 65.921875 
Q 27.828125 65.921875 22.671875 59.328125 
Q 17.53125 52.734375 16.796875 39.40625 
Q 19.671875 43.65625 24.015625 45.921875 
Q 28.375 48.1875 33.59375 48.1875 
Q 44.578125 48.1875 50.953125 41.515625 
Q 57.328125 34.859375 57.328125 23.390625 
Q 57.328125 12.15625 50.6875 5.359375 
Q 44.046875 -1.421875 33.015625 -1.421875 
Q 20.359375 -1.421875 13.671875 8.265625 
Q 6.984375 17.96875 6.984375 36.375 
Q 6.984375 53.65625 15.1875 63.9375 
Q 23.390625 74.21875 37.203125 74.21875 
Q 40.921875 74.21875 44.703125 73.484375 
Q 48.484375 72.75 52.59375 71.296875 
z
" id="DejaVuSans-54"/>
       </defs>
       <use xlink:href="#DejaVuSans-54"/>
       <use x="63.623047" xlink:href="#DejaVuSans-48"/>
      </g>
     </g>
    </g>
    <g id="xtick_5">
     <g id="line2d_5">
      <g>
       <use style="stroke:#000000;stroke-width:0.8;" x="422.878306" xlink:href="#med540d48dd" y="431.2584"/>
      </g>
     </g>
     <g id="text_5">
      <!-- 80 -->
      <g transform="translate(410.153306 453.455275)scale(0.2 -0.2)">
       <defs>
        <path d="M 31.78125 34.625 
Q 24.75 34.625 20.71875 30.859375 
Q 16.703125 27.09375 16.703125 20.515625 
Q 16.703125 13.921875 20.71875 10.15625 
Q 24.75 6.390625 31.78125 6.390625 
Q 38.8125 6.390625 42.859375 10.171875 
Q 46.921875 13.96875 46.921875 20.515625 
Q 46.921875 27.09375 42.890625 30.859375 
Q 38.875 34.625 31.78125 34.625 
z
M 21.921875 38.8125 
Q 15.578125 40.375 12.03125 44.71875 
Q 8.5 49.078125 8.5 55.328125 
Q 8.5 64.0625 14.71875 69.140625 
Q 20.953125 74.21875 31.78125 74.21875 
Q 42.671875 74.21875 48.875 69.140625 
Q 55.078125 64.0625 55.078125 55.328125 
Q 55.078125 49.078125 51.53125 44.71875 
Q 48 40.375 41.703125 38.8125 
Q 48.828125 37.15625 52.796875 32.3125 
Q 56.78125 27.484375 56.78125 20.515625 
Q 56.78125 9.90625 50.3125 4.234375 
Q 43.84375 -1.421875 31.78125 -1.421875 
Q 19.734375 -1.421875 13.25 4.234375 
Q 6.78125 9.90625 6.78125 20.515625 
Q 6.78125 27.484375 10.78125 32.3125 
Q 14.796875 37.15625 21.921875 38.8125 
z
M 18.3125 54.390625 
Q 18.3125 48.734375 21.84375 45.5625 
Q 25.390625 42.390625 31.78125 42.390625 
Q 38.140625 42.390625 41.71875 45.5625 
Q 45.3125 48.734375 45.3125 54.390625 
Q 45.3125 60.0625 41.71875 63.234375 
Q 38.140625 66.40625 31.78125 66.40625 
Q 25.390625 66.40625 21.84375 63.234375 
Q 18.3125 60.0625 18.3125 54.390625 
z
" id="DejaVuSans-56"/>
       </defs>
       <use xlink:href="#DejaVuSans-56"/>
       <use x="63.623047" xlink:href="#DejaVuSans-48"/>
      </g>
     </g>
    </g>
    <g id="xtick_6">
     <g id="line2d_6">
      <g>
       <use style="stroke:#000000;stroke-width:0.8;" x="496.699837" xlink:href="#med540d48dd" y="431.2584"/>
      </g>
     </g>
     <g id="text_6">
      <!-- 100 -->
      <g transform="translate(477.612337 453.455275)scale(0.2 -0.2)">
       <defs>
        <path d="M 12.40625 8.296875 
L 28.515625 8.296875 
L 28.515625 63.921875 
L 10.984375 60.40625 
L 10.984375 69.390625 
L 28.421875 72.90625 
L 38.28125 72.90625 
L 38.28125 8.296875 
L 54.390625 8.296875 
L 54.390625 0 
L 12.40625 0 
z
" id="DejaVuSans-49"/>
       </defs>
       <use xlink:href="#DejaVuSans-49"/>
       <use x="63.623047" xlink:href="#DejaVuSans-48"/>
       <use x="127.246094" xlink:href="#DejaVuSans-48"/>
      </g>
     </g>
    </g>
    <g id="xtick_7">
     <g id="line2d_7">
      <g>
       <use style="stroke:#000000;stroke-width:0.8;" x="570.521368" xlink:href="#med540d48dd" y="431.2584"/>
      </g>
     </g>
     <g id="text_7">
      <!-- 120 -->
      <g transform="translate(551.433868 453.455275)scale(0.2 -0.2)">
       <use xlink:href="#DejaVuSans-49"/>
       <use x="63.623047" xlink:href="#DejaVuSans-50"/>
       <use x="127.246094" xlink:href="#DejaVuSans-48"/>
      </g>
     </g>
    </g>
    <g id="xtick_8">
     <g id="line2d_8">
      <g>
       <use style="stroke:#000000;stroke-width:0.8;" x="644.3429" xlink:href="#med540d48dd" y="431.2584"/>
      </g>
     </g>
     <g id="text_8">
      <!-- 140 -->
      <g transform="translate(625.2554 453.455275)scale(0.2 -0.2)">
       <use xlink:href="#DejaVuSans-49"/>
       <use x="63.623047" xlink:href="#DejaVuSans-52"/>
       <use x="127.246094" xlink:href="#DejaVuSans-48"/>
      </g>
     </g>
    </g>
    <g id="text_9">
     <!-- Time(Cycle) -->
     <g transform="translate(348.512438 476.811525)scale(0.2 -0.2)">
      <defs>
       <path d="M -0.296875 72.90625 
L 61.375 72.90625 
L 61.375 64.59375 
L 35.5 64.59375 
L 35.5 0 
L 25.59375 0 
L 25.59375 64.59375 
L -0.296875 64.59375 
z
" id="DejaVuSans-84"/>
       <path d="M 9.421875 54.6875 
L 18.40625 54.6875 
L 18.40625 0 
L 9.421875 0 
z
M 9.421875 75.984375 
L 18.40625 75.984375 
L 18.40625 64.59375 
L 9.421875 64.59375 
z
" id="DejaVuSans-105"/>
       <path d="M 52 44.1875 
Q 55.375 50.25 60.0625 53.125 
Q 64.75 56 71.09375 56 
Q 79.640625 56 84.28125 50.015625 
Q 88.921875 44.046875 88.921875 33.015625 
L 88.921875 0 
L 79.890625 0 
L 79.890625 32.71875 
Q 79.890625 40.578125 77.09375 44.375 
Q 74.3125 48.1875 68.609375 48.1875 
Q 61.625 48.1875 57.5625 43.546875 
Q 53.515625 38.921875 53.515625 30.90625 
L 53.515625 0 
L 44.484375 0 
L 44.484375 32.71875 
Q 44.484375 40.625 41.703125 44.40625 
Q 38.921875 48.1875 33.109375 48.1875 
Q 26.21875 48.1875 22.15625 43.53125 
Q 18.109375 38.875 18.109375 30.90625 
L 18.109375 0 
L 9.078125 0 
L 9.078125 54.6875 
L 18.109375 54.6875 
L 18.109375 46.1875 
Q 21.1875 51.21875 25.484375 53.609375 
Q 29.78125 56 35.6875 56 
Q 41.65625 56 45.828125 52.96875 
Q 50 49.953125 52 44.1875 
z
" id="DejaVuSans-109"/>
       <path d="M 56.203125 29.59375 
L 56.203125 25.203125 
L 14.890625 25.203125 
Q 15.484375 15.921875 20.484375 11.0625 
Q 25.484375 6.203125 34.421875 6.203125 
Q 39.59375 6.203125 44.453125 7.46875 
Q 49.3125 8.734375 54.109375 11.28125 
L 54.109375 2.78125 
Q 49.265625 0.734375 44.1875 -0.34375 
Q 39.109375 -1.421875 33.890625 -1.421875 
Q 20.796875 -1.421875 13.15625 6.1875 
Q 5.515625 13.8125 5.515625 26.8125 
Q 5.515625 40.234375 12.765625 48.109375 
Q 20.015625 56 32.328125 56 
Q 43.359375 56 49.78125 48.890625 
Q 56.203125 41.796875 56.203125 29.59375 
z
M 47.21875 32.234375 
Q 47.125 39.59375 43.09375 43.984375 
Q 39.0625 48.390625 32.421875 48.390625 
Q 24.90625 48.390625 20.390625 44.140625 
Q 15.875 39.890625 15.1875 32.171875 
z
" id="DejaVuSans-101"/>
       <path d="M 31 75.875 
Q 24.46875 64.65625 21.28125 53.65625 
Q 18.109375 42.671875 18.109375 31.390625 
Q 18.109375 20.125 21.3125 9.0625 
Q 24.515625 -2 31 -13.1875 
L 23.1875 -13.1875 
Q 15.875 -1.703125 12.234375 9.375 
Q 8.59375 20.453125 8.59375 31.390625 
Q 8.59375 42.28125 12.203125 53.3125 
Q 15.828125 64.359375 23.1875 75.875 
z
" id="DejaVuSans-40"/>
       <path d="M 64.40625 67.28125 
L 64.40625 56.890625 
Q 59.421875 61.53125 53.78125 63.8125 
Q 48.140625 66.109375 41.796875 66.109375 
Q 29.296875 66.109375 22.65625 58.46875 
Q 16.015625 50.828125 16.015625 36.375 
Q 16.015625 21.96875 22.65625 14.328125 
Q 29.296875 6.6875 41.796875 6.6875 
Q 48.140625 6.6875 53.78125 8.984375 
Q 59.421875 11.28125 64.40625 15.921875 
L 64.40625 5.609375 
Q 59.234375 2.09375 53.4375 0.328125 
Q 47.65625 -1.421875 41.21875 -1.421875 
Q 24.65625 -1.421875 15.125 8.703125 
Q 5.609375 18.84375 5.609375 36.375 
Q 5.609375 53.953125 15.125 64.078125 
Q 24.65625 74.21875 41.21875 74.21875 
Q 47.75 74.21875 53.53125 72.484375 
Q 59.328125 70.75 64.40625 67.28125 
z
" id="DejaVuSans-67"/>
       <path d="M 32.171875 -5.078125 
Q 28.375 -14.84375 24.75 -17.8125 
Q 21.140625 -20.796875 15.09375 -20.796875 
L 7.90625 -20.796875 
L 7.90625 -13.28125 
L 13.1875 -13.28125 
Q 16.890625 -13.28125 18.9375 -11.515625 
Q 21 -9.765625 23.484375 -3.21875 
L 25.09375 0.875 
L 2.984375 54.6875 
L 12.5 54.6875 
L 29.59375 11.921875 
L 46.6875 54.6875 
L 56.203125 54.6875 
z
" id="DejaVuSans-121"/>
       <path d="M 48.78125 52.59375 
L 48.78125 44.1875 
Q 44.96875 46.296875 41.140625 47.34375 
Q 37.3125 48.390625 33.40625 48.390625 
Q 24.65625 48.390625 19.8125 42.84375 
Q 14.984375 37.3125 14.984375 27.296875 
Q 14.984375 17.28125 19.8125 11.734375 
Q 24.65625 6.203125 33.40625 6.203125 
Q 37.3125 6.203125 41.140625 7.25 
Q 44.96875 8.296875 48.78125 10.40625 
L 48.78125 2.09375 
Q 45.015625 0.34375 40.984375 -0.53125 
Q 36.96875 -1.421875 32.421875 -1.421875 
Q 20.0625 -1.421875 12.78125 6.34375 
Q 5.515625 14.109375 5.515625 27.296875 
Q 5.515625 40.671875 12.859375 48.328125 
Q 20.21875 56 33.015625 56 
Q 37.15625 56 41.109375 55.140625 
Q 45.0625 54.296875 48.78125 52.59375 
z
" id="DejaVuSans-99"/>
       <path d="M 9.421875 75.984375 
L 18.40625 75.984375 
L 18.40625 0 
L 9.421875 0 
z
" id="DejaVuSans-108"/>
       <path d="M 8.015625 75.875 
L 15.828125 75.875 
Q 23.140625 64.359375 26.78125 53.3125 
Q 30.421875 42.28125 30.421875 31.390625 
Q 30.421875 20.453125 26.78125 9.375 
Q 23.140625 -1.703125 15.828125 -13.1875 
L 8.015625 -13.1875 
Q 14.5 -2 17.703125 9.0625 
Q 20.90625 20.125 20.90625 31.390625 
Q 20.90625 42.671875 17.703125 53.65625 
Q 14.5 64.65625 8.015625 75.875 
z
" id="DejaVuSans-41"/>
      </defs>
      <use xlink:href="#DejaVuSans-84"/>
      <use x="57.958984" xlink:href="#DejaVuSans-105"/>
      <use x="85.742188" xlink:href="#DejaVuSans-109"/>
      <use x="183.154297" xlink:href="#DejaVuSans-101"/>
      <use x="244.677734" xlink:href="#DejaVuSans-40"/>
      <use x="283.691406" xlink:href="#DejaVuSans-67"/>
      <use x="353.515625" xlink:href="#DejaVuSans-121"/>
      <use x="412.695312" xlink:href="#DejaVuSans-99"/>
      <use x="467.675781" xlink:href="#DejaVuSans-108"/>
      <use x="495.458984" xlink:href="#DejaVuSans-101"/>
      <use x="556.982422" xlink:href="#DejaVuSans-41"/>
     </g>
    </g>
   </g>
   <g id="matplotlib.axis_2">
    <g id="ytick_1">
     <g id="line2d_9">
      <defs>
       <path d="M 0 0 
L -3.5 0 
" id="me577d67b26" style="stroke:#000000;stroke-width:0.8;"/>
      </defs>
      <g>
       <use style="stroke:#000000;stroke-width:0.8;" x="99.54" xlink:href="#me577d67b26" y="414.2988"/>
      </g>
     </g>
     <g id="text_10">
      <!-- 0.0 -->
      <g transform="translate(60.73375 421.897238)scale(0.2 -0.2)">
       <defs>
        <path d="M 10.6875 12.40625 
L 21 12.40625 
L 21 0 
L 10.6875 0 
z
" id="DejaVuSans-46"/>
       </defs>
       <use xlink:href="#DejaVuSans-48"/>
       <use x="63.623047" xlink:href="#DejaVuSans-46"/>
       <use x="95.410156" xlink:href="#DejaVuSans-48"/>
      </g>
     </g>
    </g>
    <g id="ytick_2">
     <g id="line2d_10">
      <g>
       <use style="stroke:#000000;stroke-width:0.8;" x="99.54" xlink:href="#me577d67b26" y="348.838314"/>
      </g>
     </g>
     <g id="text_11">
      <!-- 0.2 -->
      <g transform="translate(60.73375 356.436751)scale(0.2 -0.2)">
       <use xlink:href="#DejaVuSans-48"/>
       <use x="63.623047" xlink:href="#DejaVuSans-46"/>
       <use x="95.410156" xlink:href="#DejaVuSans-50"/>
      </g>
     </g>
    </g>
    <g id="ytick_3">
     <g id="line2d_11">
      <g>
       <use style="stroke:#000000;stroke-width:0.8;" x="99.54" xlink:href="#me577d67b26" y="283.377828"/>
      </g>
     </g>
     <g id="text_12">
      <!-- 0.4 -->
      <g transform="translate(60.73375 290.976265)scale(0.2 -0.2)">
       <use xlink:href="#DejaVuSans-48"/>
       <use x="63.623047" xlink:href="#DejaVuSans-46"/>
       <use x="95.410156" xlink:href="#DejaVuSans-52"/>
      </g>
     </g>
    </g>
    <g id="ytick_4">
     <g id="line2d_12">
      <g>
       <use style="stroke:#000000;stroke-width:0.8;" x="99.54" xlink:href="#me577d67b26" y="217.917342"/>
      </g>
     </g>
     <g id="text_13">
      <!-- 0.6 -->
      <g transform="translate(60.73375 225.515779)scale(0.2 -0.2)">
       <use xlink:href="#DejaVuSans-48"/>
       <use x="63.623047" xlink:href="#DejaVuSans-46"/>
       <use x="95.410156" xlink:href="#DejaVuSans-54"/>
      </g>
     </g>
    </g>
    <g id="ytick_5">
     <g id="line2d_13">
      <g>
       <use style="stroke:#000000;stroke-width:0.8;" x="99.54" xlink:href="#me577d67b26" y="152.456856"/>
      </g>
     </g>
     <g id="text_14">
      <!-- 0.8 -->
      <g transform="translate(60.73375 160.055293)scale(0.2 -0.2)">
       <use xlink:href="#DejaVuSans-48"/>
       <use x="63.623047" xlink:href="#DejaVuSans-46"/>
       <use x="95.410156" xlink:href="#DejaVuSans-56"/>
      </g>
     </g>
    </g>
    <g id="ytick_6">
     <g id="line2d_14">
      <g>
       <use style="stroke:#000000;stroke-width:0.8;" x="99.54" xlink:href="#me577d67b26" y="86.996369"/>
      </g>
     </g>
     <g id="text_15">
      <!-- 1.0 -->
      <g transform="translate(60.73375 94.594807)scale(0.2 -0.2)">
       <use xlink:href="#DejaVuSans-49"/>
       <use x="63.623047" xlink:href="#DejaVuSans-46"/>
       <use x="95.410156" xlink:href="#DejaVuSans-48"/>
      </g>
     </g>
    </g>
    <g id="text_16">
     <!-- HI value -->
     <g transform="translate(52.574375 285.666863)rotate(-90)scale(0.2 -0.2)">
      <defs>
       <path d="M 9.8125 72.90625 
L 19.671875 72.90625 
L 19.671875 43.015625 
L 55.515625 43.015625 
L 55.515625 72.90625 
L 65.375 72.90625 
L 65.375 0 
L 55.515625 0 
L 55.515625 34.71875 
L 19.671875 34.71875 
L 19.671875 0 
L 9.8125 0 
z
" id="DejaVuSans-72"/>
       <path d="M 9.8125 72.90625 
L 19.671875 72.90625 
L 19.671875 0 
L 9.8125 0 
z
" id="DejaVuSans-73"/>
       <path id="DejaVuSans-32"/>
       <path d="M 2.984375 54.6875 
L 12.5 54.6875 
L 29.59375 8.796875 
L 46.6875 54.6875 
L 56.203125 54.6875 
L 35.6875 0 
L 23.484375 0 
z
" id="DejaVuSans-118"/>
       <path d="M 34.28125 27.484375 
Q 23.390625 27.484375 19.1875 25 
Q 14.984375 22.515625 14.984375 16.5 
Q 14.984375 11.71875 18.140625 8.90625 
Q 21.296875 6.109375 26.703125 6.109375 
Q 34.1875 6.109375 38.703125 11.40625 
Q 43.21875 16.703125 43.21875 25.484375 
L 43.21875 27.484375 
z
M 52.203125 31.203125 
L 52.203125 0 
L 43.21875 0 
L 43.21875 8.296875 
Q 40.140625 3.328125 35.546875 0.953125 
Q 30.953125 -1.421875 24.3125 -1.421875 
Q 15.921875 -1.421875 10.953125 3.296875 
Q 6 8.015625 6 15.921875 
Q 6 25.140625 12.171875 29.828125 
Q 18.359375 34.515625 30.609375 34.515625 
L 43.21875 34.515625 
L 43.21875 35.40625 
Q 43.21875 41.609375 39.140625 45 
Q 35.0625 48.390625 27.6875 48.390625 
Q 23 48.390625 18.546875 47.265625 
Q 14.109375 46.140625 10.015625 43.890625 
L 10.015625 52.203125 
Q 14.9375 54.109375 19.578125 55.046875 
Q 24.21875 56 28.609375 56 
Q 40.484375 56 46.34375 49.84375 
Q 52.203125 43.703125 52.203125 31.203125 
z
" id="DejaVuSans-97"/>
       <path d="M 8.5 21.578125 
L 8.5 54.6875 
L 17.484375 54.6875 
L 17.484375 21.921875 
Q 17.484375 14.15625 20.5 10.265625 
Q 23.53125 6.390625 29.59375 6.390625 
Q 36.859375 6.390625 41.078125 11.03125 
Q 45.3125 15.671875 45.3125 23.6875 
L 45.3125 54.6875 
L 54.296875 54.6875 
L 54.296875 0 
L 45.3125 0 
L 45.3125 8.40625 
Q 42.046875 3.421875 37.71875 1 
Q 33.40625 -1.421875 27.6875 -1.421875 
Q 18.265625 -1.421875 13.375 4.4375 
Q 8.5 10.296875 8.5 21.578125 
z
M 31.109375 56 
z
" id="DejaVuSans-117"/>
      </defs>
      <use xlink:href="#DejaVuSans-72"/>
      <use x="75.195312" xlink:href="#DejaVuSans-73"/>
      <use x="104.6875" xlink:href="#DejaVuSans-32"/>
      <use x="136.474609" xlink:href="#DejaVuSans-118"/>
      <use x="195.654297" xlink:href="#DejaVuSans-97"/>
      <use x="256.933594" xlink:href="#DejaVuSans-108"/>
      <use x="284.716797" xlink:href="#DejaVuSans-117"/>
      <use x="348.095703" xlink:href="#DejaVuSans-101"/>
     </g>
    </g>
   </g>
   <g id="line2d_15">
    <path clip-path="url(#p99c0d068db)" d="M 127.592182 147.755449 
L 131.283258 147.761984 
L 134.974335 147.780654 
L 138.665411 147.800261 
L 142.356488 147.83762 
L 146.047565 147.870297 
L 149.738641 147.926326 
L 153.429718 147.972074 
L 157.120794 148.046773 
L 160.811871 148.105611 
L 164.502947 148.19898 
L 168.194024 148.27089 
L 171.8851 148.382928 
L 175.576177 148.467908 
L 179.267254 148.598617 
L 182.95833 148.696687 
L 186.649407 148.846066 
L 190.340483 148.957207 
L 194.03156 149.125255 
L 197.722636 149.249468 
L 201.413713 149.573488 
L 205.104789 149.92925 
L 208.795866 150.316752 
L 212.486943 150.736015 
L 216.178019 151.187018 
L 219.869096 151.669762 
L 223.560172 152.184266 
L 227.251249 152.730511 
L 230.942325 153.308516 
L 234.633402 153.918262 
L 238.324478 154.559748 
L 242.015555 155.232995 
L 245.706632 155.937982 
L 249.397708 156.674711 
L 253.088785 157.443199 
L 256.779861 158.243428 
L 260.470938 158.96812 
L 264.162014 159.728317 
L 267.853091 160.516607 
L 271.544167 161.333575 
L 275.235244 162.188272 
L 278.926321 163.088328 
L 282.617397 164.026269 
L 286.308474 164.996049 
L 289.99955 166.004222 
L 293.690627 167.051939 
" style="fill:none;stroke:#000000;stroke-linecap:square;stroke-width:2;"/>
   </g>
   <g id="line2d_16">
    <path clip-path="url(#p99c0d068db)" d="M 293.690627 167.051939 
L 297.381703 168.152076 
L 301.07278 169.297883 
L 304.763856 170.505982 
L 308.454933 171.775864 
L 312.14601 173.113013 
L 315.837086 174.513351 
L 319.528163 175.97399 
L 323.219239 177.505915 
L 326.910316 179.095663 
L 330.601392 180.733754 
L 334.292469 182.411603 
L 337.983545 184.126324 
L 341.674622 185.8643 
L 345.365699 187.626076 
L 349.056775 189.416003 
L 352.747852 191.236306 
L 356.438928 193.096835 
L 360.130005 195.007502 
L 363.821081 196.974881 
L 367.512158 198.994329 
L 371.203234 201.060929 
L 374.894311 203.171854 
L 378.585388 205.315182 
L 382.276464 207.484613 
L 385.967541 209.677747 
L 389.658617 211.890936 
L 393.349694 214.120298 
L 397.04077 216.362965 
L 400.731847 218.616927 
L 404.422923 220.880273 
L 408.114 223.152125 
L 411.805077 225.430044 
L 415.496153 227.716079 
L 419.18723 230.010542 
L 422.878306 232.3131 
L 426.569383 234.625374 
L 430.260459 236.949373 
L 433.951536 239.28773 
L 437.642612 241.643821 
L 441.333689 244.022132 
L 445.024766 246.423054 
L 448.715842 248.839407 
L 452.406919 251.267465 
L 456.097995 253.704537 
L 459.789072 256.162405 
L 463.480148 258.629812 
L 467.171225 261.10477 
L 470.862301 263.590262 
L 474.553378 266.067151 
L 478.244455 268.543942 
L 481.935531 271.027834 
L 485.626608 273.52072 
L 489.317684 276.01822 
L 493.008761 278.510365 
L 496.699837 281.005738 
L 500.390914 283.505686 
L 504.08199 286.015808 
L 507.773067 288.535967 
L 511.464144 291.070885 
L 515.15522 293.623653 
L 518.846297 296.200222 
L 522.537373 298.816471 
L 526.22845 301.478664 
L 529.919526 304.192623 
L 533.610603 306.942761 
L 537.301679 309.709423 
L 540.992756 312.475704 
L 544.683833 315.243508 
L 548.374909 318.018578 
L 552.065986 320.796067 
L 555.757062 323.577166 
L 559.448139 326.350626 
L 563.139215 328.901882 
L 566.830292 331.450885 
L 570.521368 333.997615 
L 574.212445 336.542083 
L 577.903522 339.084296 
L 581.594598 341.624247 
L 585.285675 344.161935 
L 588.976751 346.69735 
L 592.667828 349.230512 
L 596.358904 351.76142 
L 600.049981 354.290056 
L 603.741057 356.816429 
L 607.432134 359.340543 
L 611.123211 361.8624 
L 614.814287 364.381988 
L 618.505364 366.899319 
L 622.19644 369.414386 
L 625.887517 371.927191 
L 629.578593 374.437732 
L 633.26967 376.946011 
L 636.960746 379.452031 
L 640.651823 381.955788 
L 644.3429 384.457287 
L 648.033976 386.956518 
L 651.725053 389.453491 
L 655.416129 391.948201 
L 659.107206 394.440648 
L 662.798282 396.930832 
L 666.489359 399.418756 
L 670.180435 401.904419 
L 673.871512 404.387819 
L 677.562589 406.868958 
L 681.253665 409.347834 
L 684.944742 411.824447 
L 688.635818 414.2988 
" style="fill:none;stroke:#ff0000;stroke-linecap:square;stroke-width:2;"/>
   </g>
   <g id="line2d_17">
    <path clip-path="url(#p99c0d068db)" d="M 293.690627 431.2584 
L 293.690627 58.1472 
" style="fill:none;stroke:#0000ff;stroke-dasharray:5.55,2.4;stroke-dashoffset:0;stroke-width:1.5;"/>
   </g>
   <g id="line2d_18">
    <path clip-path="url(#p99c0d068db)" d="M 99.54 414.2988 
L 716.688 414.2988 
" style="fill:none;stroke:#008000;stroke-dasharray:5.55,2.4;stroke-dashoffset:0;stroke-width:1.5;"/>
   </g>
   <g id="patch_3">
    <path d="M 99.54 431.2584 
L 99.54 58.1472 
" style="fill:none;stroke:#000000;stroke-linecap:square;stroke-linejoin:miter;stroke-width:0.8;"/>
   </g>
   <g id="patch_4">
    <path d="M 716.688 431.2584 
L 716.688 58.1472 
" style="fill:none;stroke:#000000;stroke-linecap:square;stroke-linejoin:miter;stroke-width:0.8;"/>
   </g>
   <g id="patch_5">
    <path d="M 99.54 431.2584 
L 716.688 431.2584 
" style="fill:none;stroke:#000000;stroke-linecap:square;stroke-linejoin:miter;stroke-width:0.8;"/>
   </g>
   <g id="patch_6">
    <path d="M 99.54 58.1472 
L 716.688 58.1472 
" style="fill:none;stroke:#000000;stroke-linecap:square;stroke-linejoin:miter;stroke-width:0.8;"/>
   </g>
   <g id="legend_1">
    <g id="patch_7">
     <path d="M 467.978625 191.5722 
L 702.688 191.5722 
Q 706.688 191.5722 706.688 187.5722 
L 706.688 72.1472 
Q 706.688 68.1472 702.688 68.1472 
L 467.978625 68.1472 
Q 463.978625 68.1472 463.978625 72.1472 
L 463.978625 187.5722 
Q 463.978625 191.5722 467.978625 191.5722 
z
" style="fill:#ffffff;opacity:0.8;stroke:#cccccc;stroke-linejoin:miter;"/>
    </g>
    <g id="line2d_19">
     <path d="M 471.978625 84.344075 
L 511.978625 84.344075 
" style="fill:none;stroke:#000000;stroke-linecap:square;stroke-width:2;"/>
    </g>
    <g id="line2d_20"/>
    <g id="text_17">
     <!-- Raw HI Data -->
     <g transform="translate(527.978625 91.344075)scale(0.2 -0.2)">
      <defs>
       <path d="M 44.390625 34.1875 
Q 47.5625 33.109375 50.5625 29.59375 
Q 53.5625 26.078125 56.59375 19.921875 
L 66.609375 0 
L 56 0 
L 46.6875 18.703125 
Q 43.0625 26.03125 39.671875 28.421875 
Q 36.28125 30.8125 30.421875 30.8125 
L 19.671875 30.8125 
L 19.671875 0 
L 9.8125 0 
L 9.8125 72.90625 
L 32.078125 72.90625 
Q 44.578125 72.90625 50.734375 67.671875 
Q 56.890625 62.453125 56.890625 51.90625 
Q 56.890625 45.015625 53.6875 40.46875 
Q 50.484375 35.9375 44.390625 34.1875 
z
M 19.671875 64.796875 
L 19.671875 38.921875 
L 32.078125 38.921875 
Q 39.203125 38.921875 42.84375 42.21875 
Q 46.484375 45.515625 46.484375 51.90625 
Q 46.484375 58.296875 42.84375 61.546875 
Q 39.203125 64.796875 32.078125 64.796875 
z
" id="DejaVuSans-82"/>
       <path d="M 4.203125 54.6875 
L 13.1875 54.6875 
L 24.421875 12.015625 
L 35.59375 54.6875 
L 46.1875 54.6875 
L 57.421875 12.015625 
L 68.609375 54.6875 
L 77.59375 54.6875 
L 63.28125 0 
L 52.6875 0 
L 40.921875 44.828125 
L 29.109375 0 
L 18.5 0 
z
" id="DejaVuSans-119"/>
       <path d="M 19.671875 64.796875 
L 19.671875 8.109375 
L 31.59375 8.109375 
Q 46.6875 8.109375 53.6875 14.9375 
Q 60.6875 21.78125 60.6875 36.53125 
Q 60.6875 51.171875 53.6875 57.984375 
Q 46.6875 64.796875 31.59375 64.796875 
z
M 9.8125 72.90625 
L 30.078125 72.90625 
Q 51.265625 72.90625 61.171875 64.09375 
Q 71.09375 55.28125 71.09375 36.53125 
Q 71.09375 17.671875 61.125 8.828125 
Q 51.171875 0 30.078125 0 
L 9.8125 0 
z
" id="DejaVuSans-68"/>
       <path d="M 18.3125 70.21875 
L 18.3125 54.6875 
L 36.8125 54.6875 
L 36.8125 47.703125 
L 18.3125 47.703125 
L 18.3125 18.015625 
Q 18.3125 11.328125 20.140625 9.421875 
Q 21.96875 7.515625 27.59375 7.515625 
L 36.8125 7.515625 
L 36.8125 0 
L 27.59375 0 
Q 17.1875 0 13.234375 3.875 
Q 9.28125 7.765625 9.28125 18.015625 
L 9.28125 47.703125 
L 2.6875 47.703125 
L 2.6875 54.6875 
L 9.28125 54.6875 
L 9.28125 70.21875 
z
" id="DejaVuSans-116"/>
      </defs>
      <use xlink:href="#DejaVuSans-82"/>
      <use x="67.232422" xlink:href="#DejaVuSans-97"/>
      <use x="128.511719" xlink:href="#DejaVuSans-119"/>
      <use x="210.298828" xlink:href="#DejaVuSans-32"/>
      <use x="242.085938" xlink:href="#DejaVuSans-72"/>
      <use x="317.28125" xlink:href="#DejaVuSans-73"/>
      <use x="346.773438" xlink:href="#DejaVuSans-32"/>
      <use x="378.560547" xlink:href="#DejaVuSans-68"/>
      <use x="455.5625" xlink:href="#DejaVuSans-97"/>
      <use x="516.841797" xlink:href="#DejaVuSans-116"/>
      <use x="556.050781" xlink:href="#DejaVuSans-97"/>
     </g>
    </g>
    <g id="line2d_21">
     <path d="M 471.978625 113.700325 
L 511.978625 113.700325 
" style="fill:none;stroke:#ff0000;stroke-linecap:square;stroke-width:2;"/>
    </g>
    <g id="line2d_22"/>
    <g id="text_18">
     <!-- Prediction Data -->
     <g transform="translate(527.978625 120.700325)scale(0.2 -0.2)">
      <defs>
       <path d="M 19.671875 64.796875 
L 19.671875 37.40625 
L 32.078125 37.40625 
Q 38.96875 37.40625 42.71875 40.96875 
Q 46.484375 44.53125 46.484375 51.125 
Q 46.484375 57.671875 42.71875 61.234375 
Q 38.96875 64.796875 32.078125 64.796875 
z
M 9.8125 72.90625 
L 32.078125 72.90625 
Q 44.34375 72.90625 50.609375 67.359375 
Q 56.890625 61.8125 56.890625 51.125 
Q 56.890625 40.328125 50.609375 34.8125 
Q 44.34375 29.296875 32.078125 29.296875 
L 19.671875 29.296875 
L 19.671875 0 
L 9.8125 0 
z
" id="DejaVuSans-80"/>
       <path d="M 41.109375 46.296875 
Q 39.59375 47.171875 37.8125 47.578125 
Q 36.03125 48 33.890625 48 
Q 26.265625 48 22.1875 43.046875 
Q 18.109375 38.09375 18.109375 28.8125 
L 18.109375 0 
L 9.078125 0 
L 9.078125 54.6875 
L 18.109375 54.6875 
L 18.109375 46.1875 
Q 20.953125 51.171875 25.484375 53.578125 
Q 30.03125 56 36.53125 56 
Q 37.453125 56 38.578125 55.875 
Q 39.703125 55.765625 41.0625 55.515625 
z
" id="DejaVuSans-114"/>
       <path d="M 45.40625 46.390625 
L 45.40625 75.984375 
L 54.390625 75.984375 
L 54.390625 0 
L 45.40625 0 
L 45.40625 8.203125 
Q 42.578125 3.328125 38.25 0.953125 
Q 33.9375 -1.421875 27.875 -1.421875 
Q 17.96875 -1.421875 11.734375 6.484375 
Q 5.515625 14.40625 5.515625 27.296875 
Q 5.515625 40.1875 11.734375 48.09375 
Q 17.96875 56 27.875 56 
Q 33.9375 56 38.25 53.625 
Q 42.578125 51.265625 45.40625 46.390625 
z
M 14.796875 27.296875 
Q 14.796875 17.390625 18.875 11.75 
Q 22.953125 6.109375 30.078125 6.109375 
Q 37.203125 6.109375 41.296875 11.75 
Q 45.40625 17.390625 45.40625 27.296875 
Q 45.40625 37.203125 41.296875 42.84375 
Q 37.203125 48.484375 30.078125 48.484375 
Q 22.953125 48.484375 18.875 42.84375 
Q 14.796875 37.203125 14.796875 27.296875 
z
" id="DejaVuSans-100"/>
       <path d="M 30.609375 48.390625 
Q 23.390625 48.390625 19.1875 42.75 
Q 14.984375 37.109375 14.984375 27.296875 
Q 14.984375 17.484375 19.15625 11.84375 
Q 23.34375 6.203125 30.609375 6.203125 
Q 37.796875 6.203125 41.984375 11.859375 
Q 46.1875 17.53125 46.1875 27.296875 
Q 46.1875 37.015625 41.984375 42.703125 
Q 37.796875 48.390625 30.609375 48.390625 
z
M 30.609375 56 
Q 42.328125 56 49.015625 48.375 
Q 55.71875 40.765625 55.71875 27.296875 
Q 55.71875 13.875 49.015625 6.21875 
Q 42.328125 -1.421875 30.609375 -1.421875 
Q 18.84375 -1.421875 12.171875 6.21875 
Q 5.515625 13.875 5.515625 27.296875 
Q 5.515625 40.765625 12.171875 48.375 
Q 18.84375 56 30.609375 56 
z
" id="DejaVuSans-111"/>
       <path d="M 54.890625 33.015625 
L 54.890625 0 
L 45.90625 0 
L 45.90625 32.71875 
Q 45.90625 40.484375 42.875 44.328125 
Q 39.84375 48.1875 33.796875 48.1875 
Q 26.515625 48.1875 22.3125 43.546875 
Q 18.109375 38.921875 18.109375 30.90625 
L 18.109375 0 
L 9.078125 0 
L 9.078125 54.6875 
L 18.109375 54.6875 
L 18.109375 46.1875 
Q 21.34375 51.125 25.703125 53.5625 
Q 30.078125 56 35.796875 56 
Q 45.21875 56 50.046875 50.171875 
Q 54.890625 44.34375 54.890625 33.015625 
z
" id="DejaVuSans-110"/>
      </defs>
      <use xlink:href="#DejaVuSans-80"/>
      <use x="58.552734" xlink:href="#DejaVuSans-114"/>
      <use x="97.416016" xlink:href="#DejaVuSans-101"/>
      <use x="158.939453" xlink:href="#DejaVuSans-100"/>
      <use x="222.416016" xlink:href="#DejaVuSans-105"/>
      <use x="250.199219" xlink:href="#DejaVuSans-99"/>
      <use x="305.179688" xlink:href="#DejaVuSans-116"/>
      <use x="344.388672" xlink:href="#DejaVuSans-105"/>
      <use x="372.171875" xlink:href="#DejaVuSans-111"/>
      <use x="433.353516" xlink:href="#DejaVuSans-110"/>
      <use x="496.732422" xlink:href="#DejaVuSans-32"/>
      <use x="528.519531" xlink:href="#DejaVuSans-68"/>
      <use x="605.521484" xlink:href="#DejaVuSans-97"/>
      <use x="666.800781" xlink:href="#DejaVuSans-116"/>
      <use x="706.009766" xlink:href="#DejaVuSans-97"/>
     </g>
    </g>
    <g id="line2d_23">
     <path d="M 471.978625 143.056575 
L 511.978625 143.056575 
" style="fill:none;stroke:#008000;stroke-dasharray:5.55,2.4;stroke-dashoffset:0;stroke-width:1.5;"/>
    </g>
    <g id="line2d_24"/>
    <g id="text_19">
     <!-- Failure Threshold -->
     <g transform="translate(527.978625 150.056575)scale(0.2 -0.2)">
      <defs>
       <path d="M 9.8125 72.90625 
L 51.703125 72.90625 
L 51.703125 64.59375 
L 19.671875 64.59375 
L 19.671875 43.109375 
L 48.578125 43.109375 
L 48.578125 34.8125 
L 19.671875 34.8125 
L 19.671875 0 
L 9.8125 0 
z
" id="DejaVuSans-70"/>
       <path d="M 54.890625 33.015625 
L 54.890625 0 
L 45.90625 0 
L 45.90625 32.71875 
Q 45.90625 40.484375 42.875 44.328125 
Q 39.84375 48.1875 33.796875 48.1875 
Q 26.515625 48.1875 22.3125 43.546875 
Q 18.109375 38.921875 18.109375 30.90625 
L 18.109375 0 
L 9.078125 0 
L 9.078125 75.984375 
L 18.109375 75.984375 
L 18.109375 46.1875 
Q 21.34375 51.125 25.703125 53.5625 
Q 30.078125 56 35.796875 56 
Q 45.21875 56 50.046875 50.171875 
Q 54.890625 44.34375 54.890625 33.015625 
z
" id="DejaVuSans-104"/>
       <path d="M 44.28125 53.078125 
L 44.28125 44.578125 
Q 40.484375 46.53125 36.375 47.5 
Q 32.28125 48.484375 27.875 48.484375 
Q 21.1875 48.484375 17.84375 46.4375 
Q 14.5 44.390625 14.5 40.28125 
Q 14.5 37.15625 16.890625 35.375 
Q 19.28125 33.59375 26.515625 31.984375 
L 29.59375 31.296875 
Q 39.15625 29.25 43.1875 25.515625 
Q 47.21875 21.78125 47.21875 15.09375 
Q 47.21875 7.46875 41.1875 3.015625 
Q 35.15625 -1.421875 24.609375 -1.421875 
Q 20.21875 -1.421875 15.453125 -0.5625 
Q 10.6875 0.296875 5.421875 2 
L 5.421875 11.28125 
Q 10.40625 8.6875 15.234375 7.390625 
Q 20.0625 6.109375 24.8125 6.109375 
Q 31.15625 6.109375 34.5625 8.28125 
Q 37.984375 10.453125 37.984375 14.40625 
Q 37.984375 18.0625 35.515625 20.015625 
Q 33.0625 21.96875 24.703125 23.78125 
L 21.578125 24.515625 
Q 13.234375 26.265625 9.515625 29.90625 
Q 5.8125 33.546875 5.8125 39.890625 
Q 5.8125 47.609375 11.28125 51.796875 
Q 16.75 56 26.8125 56 
Q 31.78125 56 36.171875 55.265625 
Q 40.578125 54.546875 44.28125 53.078125 
z
" id="DejaVuSans-115"/>
      </defs>
      <use xlink:href="#DejaVuSans-70"/>
      <use x="48.394531" xlink:href="#DejaVuSans-97"/>
      <use x="109.673828" xlink:href="#DejaVuSans-105"/>
      <use x="137.457031" xlink:href="#DejaVuSans-108"/>
      <use x="165.240234" xlink:href="#DejaVuSans-117"/>
      <use x="228.619141" xlink:href="#DejaVuSans-114"/>
      <use x="267.482422" xlink:href="#DejaVuSans-101"/>
      <use x="329.005859" xlink:href="#DejaVuSans-32"/>
      <use x="360.792969" xlink:href="#DejaVuSans-84"/>
      <use x="421.876953" xlink:href="#DejaVuSans-104"/>
      <use x="485.255859" xlink:href="#DejaVuSans-114"/>
      <use x="524.119141" xlink:href="#DejaVuSans-101"/>
      <use x="585.642578" xlink:href="#DejaVuSans-115"/>
      <use x="637.742188" xlink:href="#DejaVuSans-104"/>
      <use x="701.121094" xlink:href="#DejaVuSans-111"/>
      <use x="762.302734" xlink:href="#DejaVuSans-108"/>
      <use x="790.085938" xlink:href="#DejaVuSans-100"/>
     </g>
    </g>
    <g id="PathCollection_2">
     <g>
      <use style="fill:#808080;stroke:#808080;" x="491.978625" xlink:href="#m205a7a7150" y="174.162825"/>
     </g>
    </g>
    <g id="text_20">
     <!-- Raw data -->
     <g transform="translate(527.978625 179.412825)scale(0.2 -0.2)">
      <use xlink:href="#DejaVuSans-82"/>
      <use x="67.232422" xlink:href="#DejaVuSans-97"/>
      <use x="128.511719" xlink:href="#DejaVuSans-119"/>
      <use x="210.298828" xlink:href="#DejaVuSans-32"/>
      <use x="242.085938" xlink:href="#DejaVuSans-100"/>
      <use x="305.5625" xlink:href="#DejaVuSans-97"/>
      <use x="366.841797" xlink:href="#DejaVuSans-116"/>
      <use x="406.050781" xlink:href="#DejaVuSans-97"/>
     </g>
    </g>
   </g>
  </g>
 </g>
 <defs>
  <clipPath id="p99c0d068db">
   <rect height="373.1112" width="617.148" x="99.54" y="58.1472"/>
  </clipPath>
 </defs>
</svg>
