<?xml version="1.0" encoding="utf-8" standalone="no"?>
<!DOCTYPE svg PUBLIC "-//W3C//DTD SVG 1.1//EN"
  "http://www.w3.org/Graphics/SVG/1.1/DTD/svg11.dtd">
<!-- Created with matplotlib (https://matplotlib.org/) -->
<svg height="574.56pt" version="1.1" viewBox="0 0 956.88 574.56" width="956.88pt" xmlns="http://www.w3.org/2000/svg" xmlns:xlink="http://www.w3.org/1999/xlink">
 <metadata>
  <rdf:RDF xmlns:cc="http://creativecommons.org/ns#" xmlns:dc="http://purl.org/dc/elements/1.1/" xmlns:rdf="http://www.w3.org/1999/02/22-rdf-syntax-ns#">
   <cc:Work>
    <dc:type rdf:resource="http://purl.org/dc/dcmitype/StillImage"/>
    <dc:date>2023-11-03T13:18:57.950038</dc:date>
    <dc:format>image/svg+xml</dc:format>
    <dc:creator>
     <cc:Agent>
      <dc:title>Matplotlib v3.3.4, https://matplotlib.org/</dc:title>
     </cc:Agent>
    </dc:creator>
   </cc:Work>
  </rdf:RDF>
 </metadata>
 <defs>
  <style type="text/css">*{stroke-linecap:butt;stroke-linejoin:round;}</style>
 </defs>
 <g id="figure_1">
  <g id="patch_1">
   <path d="M 0 574.56 
L 956.88 574.56 
L 956.88 0 
L 0 0 
z
" style="fill:#ffffff;"/>
  </g>
  <g id="axes_1">
   <g id="patch_2">
    <path d="M 119.61 511.3584 
L 861.192 511.3584 
L 861.192 68.9472 
L 119.61 68.9472 
z
" style="fill:#ffffff;"/>
   </g>
   <g id="PathCollection_1">
    <defs>
     <path d="M 0 3 
C 0.795609 3 1.55874 2.683901 2.12132 2.12132 
C 2.683901 1.55874 3 0.795609 3 0 
C 3 -0.795609 2.683901 -1.55874 2.12132 -2.12132 
C 1.55874 -2.683901 0.795609 -3 0 -3 
C -0.795609 -3 -1.55874 -2.683901 -2.12132 -2.12132 
C -2.683901 -1.55874 -3 -0.795609 -3 0 
C -3 0.795609 -2.683901 1.55874 -2.12132 2.12132 
C -1.55874 2.683901 -0.795609 3 0 3 
z
" id="mf9ad211e5f" style="stroke:#808080;"/>
    </defs>
    <g clip-path="url(#p034d7ee9ba)">
     <use style="fill:#808080;stroke:#808080;" x="153.318273" xlink:href="#mf9ad211e5f" y="193.756358"/>
     <use style="fill:#808080;stroke:#808080;" x="155.675495" xlink:href="#mf9ad211e5f" y="198.050737"/>
     <use style="fill:#808080;stroke:#808080;" x="158.032716" xlink:href="#mf9ad211e5f" y="267.970346"/>
     <use style="fill:#808080;stroke:#808080;" x="160.389938" xlink:href="#mf9ad211e5f" y="271.443506"/>
     <use style="fill:#808080;stroke:#808080;" x="162.74716" xlink:href="#mf9ad211e5f" y="299.800583"/>
     <use style="fill:#808080;stroke:#808080;" x="165.104382" xlink:href="#mf9ad211e5f" y="91.989391"/>
     <use style="fill:#808080;stroke:#808080;" x="167.461604" xlink:href="#mf9ad211e5f" y="344.875971"/>
     <use style="fill:#808080;stroke:#808080;" x="169.818826" xlink:href="#mf9ad211e5f" y="146.931394"/>
     <use style="fill:#808080;stroke:#808080;" x="172.176048" xlink:href="#mf9ad211e5f" y="167.052424"/>
     <use style="fill:#808080;stroke:#808080;" x="174.53327" xlink:href="#mf9ad211e5f" y="334.107284"/>
     <use style="fill:#808080;stroke:#808080;" x="176.890491" xlink:href="#mf9ad211e5f" y="161.326719"/>
     <use style="fill:#808080;stroke:#808080;" x="179.247713" xlink:href="#mf9ad211e5f" y="165.810067"/>
     <use style="fill:#808080;stroke:#808080;" x="181.604935" xlink:href="#mf9ad211e5f" y="175.711058"/>
     <use style="fill:#808080;stroke:#808080;" x="183.962157" xlink:href="#mf9ad211e5f" y="316.851411"/>
     <use style="fill:#808080;stroke:#808080;" x="186.319379" xlink:href="#mf9ad211e5f" y="151.14755"/>
     <use style="fill:#808080;stroke:#808080;" x="188.676601" xlink:href="#mf9ad211e5f" y="201.4955"/>
     <use style="fill:#808080;stroke:#808080;" x="191.033823" xlink:href="#mf9ad211e5f" y="193.914713"/>
     <use style="fill:#808080;stroke:#808080;" x="193.391045" xlink:href="#mf9ad211e5f" y="269.769903"/>
     <use style="fill:#808080;stroke:#808080;" x="195.748266" xlink:href="#mf9ad211e5f" y="256.431607"/>
     <use style="fill:#808080;stroke:#808080;" x="198.105488" xlink:href="#mf9ad211e5f" y="264.274964"/>
     <use style="fill:#808080;stroke:#808080;" x="200.46271" xlink:href="#mf9ad211e5f" y="225.208529"/>
     <use style="fill:#808080;stroke:#808080;" x="202.819932" xlink:href="#mf9ad211e5f" y="275.687369"/>
     <use style="fill:#808080;stroke:#808080;" x="205.177154" xlink:href="#mf9ad211e5f" y="195.434939"/>
     <use style="fill:#808080;stroke:#808080;" x="207.534376" xlink:href="#mf9ad211e5f" y="266.400785"/>
     <use style="fill:#808080;stroke:#808080;" x="209.891598" xlink:href="#mf9ad211e5f" y="272.952436"/>
     <use style="fill:#808080;stroke:#808080;" x="212.248819" xlink:href="#mf9ad211e5f" y="189.924361"/>
     <use style="fill:#808080;stroke:#808080;" x="214.606041" xlink:href="#mf9ad211e5f" y="201.477189"/>
     <use style="fill:#808080;stroke:#808080;" x="216.963263" xlink:href="#mf9ad211e5f" y="223.068134"/>
     <use style="fill:#808080;stroke:#808080;" x="219.320485" xlink:href="#mf9ad211e5f" y="216.098334"/>
     <use style="fill:#808080;stroke:#808080;" x="221.677707" xlink:href="#mf9ad211e5f" y="251.071179"/>
     <use style="fill:#808080;stroke:#808080;" x="224.034929" xlink:href="#mf9ad211e5f" y="215.473621"/>
     <use style="fill:#808080;stroke:#808080;" x="226.392151" xlink:href="#mf9ad211e5f" y="431.619987"/>
     <use style="fill:#808080;stroke:#808080;" x="228.749373" xlink:href="#mf9ad211e5f" y="150.612781"/>
     <use style="fill:#808080;stroke:#808080;" x="231.106594" xlink:href="#mf9ad211e5f" y="195.511099"/>
     <use style="fill:#808080;stroke:#808080;" x="233.463816" xlink:href="#mf9ad211e5f" y="155.09945"/>
     <use style="fill:#808080;stroke:#808080;" x="235.821038" xlink:href="#mf9ad211e5f" y="173.475665"/>
     <use style="fill:#808080;stroke:#808080;" x="238.17826" xlink:href="#mf9ad211e5f" y="145.474557"/>
     <use style="fill:#808080;stroke:#808080;" x="240.535482" xlink:href="#mf9ad211e5f" y="308.88614"/>
     <use style="fill:#808080;stroke:#808080;" x="242.892704" xlink:href="#mf9ad211e5f" y="373.283408"/>
     <use style="fill:#808080;stroke:#808080;" x="245.249926" xlink:href="#mf9ad211e5f" y="237.360237"/>
     <use style="fill:#808080;stroke:#808080;" x="247.607147" xlink:href="#mf9ad211e5f" y="358.11933"/>
     <use style="fill:#808080;stroke:#808080;" x="249.964369" xlink:href="#mf9ad211e5f" y="120.562828"/>
     <use style="fill:#808080;stroke:#808080;" x="252.321591" xlink:href="#mf9ad211e5f" y="133.922229"/>
     <use style="fill:#808080;stroke:#808080;" x="254.678813" xlink:href="#mf9ad211e5f" y="243.472556"/>
     <use style="fill:#808080;stroke:#808080;" x="257.036035" xlink:href="#mf9ad211e5f" y="235.770653"/>
     <use style="fill:#808080;stroke:#808080;" x="259.393257" xlink:href="#mf9ad211e5f" y="226.533829"/>
     <use style="fill:#808080;stroke:#808080;" x="261.750479" xlink:href="#mf9ad211e5f" y="131.214912"/>
     <use style="fill:#808080;stroke:#808080;" x="264.107701" xlink:href="#mf9ad211e5f" y="256.549065"/>
     <use style="fill:#808080;stroke:#808080;" x="266.464922" xlink:href="#mf9ad211e5f" y="245.772116"/>
     <use style="fill:#808080;stroke:#808080;" x="268.822144" xlink:href="#mf9ad211e5f" y="338.847954"/>
     <use style="fill:#808080;stroke:#808080;" x="271.179366" xlink:href="#mf9ad211e5f" y="227.471124"/>
     <use style="fill:#808080;stroke:#808080;" x="273.536588" xlink:href="#mf9ad211e5f" y="204.210831"/>
     <use style="fill:#808080;stroke:#808080;" x="275.89381" xlink:href="#mf9ad211e5f" y="110.425406"/>
     <use style="fill:#808080;stroke:#808080;" x="278.251032" xlink:href="#mf9ad211e5f" y="247.983767"/>
     <use style="fill:#808080;stroke:#808080;" x="280.608254" xlink:href="#mf9ad211e5f" y="116.828235"/>
     <use style="fill:#808080;stroke:#808080;" x="282.965476" xlink:href="#mf9ad211e5f" y="143.952174"/>
     <use style="fill:#808080;stroke:#808080;" x="285.322697" xlink:href="#mf9ad211e5f" y="216.586315"/>
     <use style="fill:#808080;stroke:#808080;" x="287.679919" xlink:href="#mf9ad211e5f" y="109.483382"/>
     <use style="fill:#808080;stroke:#808080;" x="290.037141" xlink:href="#mf9ad211e5f" y="230.636574"/>
     <use style="fill:#808080;stroke:#808080;" x="292.394363" xlink:href="#mf9ad211e5f" y="172.913023"/>
     <use style="fill:#808080;stroke:#808080;" x="294.751585" xlink:href="#mf9ad211e5f" y="143.714002"/>
     <use style="fill:#808080;stroke:#808080;" x="297.108807" xlink:href="#mf9ad211e5f" y="172.384675"/>
     <use style="fill:#808080;stroke:#808080;" x="299.466029" xlink:href="#mf9ad211e5f" y="201.867468"/>
     <use style="fill:#808080;stroke:#808080;" x="301.82325" xlink:href="#mf9ad211e5f" y="212.262127"/>
     <use style="fill:#808080;stroke:#808080;" x="304.180472" xlink:href="#mf9ad211e5f" y="373.290263"/>
     <use style="fill:#808080;stroke:#808080;" x="306.537694" xlink:href="#mf9ad211e5f" y="268.004269"/>
     <use style="fill:#808080;stroke:#808080;" x="308.894916" xlink:href="#mf9ad211e5f" y="234.017184"/>
     <use style="fill:#808080;stroke:#808080;" x="311.252138" xlink:href="#mf9ad211e5f" y="170.611118"/>
     <use style="fill:#808080;stroke:#808080;" x="313.60936" xlink:href="#mf9ad211e5f" y="260.107773"/>
     <use style="fill:#808080;stroke:#808080;" x="315.966582" xlink:href="#mf9ad211e5f" y="318.197723"/>
     <use style="fill:#808080;stroke:#808080;" x="318.323804" xlink:href="#mf9ad211e5f" y="228.174046"/>
     <use style="fill:#808080;stroke:#808080;" x="320.681025" xlink:href="#mf9ad211e5f" y="231.841734"/>
     <use style="fill:#808080;stroke:#808080;" x="323.038247" xlink:href="#mf9ad211e5f" y="314.420834"/>
     <use style="fill:#808080;stroke:#808080;" x="325.395469" xlink:href="#mf9ad211e5f" y="193.39687"/>
     <use style="fill:#808080;stroke:#808080;" x="327.752691" xlink:href="#mf9ad211e5f" y="320.482812"/>
     <use style="fill:#808080;stroke:#808080;" x="330.109913" xlink:href="#mf9ad211e5f" y="240.717979"/>
     <use style="fill:#808080;stroke:#808080;" x="332.467135" xlink:href="#mf9ad211e5f" y="204.816158"/>
     <use style="fill:#808080;stroke:#808080;" x="334.824357" xlink:href="#mf9ad211e5f" y="302.831194"/>
     <use style="fill:#808080;stroke:#808080;" x="337.181579" xlink:href="#mf9ad211e5f" y="214.558519"/>
     <use style="fill:#808080;stroke:#808080;" x="339.5388" xlink:href="#mf9ad211e5f" y="227.097416"/>
     <use style="fill:#808080;stroke:#808080;" x="341.896022" xlink:href="#mf9ad211e5f" y="308.996224"/>
     <use style="fill:#808080;stroke:#808080;" x="344.253244" xlink:href="#mf9ad211e5f" y="148.171183"/>
     <use style="fill:#808080;stroke:#808080;" x="346.610466" xlink:href="#mf9ad211e5f" y="241.348795"/>
     <use style="fill:#808080;stroke:#808080;" x="348.967688" xlink:href="#mf9ad211e5f" y="175.416875"/>
     <use style="fill:#808080;stroke:#808080;" x="351.32491" xlink:href="#mf9ad211e5f" y="207.966551"/>
     <use style="fill:#808080;stroke:#808080;" x="353.682132" xlink:href="#mf9ad211e5f" y="214.262313"/>
     <use style="fill:#808080;stroke:#808080;" x="356.039353" xlink:href="#mf9ad211e5f" y="342.996451"/>
     <use style="fill:#808080;stroke:#808080;" x="358.396575" xlink:href="#mf9ad211e5f" y="227.325453"/>
     <use style="fill:#808080;stroke:#808080;" x="360.753797" xlink:href="#mf9ad211e5f" y="232.752891"/>
     <use style="fill:#808080;stroke:#808080;" x="363.111019" xlink:href="#mf9ad211e5f" y="224.123625"/>
     <use style="fill:#808080;stroke:#808080;" x="365.468241" xlink:href="#mf9ad211e5f" y="192.608803"/>
     <use style="fill:#808080;stroke:#808080;" x="367.825463" xlink:href="#mf9ad211e5f" y="245.808557"/>
     <use style="fill:#808080;stroke:#808080;" x="370.182685" xlink:href="#mf9ad211e5f" y="211.757008"/>
     <use style="fill:#808080;stroke:#808080;" x="372.539907" xlink:href="#mf9ad211e5f" y="313.486825"/>
     <use style="fill:#808080;stroke:#808080;" x="374.897128" xlink:href="#mf9ad211e5f" y="196.873817"/>
     <use style="fill:#808080;stroke:#808080;" x="377.25435" xlink:href="#mf9ad211e5f" y="330.228403"/>
     <use style="fill:#808080;stroke:#808080;" x="379.611572" xlink:href="#mf9ad211e5f" y="248.183457"/>
     <use style="fill:#808080;stroke:#808080;" x="381.968794" xlink:href="#mf9ad211e5f" y="242.023601"/>
     <use style="fill:#808080;stroke:#808080;" x="384.326016" xlink:href="#mf9ad211e5f" y="222.730668"/>
     <use style="fill:#808080;stroke:#808080;" x="386.683238" xlink:href="#mf9ad211e5f" y="310.456277"/>
     <use style="fill:#808080;stroke:#808080;" x="389.04046" xlink:href="#mf9ad211e5f" y="230.593802"/>
     <use style="fill:#808080;stroke:#808080;" x="391.397682" xlink:href="#mf9ad211e5f" y="188.877338"/>
     <use style="fill:#808080;stroke:#808080;" x="393.754903" xlink:href="#mf9ad211e5f" y="181.924235"/>
     <use style="fill:#808080;stroke:#808080;" x="396.112125" xlink:href="#mf9ad211e5f" y="227.001278"/>
     <use style="fill:#808080;stroke:#808080;" x="398.469347" xlink:href="#mf9ad211e5f" y="152.467259"/>
     <use style="fill:#808080;stroke:#808080;" x="400.826569" xlink:href="#mf9ad211e5f" y="148.762493"/>
     <use style="fill:#808080;stroke:#808080;" x="403.183791" xlink:href="#mf9ad211e5f" y="237.343685"/>
     <use style="fill:#808080;stroke:#808080;" x="405.541013" xlink:href="#mf9ad211e5f" y="250.283979"/>
     <use style="fill:#808080;stroke:#808080;" x="407.898235" xlink:href="#mf9ad211e5f" y="204.535248"/>
     <use style="fill:#808080;stroke:#808080;" x="410.255456" xlink:href="#mf9ad211e5f" y="202.914516"/>
     <use style="fill:#808080;stroke:#808080;" x="412.612678" xlink:href="#mf9ad211e5f" y="113.607501"/>
     <use style="fill:#808080;stroke:#808080;" x="414.9699" xlink:href="#mf9ad211e5f" y="297.786375"/>
     <use style="fill:#808080;stroke:#808080;" x="417.327122" xlink:href="#mf9ad211e5f" y="226.427811"/>
     <use style="fill:#808080;stroke:#808080;" x="419.684344" xlink:href="#mf9ad211e5f" y="299.804473"/>
     <use style="fill:#808080;stroke:#808080;" x="422.041566" xlink:href="#mf9ad211e5f" y="122.896087"/>
     <use style="fill:#808080;stroke:#808080;" x="424.398788" xlink:href="#mf9ad211e5f" y="216.673724"/>
     <use style="fill:#808080;stroke:#808080;" x="426.75601" xlink:href="#mf9ad211e5f" y="340.135843"/>
     <use style="fill:#808080;stroke:#808080;" x="429.113231" xlink:href="#mf9ad211e5f" y="252.516442"/>
     <use style="fill:#808080;stroke:#808080;" x="431.470453" xlink:href="#mf9ad211e5f" y="170.4565"/>
     <use style="fill:#808080;stroke:#808080;" x="433.827675" xlink:href="#mf9ad211e5f" y="332.017406"/>
     <use style="fill:#808080;stroke:#808080;" x="436.184897" xlink:href="#mf9ad211e5f" y="188.124396"/>
     <use style="fill:#808080;stroke:#808080;" x="438.542119" xlink:href="#mf9ad211e5f" y="257.100233"/>
     <use style="fill:#808080;stroke:#808080;" x="440.899341" xlink:href="#mf9ad211e5f" y="151.486979"/>
     <use style="fill:#808080;stroke:#808080;" x="443.256563" xlink:href="#mf9ad211e5f" y="338.043107"/>
     <use style="fill:#808080;stroke:#808080;" x="445.613784" xlink:href="#mf9ad211e5f" y="309.774966"/>
     <use style="fill:#808080;stroke:#808080;" x="447.971006" xlink:href="#mf9ad211e5f" y="323.506586"/>
     <use style="fill:#808080;stroke:#808080;" x="450.328228" xlink:href="#mf9ad211e5f" y="264.909483"/>
     <use style="fill:#808080;stroke:#808080;" x="452.68545" xlink:href="#mf9ad211e5f" y="218.153894"/>
     <use style="fill:#808080;stroke:#808080;" x="455.042672" xlink:href="#mf9ad211e5f" y="142.805042"/>
     <use style="fill:#808080;stroke:#808080;" x="457.399894" xlink:href="#mf9ad211e5f" y="215.082096"/>
     <use style="fill:#808080;stroke:#808080;" x="459.757116" xlink:href="#mf9ad211e5f" y="188.284147"/>
     <use style="fill:#808080;stroke:#808080;" x="462.114338" xlink:href="#mf9ad211e5f" y="215.162401"/>
     <use style="fill:#808080;stroke:#808080;" x="464.471559" xlink:href="#mf9ad211e5f" y="265.311152"/>
     <use style="fill:#808080;stroke:#808080;" x="466.828781" xlink:href="#mf9ad211e5f" y="295.718185"/>
     <use style="fill:#808080;stroke:#808080;" x="469.186003" xlink:href="#mf9ad211e5f" y="141.539088"/>
     <use style="fill:#808080;stroke:#808080;" x="471.543225" xlink:href="#mf9ad211e5f" y="210.159086"/>
     <use style="fill:#808080;stroke:#808080;" x="473.900447" xlink:href="#mf9ad211e5f" y="193.958249"/>
     <use style="fill:#808080;stroke:#808080;" x="476.257669" xlink:href="#mf9ad211e5f" y="341.585793"/>
     <use style="fill:#808080;stroke:#808080;" x="478.614891" xlink:href="#mf9ad211e5f" y="298.499944"/>
     <use style="fill:#808080;stroke:#808080;" x="480.972113" xlink:href="#mf9ad211e5f" y="245.559325"/>
     <use style="fill:#808080;stroke:#808080;" x="483.329334" xlink:href="#mf9ad211e5f" y="137.979302"/>
     <use style="fill:#808080;stroke:#808080;" x="485.686556" xlink:href="#mf9ad211e5f" y="189.452329"/>
     <use style="fill:#808080;stroke:#808080;" x="488.043778" xlink:href="#mf9ad211e5f" y="251.190161"/>
     <use style="fill:#808080;stroke:#808080;" x="490.401" xlink:href="#mf9ad211e5f" y="304.90913"/>
     <use style="fill:#808080;stroke:#808080;" x="492.758222" xlink:href="#mf9ad211e5f" y="301.510342"/>
     <use style="fill:#808080;stroke:#808080;" x="495.115444" xlink:href="#mf9ad211e5f" y="324.048799"/>
     <use style="fill:#808080;stroke:#808080;" x="497.472666" xlink:href="#mf9ad211e5f" y="251.179105"/>
     <use style="fill:#808080;stroke:#808080;" x="499.829887" xlink:href="#mf9ad211e5f" y="259.600077"/>
     <use style="fill:#808080;stroke:#808080;" x="502.187109" xlink:href="#mf9ad211e5f" y="236.516217"/>
     <use style="fill:#808080;stroke:#808080;" x="504.544331" xlink:href="#mf9ad211e5f" y="219.37896"/>
     <use style="fill:#808080;stroke:#808080;" x="506.901553" xlink:href="#mf9ad211e5f" y="290.146167"/>
     <use style="fill:#808080;stroke:#808080;" x="509.258775" xlink:href="#mf9ad211e5f" y="169.54028"/>
     <use style="fill:#808080;stroke:#808080;" x="511.615997" xlink:href="#mf9ad211e5f" y="224.114454"/>
     <use style="fill:#808080;stroke:#808080;" x="513.973219" xlink:href="#mf9ad211e5f" y="332.500842"/>
     <use style="fill:#808080;stroke:#808080;" x="516.330441" xlink:href="#mf9ad211e5f" y="219.002861"/>
     <use style="fill:#808080;stroke:#808080;" x="518.687662" xlink:href="#mf9ad211e5f" y="317.990638"/>
     <use style="fill:#808080;stroke:#808080;" x="521.044884" xlink:href="#mf9ad211e5f" y="387.901756"/>
     <use style="fill:#808080;stroke:#808080;" x="523.402106" xlink:href="#mf9ad211e5f" y="431.456804"/>
     <use style="fill:#808080;stroke:#808080;" x="525.759328" xlink:href="#mf9ad211e5f" y="217.398683"/>
     <use style="fill:#808080;stroke:#808080;" x="528.11655" xlink:href="#mf9ad211e5f" y="260.702587"/>
     <use style="fill:#808080;stroke:#808080;" x="530.473772" xlink:href="#mf9ad211e5f" y="300.189506"/>
     <use style="fill:#808080;stroke:#808080;" x="532.830994" xlink:href="#mf9ad211e5f" y="89.0568"/>
     <use style="fill:#808080;stroke:#808080;" x="535.188216" xlink:href="#mf9ad211e5f" y="194.984513"/>
     <use style="fill:#808080;stroke:#808080;" x="537.545437" xlink:href="#mf9ad211e5f" y="135.663149"/>
     <use style="fill:#808080;stroke:#808080;" x="539.902659" xlink:href="#mf9ad211e5f" y="286.908305"/>
     <use style="fill:#808080;stroke:#808080;" x="542.259881" xlink:href="#mf9ad211e5f" y="325.645148"/>
     <use style="fill:#808080;stroke:#808080;" x="544.617103" xlink:href="#mf9ad211e5f" y="337.896182"/>
     <use style="fill:#808080;stroke:#808080;" x="546.974325" xlink:href="#mf9ad211e5f" y="266.105626"/>
     <use style="fill:#808080;stroke:#808080;" x="549.331547" xlink:href="#mf9ad211e5f" y="364.639841"/>
     <use style="fill:#808080;stroke:#808080;" x="551.688769" xlink:href="#mf9ad211e5f" y="241.545351"/>
     <use style="fill:#808080;stroke:#808080;" x="554.04599" xlink:href="#mf9ad211e5f" y="268.811175"/>
     <use style="fill:#808080;stroke:#808080;" x="556.403212" xlink:href="#mf9ad211e5f" y="411.465003"/>
     <use style="fill:#808080;stroke:#808080;" x="558.760434" xlink:href="#mf9ad211e5f" y="461.39307"/>
     <use style="fill:#808080;stroke:#808080;" x="561.117656" xlink:href="#mf9ad211e5f" y="283.528849"/>
     <use style="fill:#808080;stroke:#808080;" x="563.474878" xlink:href="#mf9ad211e5f" y="347.560089"/>
     <use style="fill:#808080;stroke:#808080;" x="565.8321" xlink:href="#mf9ad211e5f" y="253.157935"/>
     <use style="fill:#808080;stroke:#808080;" x="568.189322" xlink:href="#mf9ad211e5f" y="238.245874"/>
     <use style="fill:#808080;stroke:#808080;" x="570.546544" xlink:href="#mf9ad211e5f" y="307.112649"/>
     <use style="fill:#808080;stroke:#808080;" x="572.903765" xlink:href="#mf9ad211e5f" y="198.666937"/>
     <use style="fill:#808080;stroke:#808080;" x="575.260987" xlink:href="#mf9ad211e5f" y="296.123749"/>
     <use style="fill:#808080;stroke:#808080;" x="577.618209" xlink:href="#mf9ad211e5f" y="291.247327"/>
     <use style="fill:#808080;stroke:#808080;" x="579.975431" xlink:href="#mf9ad211e5f" y="329.538834"/>
     <use style="fill:#808080;stroke:#808080;" x="582.332653" xlink:href="#mf9ad211e5f" y="418.072182"/>
     <use style="fill:#808080;stroke:#808080;" x="584.689875" xlink:href="#mf9ad211e5f" y="352.990508"/>
     <use style="fill:#808080;stroke:#808080;" x="587.047097" xlink:href="#mf9ad211e5f" y="283.450606"/>
     <use style="fill:#808080;stroke:#808080;" x="589.404318" xlink:href="#mf9ad211e5f" y="324.13203"/>
     <use style="fill:#808080;stroke:#808080;" x="591.76154" xlink:href="#mf9ad211e5f" y="356.882283"/>
     <use style="fill:#808080;stroke:#808080;" x="594.118762" xlink:href="#mf9ad211e5f" y="366.164128"/>
     <use style="fill:#808080;stroke:#808080;" x="596.475984" xlink:href="#mf9ad211e5f" y="282.564033"/>
     <use style="fill:#808080;stroke:#808080;" x="598.833206" xlink:href="#mf9ad211e5f" y="315.012422"/>
     <use style="fill:#808080;stroke:#808080;" x="601.190428" xlink:href="#mf9ad211e5f" y="397.888079"/>
     <use style="fill:#808080;stroke:#808080;" x="603.54765" xlink:href="#mf9ad211e5f" y="356.351825"/>
    </g>
   </g>
   <g id="matplotlib.axis_1">
    <g id="xtick_1">
     <g id="line2d_1">
      <defs>
       <path d="M 0 0 
L 0 3.5 
" id="mb483f0277f" style="stroke:#000000;stroke-width:0.8;"/>
      </defs>
      <g>
       <use style="stroke:#000000;stroke-width:0.8;" x="153.318273" xlink:href="#mb483f0277f" y="511.3584"/>
      </g>
     </g>
     <g id="text_1">
      <!-- 0 -->
      <g transform="translate(146.955773 533.555275)scale(0.2 -0.2)">
       <defs>
        <path d="M 31.78125 66.40625 
Q 24.171875 66.40625 20.328125 58.90625 
Q 16.5 51.421875 16.5 36.375 
Q 16.5 21.390625 20.328125 13.890625 
Q 24.171875 6.390625 31.78125 6.390625 
Q 39.453125 6.390625 43.28125 13.890625 
Q 47.125 21.390625 47.125 36.375 
Q 47.125 51.421875 43.28125 58.90625 
Q 39.453125 66.40625 31.78125 66.40625 
z
M 31.78125 74.21875 
Q 44.046875 74.21875 50.515625 64.515625 
Q 56.984375 54.828125 56.984375 36.375 
Q 56.984375 17.96875 50.515625 8.265625 
Q 44.046875 -1.421875 31.78125 -1.421875 
Q 19.53125 -1.421875 13.0625 8.265625 
Q 6.59375 17.96875 6.59375 36.375 
Q 6.59375 54.828125 13.0625 64.515625 
Q 19.53125 74.21875 31.78125 74.21875 
z
" id="DejaVuSans-48"/>
       </defs>
       <use xlink:href="#DejaVuSans-48"/>
      </g>
     </g>
    </g>
    <g id="xtick_2">
     <g id="line2d_2">
      <g>
       <use style="stroke:#000000;stroke-width:0.8;" x="271.179366" xlink:href="#mb483f0277f" y="511.3584"/>
      </g>
     </g>
     <g id="text_2">
      <!-- 50 -->
      <g transform="translate(258.454366 533.555275)scale(0.2 -0.2)">
       <defs>
        <path d="M 10.796875 72.90625 
L 49.515625 72.90625 
L 49.515625 64.59375 
L 19.828125 64.59375 
L 19.828125 46.734375 
Q 21.96875 47.46875 24.109375 47.828125 
Q 26.265625 48.1875 28.421875 48.1875 
Q 40.625 48.1875 47.75 41.5 
Q 54.890625 34.8125 54.890625 23.390625 
Q 54.890625 11.625 47.5625 5.09375 
Q 40.234375 -1.421875 26.90625 -1.421875 
Q 22.3125 -1.421875 17.546875 -0.640625 
Q 12.796875 0.140625 7.71875 1.703125 
L 7.71875 11.625 
Q 12.109375 9.234375 16.796875 8.0625 
Q 21.484375 6.890625 26.703125 6.890625 
Q 35.15625 6.890625 40.078125 11.328125 
Q 45.015625 15.765625 45.015625 23.390625 
Q 45.015625 31 40.078125 35.4375 
Q 35.15625 39.890625 26.703125 39.890625 
Q 22.75 39.890625 18.8125 39.015625 
Q 14.890625 38.140625 10.796875 36.28125 
z
" id="DejaVuSans-53"/>
       </defs>
       <use xlink:href="#DejaVuSans-53"/>
       <use x="63.623047" xlink:href="#DejaVuSans-48"/>
      </g>
     </g>
    </g>
    <g id="xtick_3">
     <g id="line2d_3">
      <g>
       <use style="stroke:#000000;stroke-width:0.8;" x="389.04046" xlink:href="#mb483f0277f" y="511.3584"/>
      </g>
     </g>
     <g id="text_3">
      <!-- 100 -->
      <g transform="translate(369.95296 533.555275)scale(0.2 -0.2)">
       <defs>
        <path d="M 12.40625 8.296875 
L 28.515625 8.296875 
L 28.515625 63.921875 
L 10.984375 60.40625 
L 10.984375 69.390625 
L 28.421875 72.90625 
L 38.28125 72.90625 
L 38.28125 8.296875 
L 54.390625 8.296875 
L 54.390625 0 
L 12.40625 0 
z
" id="DejaVuSans-49"/>
       </defs>
       <use xlink:href="#DejaVuSans-49"/>
       <use x="63.623047" xlink:href="#DejaVuSans-48"/>
       <use x="127.246094" xlink:href="#DejaVuSans-48"/>
      </g>
     </g>
    </g>
    <g id="xtick_4">
     <g id="line2d_4">
      <g>
       <use style="stroke:#000000;stroke-width:0.8;" x="506.901553" xlink:href="#mb483f0277f" y="511.3584"/>
      </g>
     </g>
     <g id="text_4">
      <!-- 150 -->
      <g transform="translate(487.814053 533.555275)scale(0.2 -0.2)">
       <use xlink:href="#DejaVuSans-49"/>
       <use x="63.623047" xlink:href="#DejaVuSans-53"/>
       <use x="127.246094" xlink:href="#DejaVuSans-48"/>
      </g>
     </g>
    </g>
    <g id="xtick_5">
     <g id="line2d_5">
      <g>
       <use style="stroke:#000000;stroke-width:0.8;" x="624.762647" xlink:href="#mb483f0277f" y="511.3584"/>
      </g>
     </g>
     <g id="text_5">
      <!-- 200 -->
      <g transform="translate(605.675147 533.555275)scale(0.2 -0.2)">
       <defs>
        <path d="M 19.1875 8.296875 
L 53.609375 8.296875 
L 53.609375 0 
L 7.328125 0 
L 7.328125 8.296875 
Q 12.9375 14.109375 22.625 23.890625 
Q 32.328125 33.6875 34.8125 36.53125 
Q 39.546875 41.84375 41.421875 45.53125 
Q 43.3125 49.21875 43.3125 52.78125 
Q 43.3125 58.59375 39.234375 62.25 
Q 35.15625 65.921875 28.609375 65.921875 
Q 23.96875 65.921875 18.8125 64.3125 
Q 13.671875 62.703125 7.8125 59.421875 
L 7.8125 69.390625 
Q 13.765625 71.78125 18.9375 73 
Q 24.125 74.21875 28.421875 74.21875 
Q 39.75 74.21875 46.484375 68.546875 
Q 53.21875 62.890625 53.21875 53.421875 
Q 53.21875 48.921875 51.53125 44.890625 
Q 49.859375 40.875 45.40625 35.40625 
Q 44.1875 33.984375 37.640625 27.21875 
Q 31.109375 20.453125 19.1875 8.296875 
z
" id="DejaVuSans-50"/>
       </defs>
       <use xlink:href="#DejaVuSans-50"/>
       <use x="63.623047" xlink:href="#DejaVuSans-48"/>
       <use x="127.246094" xlink:href="#DejaVuSans-48"/>
      </g>
     </g>
    </g>
    <g id="xtick_6">
     <g id="line2d_6">
      <g>
       <use style="stroke:#000000;stroke-width:0.8;" x="742.62374" xlink:href="#mb483f0277f" y="511.3584"/>
      </g>
     </g>
     <g id="text_6">
      <!-- 250 -->
      <g transform="translate(723.53624 533.555275)scale(0.2 -0.2)">
       <use xlink:href="#DejaVuSans-50"/>
       <use x="63.623047" xlink:href="#DejaVuSans-53"/>
       <use x="127.246094" xlink:href="#DejaVuSans-48"/>
      </g>
     </g>
    </g>
    <g id="xtick_7">
     <g id="line2d_7">
      <g>
       <use style="stroke:#000000;stroke-width:0.8;" x="860.484833" xlink:href="#mb483f0277f" y="511.3584"/>
      </g>
     </g>
     <g id="text_7">
      <!-- 300 -->
      <g transform="translate(841.397333 533.555275)scale(0.2 -0.2)">
       <defs>
        <path d="M 40.578125 39.3125 
Q 47.65625 37.796875 51.625 33 
Q 55.609375 28.21875 55.609375 21.1875 
Q 55.609375 10.40625 48.1875 4.484375 
Q 40.765625 -1.421875 27.09375 -1.421875 
Q 22.515625 -1.421875 17.65625 -0.515625 
Q 12.796875 0.390625 7.625 2.203125 
L 7.625 11.71875 
Q 11.71875 9.328125 16.59375 8.109375 
Q 21.484375 6.890625 26.8125 6.890625 
Q 36.078125 6.890625 40.9375 10.546875 
Q 45.796875 14.203125 45.796875 21.1875 
Q 45.796875 27.640625 41.28125 31.265625 
Q 36.765625 34.90625 28.71875 34.90625 
L 20.21875 34.90625 
L 20.21875 43.015625 
L 29.109375 43.015625 
Q 36.375 43.015625 40.234375 45.921875 
Q 44.09375 48.828125 44.09375 54.296875 
Q 44.09375 59.90625 40.109375 62.90625 
Q 36.140625 65.921875 28.71875 65.921875 
Q 24.65625 65.921875 20.015625 65.03125 
Q 15.375 64.15625 9.8125 62.3125 
L 9.8125 71.09375 
Q 15.4375 72.65625 20.34375 73.4375 
Q 25.25 74.21875 29.59375 74.21875 
Q 40.828125 74.21875 47.359375 69.109375 
Q 53.90625 64.015625 53.90625 55.328125 
Q 53.90625 49.265625 50.4375 45.09375 
Q 46.96875 40.921875 40.578125 39.3125 
z
" id="DejaVuSans-51"/>
       </defs>
       <use xlink:href="#DejaVuSans-51"/>
       <use x="63.623047" xlink:href="#DejaVuSans-48"/>
       <use x="127.246094" xlink:href="#DejaVuSans-48"/>
      </g>
     </g>
    </g>
    <g id="text_8">
     <!-- Time(Cycle) -->
     <g transform="translate(430.799437 556.911525)scale(0.2 -0.2)">
      <defs>
       <path d="M -0.296875 72.90625 
L 61.375 72.90625 
L 61.375 64.59375 
L 35.5 64.59375 
L 35.5 0 
L 25.59375 0 
L 25.59375 64.59375 
L -0.296875 64.59375 
z
" id="DejaVuSans-84"/>
       <path d="M 9.421875 54.6875 
L 18.40625 54.6875 
L 18.40625 0 
L 9.421875 0 
z
M 9.421875 75.984375 
L 18.40625 75.984375 
L 18.40625 64.59375 
L 9.421875 64.59375 
z
" id="DejaVuSans-105"/>
       <path d="M 52 44.1875 
Q 55.375 50.25 60.0625 53.125 
Q 64.75 56 71.09375 56 
Q 79.640625 56 84.28125 50.015625 
Q 88.921875 44.046875 88.921875 33.015625 
L 88.921875 0 
L 79.890625 0 
L 79.890625 32.71875 
Q 79.890625 40.578125 77.09375 44.375 
Q 74.3125 48.1875 68.609375 48.1875 
Q 61.625 48.1875 57.5625 43.546875 
Q 53.515625 38.921875 53.515625 30.90625 
L 53.515625 0 
L 44.484375 0 
L 44.484375 32.71875 
Q 44.484375 40.625 41.703125 44.40625 
Q 38.921875 48.1875 33.109375 48.1875 
Q 26.21875 48.1875 22.15625 43.53125 
Q 18.109375 38.875 18.109375 30.90625 
L 18.109375 0 
L 9.078125 0 
L 9.078125 54.6875 
L 18.109375 54.6875 
L 18.109375 46.1875 
Q 21.1875 51.21875 25.484375 53.609375 
Q 29.78125 56 35.6875 56 
Q 41.65625 56 45.828125 52.96875 
Q 50 49.953125 52 44.1875 
z
" id="DejaVuSans-109"/>
       <path d="M 56.203125 29.59375 
L 56.203125 25.203125 
L 14.890625 25.203125 
Q 15.484375 15.921875 20.484375 11.0625 
Q 25.484375 6.203125 34.421875 6.203125 
Q 39.59375 6.203125 44.453125 7.46875 
Q 49.3125 8.734375 54.109375 11.28125 
L 54.109375 2.78125 
Q 49.265625 0.734375 44.1875 -0.34375 
Q 39.109375 -1.421875 33.890625 -1.421875 
Q 20.796875 -1.421875 13.15625 6.1875 
Q 5.515625 13.8125 5.515625 26.8125 
Q 5.515625 40.234375 12.765625 48.109375 
Q 20.015625 56 32.328125 56 
Q 43.359375 56 49.78125 48.890625 
Q 56.203125 41.796875 56.203125 29.59375 
z
M 47.21875 32.234375 
Q 47.125 39.59375 43.09375 43.984375 
Q 39.0625 48.390625 32.421875 48.390625 
Q 24.90625 48.390625 20.390625 44.140625 
Q 15.875 39.890625 15.1875 32.171875 
z
" id="DejaVuSans-101"/>
       <path d="M 31 75.875 
Q 24.46875 64.65625 21.28125 53.65625 
Q 18.109375 42.671875 18.109375 31.390625 
Q 18.109375 20.125 21.3125 9.0625 
Q 24.515625 -2 31 -13.1875 
L 23.1875 -13.1875 
Q 15.875 -1.703125 12.234375 9.375 
Q 8.59375 20.453125 8.59375 31.390625 
Q 8.59375 42.28125 12.203125 53.3125 
Q 15.828125 64.359375 23.1875 75.875 
z
" id="DejaVuSans-40"/>
       <path d="M 64.40625 67.28125 
L 64.40625 56.890625 
Q 59.421875 61.53125 53.78125 63.8125 
Q 48.140625 66.109375 41.796875 66.109375 
Q 29.296875 66.109375 22.65625 58.46875 
Q 16.015625 50.828125 16.015625 36.375 
Q 16.015625 21.96875 22.65625 14.328125 
Q 29.296875 6.6875 41.796875 6.6875 
Q 48.140625 6.6875 53.78125 8.984375 
Q 59.421875 11.28125 64.40625 15.921875 
L 64.40625 5.609375 
Q 59.234375 2.09375 53.4375 0.328125 
Q 47.65625 -1.421875 41.21875 -1.421875 
Q 24.65625 -1.421875 15.125 8.703125 
Q 5.609375 18.84375 5.609375 36.375 
Q 5.609375 53.953125 15.125 64.078125 
Q 24.65625 74.21875 41.21875 74.21875 
Q 47.75 74.21875 53.53125 72.484375 
Q 59.328125 70.75 64.40625 67.28125 
z
" id="DejaVuSans-67"/>
       <path d="M 32.171875 -5.078125 
Q 28.375 -14.84375 24.75 -17.8125 
Q 21.140625 -20.796875 15.09375 -20.796875 
L 7.90625 -20.796875 
L 7.90625 -13.28125 
L 13.1875 -13.28125 
Q 16.890625 -13.28125 18.9375 -11.515625 
Q 21 -9.765625 23.484375 -3.21875 
L 25.09375 0.875 
L 2.984375 54.6875 
L 12.5 54.6875 
L 29.59375 11.921875 
L 46.6875 54.6875 
L 56.203125 54.6875 
z
" id="DejaVuSans-121"/>
       <path d="M 48.78125 52.59375 
L 48.78125 44.1875 
Q 44.96875 46.296875 41.140625 47.34375 
Q 37.3125 48.390625 33.40625 48.390625 
Q 24.65625 48.390625 19.8125 42.84375 
Q 14.984375 37.3125 14.984375 27.296875 
Q 14.984375 17.28125 19.8125 11.734375 
Q 24.65625 6.203125 33.40625 6.203125 
Q 37.3125 6.203125 41.140625 7.25 
Q 44.96875 8.296875 48.78125 10.40625 
L 48.78125 2.09375 
Q 45.015625 0.34375 40.984375 -0.53125 
Q 36.96875 -1.421875 32.421875 -1.421875 
Q 20.0625 -1.421875 12.78125 6.34375 
Q 5.515625 14.109375 5.515625 27.296875 
Q 5.515625 40.671875 12.859375 48.328125 
Q 20.21875 56 33.015625 56 
Q 37.15625 56 41.109375 55.140625 
Q 45.0625 54.296875 48.78125 52.59375 
z
" id="DejaVuSans-99"/>
       <path d="M 9.421875 75.984375 
L 18.40625 75.984375 
L 18.40625 0 
L 9.421875 0 
z
" id="DejaVuSans-108"/>
       <path d="M 8.015625 75.875 
L 15.828125 75.875 
Q 23.140625 64.359375 26.78125 53.3125 
Q 30.421875 42.28125 30.421875 31.390625 
Q 30.421875 20.453125 26.78125 9.375 
Q 23.140625 -1.703125 15.828125 -13.1875 
L 8.015625 -13.1875 
Q 14.5 -2 17.703125 9.0625 
Q 20.90625 20.125 20.90625 31.390625 
Q 20.90625 42.671875 17.703125 53.65625 
Q 14.5 64.65625 8.015625 75.875 
z
" id="DejaVuSans-41"/>
      </defs>
      <use xlink:href="#DejaVuSans-84"/>
      <use x="57.958984" xlink:href="#DejaVuSans-105"/>
      <use x="85.742188" xlink:href="#DejaVuSans-109"/>
      <use x="183.154297" xlink:href="#DejaVuSans-101"/>
      <use x="244.677734" xlink:href="#DejaVuSans-40"/>
      <use x="283.691406" xlink:href="#DejaVuSans-67"/>
      <use x="353.515625" xlink:href="#DejaVuSans-121"/>
      <use x="412.695312" xlink:href="#DejaVuSans-99"/>
      <use x="467.675781" xlink:href="#DejaVuSans-108"/>
      <use x="495.458984" xlink:href="#DejaVuSans-101"/>
      <use x="556.982422" xlink:href="#DejaVuSans-41"/>
     </g>
    </g>
   </g>
   <g id="matplotlib.axis_2">
    <g id="ytick_1">
     <g id="line2d_8">
      <defs>
       <path d="M 0 0 
L -3.5 0 
" id="m813800df29" style="stroke:#000000;stroke-width:0.8;"/>
      </defs>
      <g>
       <use style="stroke:#000000;stroke-width:0.8;" x="119.61" xlink:href="#m813800df29" y="491.2488"/>
      </g>
     </g>
     <g id="text_9">
      <!-- 0.0 -->
      <g transform="translate(80.80375 498.847238)scale(0.2 -0.2)">
       <defs>
        <path d="M 10.6875 12.40625 
L 21 12.40625 
L 21 0 
L 10.6875 0 
z
" id="DejaVuSans-46"/>
       </defs>
       <use xlink:href="#DejaVuSans-48"/>
       <use x="63.623047" xlink:href="#DejaVuSans-46"/>
       <use x="95.410156" xlink:href="#DejaVuSans-48"/>
      </g>
     </g>
    </g>
    <g id="ytick_2">
     <g id="line2d_9">
      <g>
       <use style="stroke:#000000;stroke-width:0.8;" x="119.61" xlink:href="#m813800df29" y="418.12464"/>
      </g>
     </g>
     <g id="text_10">
      <!-- 0.2 -->
      <g transform="translate(80.80375 425.723078)scale(0.2 -0.2)">
       <use xlink:href="#DejaVuSans-48"/>
       <use x="63.623047" xlink:href="#DejaVuSans-46"/>
       <use x="95.410156" xlink:href="#DejaVuSans-50"/>
      </g>
     </g>
    </g>
    <g id="ytick_3">
     <g id="line2d_10">
      <g>
       <use style="stroke:#000000;stroke-width:0.8;" x="119.61" xlink:href="#m813800df29" y="345.00048"/>
      </g>
     </g>
     <g id="text_11">
      <!-- 0.4 -->
      <g transform="translate(80.80375 352.598918)scale(0.2 -0.2)">
       <defs>
        <path d="M 37.796875 64.3125 
L 12.890625 25.390625 
L 37.796875 25.390625 
z
M 35.203125 72.90625 
L 47.609375 72.90625 
L 47.609375 25.390625 
L 58.015625 25.390625 
L 58.015625 17.1875 
L 47.609375 17.1875 
L 47.609375 0 
L 37.796875 0 
L 37.796875 17.1875 
L 4.890625 17.1875 
L 4.890625 26.703125 
z
" id="DejaVuSans-52"/>
       </defs>
       <use xlink:href="#DejaVuSans-48"/>
       <use x="63.623047" xlink:href="#DejaVuSans-46"/>
       <use x="95.410156" xlink:href="#DejaVuSans-52"/>
      </g>
     </g>
    </g>
    <g id="ytick_4">
     <g id="line2d_11">
      <g>
       <use style="stroke:#000000;stroke-width:0.8;" x="119.61" xlink:href="#m813800df29" y="271.876321"/>
      </g>
     </g>
     <g id="text_12">
      <!-- 0.6 -->
      <g transform="translate(80.80375 279.474758)scale(0.2 -0.2)">
       <defs>
        <path d="M 33.015625 40.375 
Q 26.375 40.375 22.484375 35.828125 
Q 18.609375 31.296875 18.609375 23.390625 
Q 18.609375 15.53125 22.484375 10.953125 
Q 26.375 6.390625 33.015625 6.390625 
Q 39.65625 6.390625 43.53125 10.953125 
Q 47.40625 15.53125 47.40625 23.390625 
Q 47.40625 31.296875 43.53125 35.828125 
Q 39.65625 40.375 33.015625 40.375 
z
M 52.59375 71.296875 
L 52.59375 62.3125 
Q 48.875 64.0625 45.09375 64.984375 
Q 41.3125 65.921875 37.59375 65.921875 
Q 27.828125 65.921875 22.671875 59.328125 
Q 17.53125 52.734375 16.796875 39.40625 
Q 19.671875 43.65625 24.015625 45.921875 
Q 28.375 48.1875 33.59375 48.1875 
Q 44.578125 48.1875 50.953125 41.515625 
Q 57.328125 34.859375 57.328125 23.390625 
Q 57.328125 12.15625 50.6875 5.359375 
Q 44.046875 -1.421875 33.015625 -1.421875 
Q 20.359375 -1.421875 13.671875 8.265625 
Q 6.984375 17.96875 6.984375 36.375 
Q 6.984375 53.65625 15.1875 63.9375 
Q 23.390625 74.21875 37.203125 74.21875 
Q 40.921875 74.21875 44.703125 73.484375 
Q 48.484375 72.75 52.59375 71.296875 
z
" id="DejaVuSans-54"/>
       </defs>
       <use xlink:href="#DejaVuSans-48"/>
       <use x="63.623047" xlink:href="#DejaVuSans-46"/>
       <use x="95.410156" xlink:href="#DejaVuSans-54"/>
      </g>
     </g>
    </g>
    <g id="ytick_5">
     <g id="line2d_12">
      <g>
       <use style="stroke:#000000;stroke-width:0.8;" x="119.61" xlink:href="#m813800df29" y="198.752161"/>
      </g>
     </g>
     <g id="text_13">
      <!-- 0.8 -->
      <g transform="translate(80.80375 206.350598)scale(0.2 -0.2)">
       <defs>
        <path d="M 31.78125 34.625 
Q 24.75 34.625 20.71875 30.859375 
Q 16.703125 27.09375 16.703125 20.515625 
Q 16.703125 13.921875 20.71875 10.15625 
Q 24.75 6.390625 31.78125 6.390625 
Q 38.8125 6.390625 42.859375 10.171875 
Q 46.921875 13.96875 46.921875 20.515625 
Q 46.921875 27.09375 42.890625 30.859375 
Q 38.875 34.625 31.78125 34.625 
z
M 21.921875 38.8125 
Q 15.578125 40.375 12.03125 44.71875 
Q 8.5 49.078125 8.5 55.328125 
Q 8.5 64.0625 14.71875 69.140625 
Q 20.953125 74.21875 31.78125 74.21875 
Q 42.671875 74.21875 48.875 69.140625 
Q 55.078125 64.0625 55.078125 55.328125 
Q 55.078125 49.078125 51.53125 44.71875 
Q 48 40.375 41.703125 38.8125 
Q 48.828125 37.15625 52.796875 32.3125 
Q 56.78125 27.484375 56.78125 20.515625 
Q 56.78125 9.90625 50.3125 4.234375 
Q 43.84375 -1.421875 31.78125 -1.421875 
Q 19.734375 -1.421875 13.25 4.234375 
Q 6.78125 9.90625 6.78125 20.515625 
Q 6.78125 27.484375 10.78125 32.3125 
Q 14.796875 37.15625 21.921875 38.8125 
z
M 18.3125 54.390625 
Q 18.3125 48.734375 21.84375 45.5625 
Q 25.390625 42.390625 31.78125 42.390625 
Q 38.140625 42.390625 41.71875 45.5625 
Q 45.3125 48.734375 45.3125 54.390625 
Q 45.3125 60.0625 41.71875 63.234375 
Q 38.140625 66.40625 31.78125 66.40625 
Q 25.390625 66.40625 21.84375 63.234375 
Q 18.3125 60.0625 18.3125 54.390625 
z
" id="DejaVuSans-56"/>
       </defs>
       <use xlink:href="#DejaVuSans-48"/>
       <use x="63.623047" xlink:href="#DejaVuSans-46"/>
       <use x="95.410156" xlink:href="#DejaVuSans-56"/>
      </g>
     </g>
    </g>
    <g id="ytick_6">
     <g id="line2d_13">
      <g>
       <use style="stroke:#000000;stroke-width:0.8;" x="119.61" xlink:href="#m813800df29" y="125.628001"/>
      </g>
     </g>
     <g id="text_14">
      <!-- 1.0 -->
      <g transform="translate(80.80375 133.226439)scale(0.2 -0.2)">
       <use xlink:href="#DejaVuSans-49"/>
       <use x="63.623047" xlink:href="#DejaVuSans-46"/>
       <use x="95.410156" xlink:href="#DejaVuSans-48"/>
      </g>
     </g>
    </g>
    <g id="text_15">
     <!-- HI value -->
     <g transform="translate(72.644375 331.116863)rotate(-90)scale(0.2 -0.2)">
      <defs>
       <path d="M 9.8125 72.90625 
L 19.671875 72.90625 
L 19.671875 43.015625 
L 55.515625 43.015625 
L 55.515625 72.90625 
L 65.375 72.90625 
L 65.375 0 
L 55.515625 0 
L 55.515625 34.71875 
L 19.671875 34.71875 
L 19.671875 0 
L 9.8125 0 
z
" id="DejaVuSans-72"/>
       <path d="M 9.8125 72.90625 
L 19.671875 72.90625 
L 19.671875 0 
L 9.8125 0 
z
" id="DejaVuSans-73"/>
       <path id="DejaVuSans-32"/>
       <path d="M 2.984375 54.6875 
L 12.5 54.6875 
L 29.59375 8.796875 
L 46.6875 54.6875 
L 56.203125 54.6875 
L 35.6875 0 
L 23.484375 0 
z
" id="DejaVuSans-118"/>
       <path d="M 34.28125 27.484375 
Q 23.390625 27.484375 19.1875 25 
Q 14.984375 22.515625 14.984375 16.5 
Q 14.984375 11.71875 18.140625 8.90625 
Q 21.296875 6.109375 26.703125 6.109375 
Q 34.1875 6.109375 38.703125 11.40625 
Q 43.21875 16.703125 43.21875 25.484375 
L 43.21875 27.484375 
z
M 52.203125 31.203125 
L 52.203125 0 
L 43.21875 0 
L 43.21875 8.296875 
Q 40.140625 3.328125 35.546875 0.953125 
Q 30.953125 -1.421875 24.3125 -1.421875 
Q 15.921875 -1.421875 10.953125 3.296875 
Q 6 8.015625 6 15.921875 
Q 6 25.140625 12.171875 29.828125 
Q 18.359375 34.515625 30.609375 34.515625 
L 43.21875 34.515625 
L 43.21875 35.40625 
Q 43.21875 41.609375 39.140625 45 
Q 35.0625 48.390625 27.6875 48.390625 
Q 23 48.390625 18.546875 47.265625 
Q 14.109375 46.140625 10.015625 43.890625 
L 10.015625 52.203125 
Q 14.9375 54.109375 19.578125 55.046875 
Q 24.21875 56 28.609375 56 
Q 40.484375 56 46.34375 49.84375 
Q 52.203125 43.703125 52.203125 31.203125 
z
" id="DejaVuSans-97"/>
       <path d="M 8.5 21.578125 
L 8.5 54.6875 
L 17.484375 54.6875 
L 17.484375 21.921875 
Q 17.484375 14.15625 20.5 10.265625 
Q 23.53125 6.390625 29.59375 6.390625 
Q 36.859375 6.390625 41.078125 11.03125 
Q 45.3125 15.671875 45.3125 23.6875 
L 45.3125 54.6875 
L 54.296875 54.6875 
L 54.296875 0 
L 45.3125 0 
L 45.3125 8.40625 
Q 42.046875 3.421875 37.71875 1 
Q 33.40625 -1.421875 27.6875 -1.421875 
Q 18.265625 -1.421875 13.375 4.4375 
Q 8.5 10.296875 8.5 21.578125 
z
M 31.109375 56 
z
" id="DejaVuSans-117"/>
      </defs>
      <use xlink:href="#DejaVuSans-72"/>
      <use x="75.195312" xlink:href="#DejaVuSans-73"/>
      <use x="104.6875" xlink:href="#DejaVuSans-32"/>
      <use x="136.474609" xlink:href="#DejaVuSans-118"/>
      <use x="195.654297" xlink:href="#DejaVuSans-97"/>
      <use x="256.933594" xlink:href="#DejaVuSans-108"/>
      <use x="284.716797" xlink:href="#DejaVuSans-117"/>
      <use x="348.095703" xlink:href="#DejaVuSans-101"/>
     </g>
    </g>
   </g>
   <g id="line2d_14">
    <path clip-path="url(#p034d7ee9ba)" d="M 153.318273 207.181313 
L 165.104382 207.370735 
L 176.890491 207.809706 
L 188.676601 208.498202 
L 200.46271 209.436225 
L 212.248819 210.623819 
L 224.034929 212.060938 
L 235.821038 213.747584 
L 247.607147 215.831663 
L 257.036035 217.768446 
L 264.107701 219.438485 
L 273.536588 221.957808 
L 290.037141 226.462621 
L 294.751585 227.571607 
L 301.82325 228.970154 
L 304.180472 229.209939 
L 318.323804 229.356429 
L 325.395469 229.632804 
L 332.467135 229.799693 
L 337.181579 229.975407 
L 339.5388 229.988723 
L 344.253244 230.249886 
L 348.967688 230.340261 
L 356.039353 230.644726 
L 365.468241 230.794268 
L 372.539907 230.998923 
L 396.112125 231.218397 
L 398.469347 231.758551 
L 403.183791 233.176428 
L 407.898235 234.832084 
L 412.612678 236.702247 
L 422.041566 240.75534 
L 431.470453 244.771102 
L 436.184897 246.61082 
L 443.256563 249.077339 
L 450.328228 251.271036 
L 466.828781 256.205927 
L 471.543225 257.824427 
L 478.614891 260.538555 
L 485.686556 263.53906 
L 511.615997 274.748047 
L 518.687662 278.070061 
L 523.402106 280.529432 
L 528.11655 283.266421 
L 532.830994 286.385479 
L 537.545437 289.874032 
L 542.259881 293.676727 
L 546.974325 297.750894 
L 554.04599 304.207177 
L 565.8321 315.295563 
L 572.903765 321.554208 
L 577.618209 325.470399 
L 584.689875 330.929252 
L 591.76154 335.951597 
L 598.833206 340.634434 
L 603.54765 343.621951 
L 603.54765 343.621951 
" style="fill:none;stroke:#000000;stroke-linecap:square;stroke-width:2;"/>
   </g>
   <g id="line2d_15">
    <path clip-path="url(#p034d7ee9ba)" d="M 603.54765 343.621951 
L 605.904872 345.109564 
L 608.262093 346.594039 
L 610.619315 348.070636 
L 612.976537 349.552572 
L 615.333759 351.045165 
L 617.690981 352.534696 
L 620.048203 354.033772 
L 622.405425 355.549694 
L 624.762647 357.072143 
L 627.119868 358.605542 
L 629.47709 360.124907 
L 631.834312 361.626784 
L 634.191534 363.102269 
L 636.548756 364.563797 
L 638.905978 365.997887 
L 641.2632 367.395224 
L 643.620421 368.763794 
L 645.977643 370.089324 
L 648.334865 371.37444 
L 650.692087 372.616199 
L 653.049309 373.829333 
L 655.406531 375.030688 
L 657.763753 376.209182 
L 660.120975 377.364642 
L 662.478196 378.506525 
L 664.835418 379.628533 
L 667.19264 380.7374 
L 669.549862 381.843695 
L 671.907084 382.941274 
L 674.264306 384.049193 
L 676.621528 385.163639 
L 678.97875 386.283533 
L 681.335971 387.41295 
L 683.693193 388.572125 
L 686.050415 389.745128 
L 688.407637 390.94243 
L 690.764859 392.178316 
L 693.122081 393.462854 
L 695.479303 394.775253 
L 697.836524 396.109239 
L 700.193746 397.466772 
L 702.550968 398.847459 
L 704.90819 400.247454 
L 707.265412 401.665058 
L 709.622634 403.095967 
L 711.979856 404.536846 
L 714.337078 405.987444 
L 716.694299 407.444787 
L 719.051521 408.912013 
L 721.408743 410.390626 
L 723.765965 411.880985 
L 726.123187 413.403619 
L 728.480409 414.965186 
L 730.837631 416.576047 
L 733.194853 418.236651 
L 735.552074 419.928658 
L 737.909296 421.584881 
L 740.266518 423.152375 
L 742.62374 424.7059 
L 744.980962 426.278429 
L 747.338184 427.904861 
L 749.695406 429.544816 
L 752.052627 431.198294 
L 754.409849 432.865283 
L 756.767071 434.545805 
L 759.124293 436.239838 
L 761.481515 437.947405 
L 763.838737 439.668483 
L 766.195959 441.40309 
L 768.553181 443.151213 
L 770.910402 444.912858 
L 773.267624 446.688026 
L 775.624846 448.476716 
L 777.982068 450.278928 
L 780.33929 452.094658 
L 782.696512 453.92391 
L 785.053734 455.766689 
L 787.410955 457.62298 
L 789.768177 459.492799 
L 792.125399 461.376141 
L 794.482621 463.272999 
L 796.839843 465.183385 
L 799.197065 467.107288 
L 801.554287 469.044713 
L 803.911509 470.995655 
L 806.26873 472.960126 
L 808.625952 474.938113 
L 810.983174 476.929627 
L 813.340396 478.934659 
L 815.697618 480.953213 
L 818.05484 482.985284 
L 820.412062 485.030883 
L 822.769284 487.090001 
L 825.126505 489.16264 
L 827.483727 491.2488 
" style="fill:none;stroke:#ff0000;stroke-linecap:square;stroke-width:2;"/>
   </g>
   <g id="line2d_16">
    <path clip-path="url(#p034d7ee9ba)" d="M 603.54765 511.3584 
L 603.54765 68.9472 
" style="fill:none;stroke:#0000ff;stroke-dasharray:5.55,2.4;stroke-dashoffset:0;stroke-width:1.5;"/>
   </g>
   <g id="line2d_17">
    <path clip-path="url(#p034d7ee9ba)" d="M 119.61 491.2488 
L 861.192 491.2488 
" style="fill:none;stroke:#008000;stroke-dasharray:5.55,2.4;stroke-dashoffset:0;stroke-width:1.5;"/>
   </g>
   <g id="patch_3">
    <path d="M 119.61 511.3584 
L 119.61 68.9472 
" style="fill:none;stroke:#000000;stroke-linecap:square;stroke-linejoin:miter;stroke-width:0.8;"/>
   </g>
   <g id="patch_4">
    <path d="M 861.192 511.3584 
L 861.192 68.9472 
" style="fill:none;stroke:#000000;stroke-linecap:square;stroke-linejoin:miter;stroke-width:0.8;"/>
   </g>
   <g id="patch_5">
    <path d="M 119.61 511.3584 
L 861.192 511.3584 
" style="fill:none;stroke:#000000;stroke-linecap:square;stroke-linejoin:miter;stroke-width:0.8;"/>
   </g>
   <g id="patch_6">
    <path d="M 119.61 68.9472 
L 861.192 68.9472 
" style="fill:none;stroke:#000000;stroke-linecap:square;stroke-linejoin:miter;stroke-width:0.8;"/>
   </g>
   <g id="legend_1">
    <g id="patch_7">
     <path d="M 612.482625 202.3722 
L 847.192 202.3722 
Q 851.192 202.3722 851.192 198.3722 
L 851.192 82.9472 
Q 851.192 78.9472 847.192 78.9472 
L 612.482625 78.9472 
Q 608.482625 78.9472 608.482625 82.9472 
L 608.482625 198.3722 
Q 608.482625 202.3722 612.482625 202.3722 
z
" style="fill:#ffffff;opacity:0.8;stroke:#cccccc;stroke-linejoin:miter;"/>
    </g>
    <g id="line2d_18">
     <path d="M 616.482625 95.144075 
L 656.482625 95.144075 
" style="fill:none;stroke:#000000;stroke-linecap:square;stroke-width:2;"/>
    </g>
    <g id="line2d_19"/>
    <g id="text_16">
     <!-- Raw HI Data -->
     <g transform="translate(672.482625 102.144075)scale(0.2 -0.2)">
      <defs>
       <path d="M 44.390625 34.1875 
Q 47.5625 33.109375 50.5625 29.59375 
Q 53.5625 26.078125 56.59375 19.921875 
L 66.609375 0 
L 56 0 
L 46.6875 18.703125 
Q 43.0625 26.03125 39.671875 28.421875 
Q 36.28125 30.8125 30.421875 30.8125 
L 19.671875 30.8125 
L 19.671875 0 
L 9.8125 0 
L 9.8125 72.90625 
L 32.078125 72.90625 
Q 44.578125 72.90625 50.734375 67.671875 
Q 56.890625 62.453125 56.890625 51.90625 
Q 56.890625 45.015625 53.6875 40.46875 
Q 50.484375 35.9375 44.390625 34.1875 
z
M 19.671875 64.796875 
L 19.671875 38.921875 
L 32.078125 38.921875 
Q 39.203125 38.921875 42.84375 42.21875 
Q 46.484375 45.515625 46.484375 51.90625 
Q 46.484375 58.296875 42.84375 61.546875 
Q 39.203125 64.796875 32.078125 64.796875 
z
" id="DejaVuSans-82"/>
       <path d="M 4.203125 54.6875 
L 13.1875 54.6875 
L 24.421875 12.015625 
L 35.59375 54.6875 
L 46.1875 54.6875 
L 57.421875 12.015625 
L 68.609375 54.6875 
L 77.59375 54.6875 
L 63.28125 0 
L 52.6875 0 
L 40.921875 44.828125 
L 29.109375 0 
L 18.5 0 
z
" id="DejaVuSans-119"/>
       <path d="M 19.671875 64.796875 
L 19.671875 8.109375 
L 31.59375 8.109375 
Q 46.6875 8.109375 53.6875 14.9375 
Q 60.6875 21.78125 60.6875 36.53125 
Q 60.6875 51.171875 53.6875 57.984375 
Q 46.6875 64.796875 31.59375 64.796875 
z
M 9.8125 72.90625 
L 30.078125 72.90625 
Q 51.265625 72.90625 61.171875 64.09375 
Q 71.09375 55.28125 71.09375 36.53125 
Q 71.09375 17.671875 61.125 8.828125 
Q 51.171875 0 30.078125 0 
L 9.8125 0 
z
" id="DejaVuSans-68"/>
       <path d="M 18.3125 70.21875 
L 18.3125 54.6875 
L 36.8125 54.6875 
L 36.8125 47.703125 
L 18.3125 47.703125 
L 18.3125 18.015625 
Q 18.3125 11.328125 20.140625 9.421875 
Q 21.96875 7.515625 27.59375 7.515625 
L 36.8125 7.515625 
L 36.8125 0 
L 27.59375 0 
Q 17.1875 0 13.234375 3.875 
Q 9.28125 7.765625 9.28125 18.015625 
L 9.28125 47.703125 
L 2.6875 47.703125 
L 2.6875 54.6875 
L 9.28125 54.6875 
L 9.28125 70.21875 
z
" id="DejaVuSans-116"/>
      </defs>
      <use xlink:href="#DejaVuSans-82"/>
      <use x="67.232422" xlink:href="#DejaVuSans-97"/>
      <use x="128.511719" xlink:href="#DejaVuSans-119"/>
      <use x="210.298828" xlink:href="#DejaVuSans-32"/>
      <use x="242.085938" xlink:href="#DejaVuSans-72"/>
      <use x="317.28125" xlink:href="#DejaVuSans-73"/>
      <use x="346.773438" xlink:href="#DejaVuSans-32"/>
      <use x="378.560547" xlink:href="#DejaVuSans-68"/>
      <use x="455.5625" xlink:href="#DejaVuSans-97"/>
      <use x="516.841797" xlink:href="#DejaVuSans-116"/>
      <use x="556.050781" xlink:href="#DejaVuSans-97"/>
     </g>
    </g>
    <g id="line2d_20">
     <path d="M 616.482625 124.500325 
L 656.482625 124.500325 
" style="fill:none;stroke:#ff0000;stroke-linecap:square;stroke-width:2;"/>
    </g>
    <g id="line2d_21"/>
    <g id="text_17">
     <!-- Prediction Data -->
     <g transform="translate(672.482625 131.500325)scale(0.2 -0.2)">
      <defs>
       <path d="M 19.671875 64.796875 
L 19.671875 37.40625 
L 32.078125 37.40625 
Q 38.96875 37.40625 42.71875 40.96875 
Q 46.484375 44.53125 46.484375 51.125 
Q 46.484375 57.671875 42.71875 61.234375 
Q 38.96875 64.796875 32.078125 64.796875 
z
M 9.8125 72.90625 
L 32.078125 72.90625 
Q 44.34375 72.90625 50.609375 67.359375 
Q 56.890625 61.8125 56.890625 51.125 
Q 56.890625 40.328125 50.609375 34.8125 
Q 44.34375 29.296875 32.078125 29.296875 
L 19.671875 29.296875 
L 19.671875 0 
L 9.8125 0 
z
" id="DejaVuSans-80"/>
       <path d="M 41.109375 46.296875 
Q 39.59375 47.171875 37.8125 47.578125 
Q 36.03125 48 33.890625 48 
Q 26.265625 48 22.1875 43.046875 
Q 18.109375 38.09375 18.109375 28.8125 
L 18.109375 0 
L 9.078125 0 
L 9.078125 54.6875 
L 18.109375 54.6875 
L 18.109375 46.1875 
Q 20.953125 51.171875 25.484375 53.578125 
Q 30.03125 56 36.53125 56 
Q 37.453125 56 38.578125 55.875 
Q 39.703125 55.765625 41.0625 55.515625 
z
" id="DejaVuSans-114"/>
       <path d="M 45.40625 46.390625 
L 45.40625 75.984375 
L 54.390625 75.984375 
L 54.390625 0 
L 45.40625 0 
L 45.40625 8.203125 
Q 42.578125 3.328125 38.25 0.953125 
Q 33.9375 -1.421875 27.875 -1.421875 
Q 17.96875 -1.421875 11.734375 6.484375 
Q 5.515625 14.40625 5.515625 27.296875 
Q 5.515625 40.1875 11.734375 48.09375 
Q 17.96875 56 27.875 56 
Q 33.9375 56 38.25 53.625 
Q 42.578125 51.265625 45.40625 46.390625 
z
M 14.796875 27.296875 
Q 14.796875 17.390625 18.875 11.75 
Q 22.953125 6.109375 30.078125 6.109375 
Q 37.203125 6.109375 41.296875 11.75 
Q 45.40625 17.390625 45.40625 27.296875 
Q 45.40625 37.203125 41.296875 42.84375 
Q 37.203125 48.484375 30.078125 48.484375 
Q 22.953125 48.484375 18.875 42.84375 
Q 14.796875 37.203125 14.796875 27.296875 
z
" id="DejaVuSans-100"/>
       <path d="M 30.609375 48.390625 
Q 23.390625 48.390625 19.1875 42.75 
Q 14.984375 37.109375 14.984375 27.296875 
Q 14.984375 17.484375 19.15625 11.84375 
Q 23.34375 6.203125 30.609375 6.203125 
Q 37.796875 6.203125 41.984375 11.859375 
Q 46.1875 17.53125 46.1875 27.296875 
Q 46.1875 37.015625 41.984375 42.703125 
Q 37.796875 48.390625 30.609375 48.390625 
z
M 30.609375 56 
Q 42.328125 56 49.015625 48.375 
Q 55.71875 40.765625 55.71875 27.296875 
Q 55.71875 13.875 49.015625 6.21875 
Q 42.328125 -1.421875 30.609375 -1.421875 
Q 18.84375 -1.421875 12.171875 6.21875 
Q 5.515625 13.875 5.515625 27.296875 
Q 5.515625 40.765625 12.171875 48.375 
Q 18.84375 56 30.609375 56 
z
" id="DejaVuSans-111"/>
       <path d="M 54.890625 33.015625 
L 54.890625 0 
L 45.90625 0 
L 45.90625 32.71875 
Q 45.90625 40.484375 42.875 44.328125 
Q 39.84375 48.1875 33.796875 48.1875 
Q 26.515625 48.1875 22.3125 43.546875 
Q 18.109375 38.921875 18.109375 30.90625 
L 18.109375 0 
L 9.078125 0 
L 9.078125 54.6875 
L 18.109375 54.6875 
L 18.109375 46.1875 
Q 21.34375 51.125 25.703125 53.5625 
Q 30.078125 56 35.796875 56 
Q 45.21875 56 50.046875 50.171875 
Q 54.890625 44.34375 54.890625 33.015625 
z
" id="DejaVuSans-110"/>
      </defs>
      <use xlink:href="#DejaVuSans-80"/>
      <use x="58.552734" xlink:href="#DejaVuSans-114"/>
      <use x="97.416016" xlink:href="#DejaVuSans-101"/>
      <use x="158.939453" xlink:href="#DejaVuSans-100"/>
      <use x="222.416016" xlink:href="#DejaVuSans-105"/>
      <use x="250.199219" xlink:href="#DejaVuSans-99"/>
      <use x="305.179688" xlink:href="#DejaVuSans-116"/>
      <use x="344.388672" xlink:href="#DejaVuSans-105"/>
      <use x="372.171875" xlink:href="#DejaVuSans-111"/>
      <use x="433.353516" xlink:href="#DejaVuSans-110"/>
      <use x="496.732422" xlink:href="#DejaVuSans-32"/>
      <use x="528.519531" xlink:href="#DejaVuSans-68"/>
      <use x="605.521484" xlink:href="#DejaVuSans-97"/>
      <use x="666.800781" xlink:href="#DejaVuSans-116"/>
      <use x="706.009766" xlink:href="#DejaVuSans-97"/>
     </g>
    </g>
    <g id="line2d_22">
     <path d="M 616.482625 153.856575 
L 656.482625 153.856575 
" style="fill:none;stroke:#008000;stroke-dasharray:5.55,2.4;stroke-dashoffset:0;stroke-width:1.5;"/>
    </g>
    <g id="line2d_23"/>
    <g id="text_18">
     <!-- Failure Threshold -->
     <g transform="translate(672.482625 160.856575)scale(0.2 -0.2)">
      <defs>
       <path d="M 9.8125 72.90625 
L 51.703125 72.90625 
L 51.703125 64.59375 
L 19.671875 64.59375 
L 19.671875 43.109375 
L 48.578125 43.109375 
L 48.578125 34.8125 
L 19.671875 34.8125 
L 19.671875 0 
L 9.8125 0 
z
" id="DejaVuSans-70"/>
       <path d="M 54.890625 33.015625 
L 54.890625 0 
L 45.90625 0 
L 45.90625 32.71875 
Q 45.90625 40.484375 42.875 44.328125 
Q 39.84375 48.1875 33.796875 48.1875 
Q 26.515625 48.1875 22.3125 43.546875 
Q 18.109375 38.921875 18.109375 30.90625 
L 18.109375 0 
L 9.078125 0 
L 9.078125 75.984375 
L 18.109375 75.984375 
L 18.109375 46.1875 
Q 21.34375 51.125 25.703125 53.5625 
Q 30.078125 56 35.796875 56 
Q 45.21875 56 50.046875 50.171875 
Q 54.890625 44.34375 54.890625 33.015625 
z
" id="DejaVuSans-104"/>
       <path d="M 44.28125 53.078125 
L 44.28125 44.578125 
Q 40.484375 46.53125 36.375 47.5 
Q 32.28125 48.484375 27.875 48.484375 
Q 21.1875 48.484375 17.84375 46.4375 
Q 14.5 44.390625 14.5 40.28125 
Q 14.5 37.15625 16.890625 35.375 
Q 19.28125 33.59375 26.515625 31.984375 
L 29.59375 31.296875 
Q 39.15625 29.25 43.1875 25.515625 
Q 47.21875 21.78125 47.21875 15.09375 
Q 47.21875 7.46875 41.1875 3.015625 
Q 35.15625 -1.421875 24.609375 -1.421875 
Q 20.21875 -1.421875 15.453125 -0.5625 
Q 10.6875 0.296875 5.421875 2 
L 5.421875 11.28125 
Q 10.40625 8.6875 15.234375 7.390625 
Q 20.0625 6.109375 24.8125 6.109375 
Q 31.15625 6.109375 34.5625 8.28125 
Q 37.984375 10.453125 37.984375 14.40625 
Q 37.984375 18.0625 35.515625 20.015625 
Q 33.0625 21.96875 24.703125 23.78125 
L 21.578125 24.515625 
Q 13.234375 26.265625 9.515625 29.90625 
Q 5.8125 33.546875 5.8125 39.890625 
Q 5.8125 47.609375 11.28125 51.796875 
Q 16.75 56 26.8125 56 
Q 31.78125 56 36.171875 55.265625 
Q 40.578125 54.546875 44.28125 53.078125 
z
" id="DejaVuSans-115"/>
      </defs>
      <use xlink:href="#DejaVuSans-70"/>
      <use x="48.394531" xlink:href="#DejaVuSans-97"/>
      <use x="109.673828" xlink:href="#DejaVuSans-105"/>
      <use x="137.457031" xlink:href="#DejaVuSans-108"/>
      <use x="165.240234" xlink:href="#DejaVuSans-117"/>
      <use x="228.619141" xlink:href="#DejaVuSans-114"/>
      <use x="267.482422" xlink:href="#DejaVuSans-101"/>
      <use x="329.005859" xlink:href="#DejaVuSans-32"/>
      <use x="360.792969" xlink:href="#DejaVuSans-84"/>
      <use x="421.876953" xlink:href="#DejaVuSans-104"/>
      <use x="485.255859" xlink:href="#DejaVuSans-114"/>
      <use x="524.119141" xlink:href="#DejaVuSans-101"/>
      <use x="585.642578" xlink:href="#DejaVuSans-115"/>
      <use x="637.742188" xlink:href="#DejaVuSans-104"/>
      <use x="701.121094" xlink:href="#DejaVuSans-111"/>
      <use x="762.302734" xlink:href="#DejaVuSans-108"/>
      <use x="790.085938" xlink:href="#DejaVuSans-100"/>
     </g>
    </g>
    <g id="PathCollection_2">
     <g>
      <use style="fill:#808080;stroke:#808080;" x="636.482625" xlink:href="#mf9ad211e5f" y="184.962825"/>
     </g>
    </g>
    <g id="text_19">
     <!-- Raw data -->
     <g transform="translate(672.482625 190.212825)scale(0.2 -0.2)">
      <use xlink:href="#DejaVuSans-82"/>
      <use x="67.232422" xlink:href="#DejaVuSans-97"/>
      <use x="128.511719" xlink:href="#DejaVuSans-119"/>
      <use x="210.298828" xlink:href="#DejaVuSans-32"/>
      <use x="242.085938" xlink:href="#DejaVuSans-100"/>
      <use x="305.5625" xlink:href="#DejaVuSans-97"/>
      <use x="366.841797" xlink:href="#DejaVuSans-116"/>
      <use x="406.050781" xlink:href="#DejaVuSans-97"/>
     </g>
    </g>
   </g>
  </g>
 </g>
 <defs>
  <clipPath id="p034d7ee9ba">
   <rect height="442.4112" width="741.582" x="119.61" y="68.9472"/>
  </clipPath>
 </defs>
</svg>
