<?xml version="1.0" encoding="utf-8" standalone="no"?>
<!DOCTYPE svg PUBLIC "-//W3C//DTD SVG 1.1//EN"
  "http://www.w3.org/Graphics/SVG/1.1/DTD/svg11.dtd">
<!-- Created with matplotlib (https://matplotlib.org/) -->
<svg height="534.24pt" version="1.1" viewBox="0 0 893.52 534.24" width="893.52pt" xmlns="http://www.w3.org/2000/svg" xmlns:xlink="http://www.w3.org/1999/xlink">
 <metadata>
  <rdf:RDF xmlns:cc="http://creativecommons.org/ns#" xmlns:dc="http://purl.org/dc/elements/1.1/" xmlns:rdf="http://www.w3.org/1999/02/22-rdf-syntax-ns#">
   <cc:Work>
    <dc:type rdf:resource="http://purl.org/dc/dcmitype/StillImage"/>
    <dc:date>2023-11-03T13:17:45.965626</dc:date>
    <dc:format>image/svg+xml</dc:format>
    <dc:creator>
     <cc:Agent>
      <dc:title>Matplotlib v3.3.4, https://matplotlib.org/</dc:title>
     </cc:Agent>
    </dc:creator>
   </cc:Work>
  </rdf:RDF>
 </metadata>
 <defs>
  <style type="text/css">*{stroke-linecap:butt;stroke-linejoin:round;}</style>
 </defs>
 <g id="figure_1">
  <g id="patch_1">
   <path d="M 0 534.24 
L 893.52 534.24 
L 893.52 0 
L 0 0 
z
" style="fill:#ffffff;"/>
  </g>
  <g id="axes_1">
   <g id="patch_2">
    <path d="M 111.69 475.4736 
L 804.168 475.4736 
L 804.168 64.1088 
L 111.69 64.1088 
z
" style="fill:#ffffff;"/>
   </g>
   <g id="PathCollection_1">
    <defs>
     <path d="M 0 3 
C 0.795609 3 1.55874 2.683901 2.12132 2.12132 
C 2.683901 1.55874 3 0.795609 3 0 
C 3 -0.795609 2.683901 -1.55874 2.12132 -2.12132 
C 1.55874 -2.683901 0.795609 -3 0 -3 
C -0.795609 -3 -1.55874 -2.683901 -2.12132 -2.12132 
C -2.683901 -1.55874 -3 -0.795609 -3 0 
C -3 0.795609 -2.683901 1.55874 -2.12132 2.12132 
C -1.55874 2.683901 -0.795609 3 0 3 
z
" id="m1bb12aec9f" style="stroke:#808080;"/>
    </defs>
    <g clip-path="url(#pe384321cf4)">
     <use style="fill:#808080;stroke:#808080;" x="143.166273" xlink:href="#m1bb12aec9f" y="197.986256"/>
     <use style="fill:#808080;stroke:#808080;" x="145.606294" xlink:href="#m1bb12aec9f" y="153.901583"/>
     <use style="fill:#808080;stroke:#808080;" x="148.046315" xlink:href="#m1bb12aec9f" y="206.521716"/>
     <use style="fill:#808080;stroke:#808080;" x="150.486336" xlink:href="#m1bb12aec9f" y="198.681487"/>
     <use style="fill:#808080;stroke:#808080;" x="152.926357" xlink:href="#m1bb12aec9f" y="226.405425"/>
     <use style="fill:#808080;stroke:#808080;" x="155.366378" xlink:href="#m1bb12aec9f" y="200.136142"/>
     <use style="fill:#808080;stroke:#808080;" x="157.8064" xlink:href="#m1bb12aec9f" y="226.80281"/>
     <use style="fill:#808080;stroke:#808080;" x="160.246421" xlink:href="#m1bb12aec9f" y="152.322026"/>
     <use style="fill:#808080;stroke:#808080;" x="162.686442" xlink:href="#m1bb12aec9f" y="174.036945"/>
     <use style="fill:#808080;stroke:#808080;" x="165.126463" xlink:href="#m1bb12aec9f" y="215.601831"/>
     <use style="fill:#808080;stroke:#808080;" x="167.566484" xlink:href="#m1bb12aec9f" y="164.849626"/>
     <use style="fill:#808080;stroke:#808080;" x="170.006505" xlink:href="#m1bb12aec9f" y="323.507752"/>
     <use style="fill:#808080;stroke:#808080;" x="172.446526" xlink:href="#m1bb12aec9f" y="186.482098"/>
     <use style="fill:#808080;stroke:#808080;" x="174.886548" xlink:href="#m1bb12aec9f" y="216.471959"/>
     <use style="fill:#808080;stroke:#808080;" x="177.326569" xlink:href="#m1bb12aec9f" y="246.344589"/>
     <use style="fill:#808080;stroke:#808080;" x="179.76659" xlink:href="#m1bb12aec9f" y="272.46532"/>
     <use style="fill:#808080;stroke:#808080;" x="182.206611" xlink:href="#m1bb12aec9f" y="193.461127"/>
     <use style="fill:#808080;stroke:#808080;" x="184.646632" xlink:href="#m1bb12aec9f" y="238.352307"/>
     <use style="fill:#808080;stroke:#808080;" x="187.086653" xlink:href="#m1bb12aec9f" y="261.648403"/>
     <use style="fill:#808080;stroke:#808080;" x="189.526674" xlink:href="#m1bb12aec9f" y="218.932232"/>
     <use style="fill:#808080;stroke:#808080;" x="191.966696" xlink:href="#m1bb12aec9f" y="270.296502"/>
     <use style="fill:#808080;stroke:#808080;" x="194.406717" xlink:href="#m1bb12aec9f" y="276.713467"/>
     <use style="fill:#808080;stroke:#808080;" x="196.846738" xlink:href="#m1bb12aec9f" y="246.202738"/>
     <use style="fill:#808080;stroke:#808080;" x="199.286759" xlink:href="#m1bb12aec9f" y="190.839378"/>
     <use style="fill:#808080;stroke:#808080;" x="201.72678" xlink:href="#m1bb12aec9f" y="237.169764"/>
     <use style="fill:#808080;stroke:#808080;" x="204.166801" xlink:href="#m1bb12aec9f" y="265.399619"/>
     <use style="fill:#808080;stroke:#808080;" x="206.606822" xlink:href="#m1bb12aec9f" y="240.112165"/>
     <use style="fill:#808080;stroke:#808080;" x="209.046844" xlink:href="#m1bb12aec9f" y="106.38356"/>
     <use style="fill:#808080;stroke:#808080;" x="211.486865" xlink:href="#m1bb12aec9f" y="260.187446"/>
     <use style="fill:#808080;stroke:#808080;" x="213.926886" xlink:href="#m1bb12aec9f" y="266.84143"/>
     <use style="fill:#808080;stroke:#808080;" x="216.366907" xlink:href="#m1bb12aec9f" y="186.543152"/>
     <use style="fill:#808080;stroke:#808080;" x="218.806928" xlink:href="#m1bb12aec9f" y="285.731926"/>
     <use style="fill:#808080;stroke:#808080;" x="221.246949" xlink:href="#m1bb12aec9f" y="204.768862"/>
     <use style="fill:#808080;stroke:#808080;" x="223.68697" xlink:href="#m1bb12aec9f" y="215.43303"/>
     <use style="fill:#808080;stroke:#808080;" x="226.126992" xlink:href="#m1bb12aec9f" y="224.946175"/>
     <use style="fill:#808080;stroke:#808080;" x="228.567013" xlink:href="#m1bb12aec9f" y="82.8072"/>
     <use style="fill:#808080;stroke:#808080;" x="231.007034" xlink:href="#m1bb12aec9f" y="229.031675"/>
     <use style="fill:#808080;stroke:#808080;" x="233.447055" xlink:href="#m1bb12aec9f" y="248.234886"/>
     <use style="fill:#808080;stroke:#808080;" x="235.887076" xlink:href="#m1bb12aec9f" y="216.341218"/>
     <use style="fill:#808080;stroke:#808080;" x="238.327097" xlink:href="#m1bb12aec9f" y="215.678781"/>
     <use style="fill:#808080;stroke:#808080;" x="240.767118" xlink:href="#m1bb12aec9f" y="256.429265"/>
     <use style="fill:#808080;stroke:#808080;" x="243.20714" xlink:href="#m1bb12aec9f" y="208.660352"/>
     <use style="fill:#808080;stroke:#808080;" x="245.647161" xlink:href="#m1bb12aec9f" y="237.499336"/>
     <use style="fill:#808080;stroke:#808080;" x="248.087182" xlink:href="#m1bb12aec9f" y="203.168354"/>
     <use style="fill:#808080;stroke:#808080;" x="250.527203" xlink:href="#m1bb12aec9f" y="251.855795"/>
     <use style="fill:#808080;stroke:#808080;" x="252.967224" xlink:href="#m1bb12aec9f" y="296.722432"/>
     <use style="fill:#808080;stroke:#808080;" x="255.407245" xlink:href="#m1bb12aec9f" y="222.486452"/>
     <use style="fill:#808080;stroke:#808080;" x="257.847266" xlink:href="#m1bb12aec9f" y="188.019287"/>
     <use style="fill:#808080;stroke:#808080;" x="260.287288" xlink:href="#m1bb12aec9f" y="285.820824"/>
     <use style="fill:#808080;stroke:#808080;" x="262.727309" xlink:href="#m1bb12aec9f" y="266.075878"/>
     <use style="fill:#808080;stroke:#808080;" x="265.16733" xlink:href="#m1bb12aec9f" y="285.934548"/>
     <use style="fill:#808080;stroke:#808080;" x="267.607351" xlink:href="#m1bb12aec9f" y="195.749584"/>
     <use style="fill:#808080;stroke:#808080;" x="270.047372" xlink:href="#m1bb12aec9f" y="257.084483"/>
     <use style="fill:#808080;stroke:#808080;" x="272.487393" xlink:href="#m1bb12aec9f" y="309.014096"/>
     <use style="fill:#808080;stroke:#808080;" x="274.927414" xlink:href="#m1bb12aec9f" y="170.565989"/>
     <use style="fill:#808080;stroke:#808080;" x="277.367436" xlink:href="#m1bb12aec9f" y="148.403154"/>
     <use style="fill:#808080;stroke:#808080;" x="279.807457" xlink:href="#m1bb12aec9f" y="238.264801"/>
     <use style="fill:#808080;stroke:#808080;" x="282.247478" xlink:href="#m1bb12aec9f" y="283.536458"/>
     <use style="fill:#808080;stroke:#808080;" x="284.687499" xlink:href="#m1bb12aec9f" y="167.478853"/>
     <use style="fill:#808080;stroke:#808080;" x="287.12752" xlink:href="#m1bb12aec9f" y="220.365142"/>
     <use style="fill:#808080;stroke:#808080;" x="289.567541" xlink:href="#m1bb12aec9f" y="287.945277"/>
     <use style="fill:#808080;stroke:#808080;" x="292.007562" xlink:href="#m1bb12aec9f" y="343.944351"/>
     <use style="fill:#808080;stroke:#808080;" x="294.447584" xlink:href="#m1bb12aec9f" y="336.74287"/>
     <use style="fill:#808080;stroke:#808080;" x="296.887605" xlink:href="#m1bb12aec9f" y="228.912754"/>
     <use style="fill:#808080;stroke:#808080;" x="299.327626" xlink:href="#m1bb12aec9f" y="247.542702"/>
     <use style="fill:#808080;stroke:#808080;" x="301.767647" xlink:href="#m1bb12aec9f" y="250.496294"/>
     <use style="fill:#808080;stroke:#808080;" x="304.207668" xlink:href="#m1bb12aec9f" y="198.552687"/>
     <use style="fill:#808080;stroke:#808080;" x="306.647689" xlink:href="#m1bb12aec9f" y="191.69169"/>
     <use style="fill:#808080;stroke:#808080;" x="309.08771" xlink:href="#m1bb12aec9f" y="280.685016"/>
     <use style="fill:#808080;stroke:#808080;" x="311.527732" xlink:href="#m1bb12aec9f" y="144.3045"/>
     <use style="fill:#808080;stroke:#808080;" x="313.967753" xlink:href="#m1bb12aec9f" y="141.141846"/>
     <use style="fill:#808080;stroke:#808080;" x="316.407774" xlink:href="#m1bb12aec9f" y="176.031944"/>
     <use style="fill:#808080;stroke:#808080;" x="318.847795" xlink:href="#m1bb12aec9f" y="300.633135"/>
     <use style="fill:#808080;stroke:#808080;" x="321.287816" xlink:href="#m1bb12aec9f" y="270.819214"/>
     <use style="fill:#808080;stroke:#808080;" x="323.727837" xlink:href="#m1bb12aec9f" y="104.458839"/>
     <use style="fill:#808080;stroke:#808080;" x="326.167858" xlink:href="#m1bb12aec9f" y="320.637903"/>
     <use style="fill:#808080;stroke:#808080;" x="328.607879" xlink:href="#m1bb12aec9f" y="194.255717"/>
     <use style="fill:#808080;stroke:#808080;" x="331.047901" xlink:href="#m1bb12aec9f" y="269.118353"/>
     <use style="fill:#808080;stroke:#808080;" x="333.487922" xlink:href="#m1bb12aec9f" y="250.490178"/>
     <use style="fill:#808080;stroke:#808080;" x="335.927943" xlink:href="#m1bb12aec9f" y="206.414237"/>
     <use style="fill:#808080;stroke:#808080;" x="338.367964" xlink:href="#m1bb12aec9f" y="298.341198"/>
     <use style="fill:#808080;stroke:#808080;" x="340.807985" xlink:href="#m1bb12aec9f" y="167.582447"/>
     <use style="fill:#808080;stroke:#808080;" x="343.248006" xlink:href="#m1bb12aec9f" y="291.056192"/>
     <use style="fill:#808080;stroke:#808080;" x="345.688027" xlink:href="#m1bb12aec9f" y="208.216926"/>
     <use style="fill:#808080;stroke:#808080;" x="348.128049" xlink:href="#m1bb12aec9f" y="239.043592"/>
     <use style="fill:#808080;stroke:#808080;" x="350.56807" xlink:href="#m1bb12aec9f" y="282.556713"/>
     <use style="fill:#808080;stroke:#808080;" x="353.008091" xlink:href="#m1bb12aec9f" y="266.644728"/>
     <use style="fill:#808080;stroke:#808080;" x="355.448112" xlink:href="#m1bb12aec9f" y="259.360181"/>
     <use style="fill:#808080;stroke:#808080;" x="357.888133" xlink:href="#m1bb12aec9f" y="232.981467"/>
     <use style="fill:#808080;stroke:#808080;" x="360.328154" xlink:href="#m1bb12aec9f" y="272.533097"/>
     <use style="fill:#808080;stroke:#808080;" x="362.768175" xlink:href="#m1bb12aec9f" y="223.325131"/>
     <use style="fill:#808080;stroke:#808080;" x="365.208197" xlink:href="#m1bb12aec9f" y="133.243523"/>
     <use style="fill:#808080;stroke:#808080;" x="367.648218" xlink:href="#m1bb12aec9f" y="113.265646"/>
     <use style="fill:#808080;stroke:#808080;" x="370.088239" xlink:href="#m1bb12aec9f" y="134.77708"/>
     <use style="fill:#808080;stroke:#808080;" x="372.52826" xlink:href="#m1bb12aec9f" y="197.628974"/>
     <use style="fill:#808080;stroke:#808080;" x="374.968281" xlink:href="#m1bb12aec9f" y="308.519422"/>
     <use style="fill:#808080;stroke:#808080;" x="377.408302" xlink:href="#m1bb12aec9f" y="337.743768"/>
     <use style="fill:#808080;stroke:#808080;" x="379.848323" xlink:href="#m1bb12aec9f" y="226.814075"/>
     <use style="fill:#808080;stroke:#808080;" x="382.288345" xlink:href="#m1bb12aec9f" y="256.593746"/>
     <use style="fill:#808080;stroke:#808080;" x="384.728366" xlink:href="#m1bb12aec9f" y="232.199385"/>
     <use style="fill:#808080;stroke:#808080;" x="387.168387" xlink:href="#m1bb12aec9f" y="345.878947"/>
     <use style="fill:#808080;stroke:#808080;" x="389.608408" xlink:href="#m1bb12aec9f" y="267.905709"/>
     <use style="fill:#808080;stroke:#808080;" x="392.048429" xlink:href="#m1bb12aec9f" y="198.930604"/>
     <use style="fill:#808080;stroke:#808080;" x="394.48845" xlink:href="#m1bb12aec9f" y="249.973005"/>
     <use style="fill:#808080;stroke:#808080;" x="396.928471" xlink:href="#m1bb12aec9f" y="367.912079"/>
     <use style="fill:#808080;stroke:#808080;" x="399.368493" xlink:href="#m1bb12aec9f" y="144.610403"/>
     <use style="fill:#808080;stroke:#808080;" x="401.808514" xlink:href="#m1bb12aec9f" y="286.132207"/>
     <use style="fill:#808080;stroke:#808080;" x="404.248535" xlink:href="#m1bb12aec9f" y="287.765566"/>
     <use style="fill:#808080;stroke:#808080;" x="406.688556" xlink:href="#m1bb12aec9f" y="361.17136"/>
     <use style="fill:#808080;stroke:#808080;" x="409.128577" xlink:href="#m1bb12aec9f" y="222.037712"/>
     <use style="fill:#808080;stroke:#808080;" x="411.568598" xlink:href="#m1bb12aec9f" y="255.348337"/>
     <use style="fill:#808080;stroke:#808080;" x="414.008619" xlink:href="#m1bb12aec9f" y="225.168395"/>
     <use style="fill:#808080;stroke:#808080;" x="416.448641" xlink:href="#m1bb12aec9f" y="178.526791"/>
     <use style="fill:#808080;stroke:#808080;" x="418.888662" xlink:href="#m1bb12aec9f" y="210.187301"/>
     <use style="fill:#808080;stroke:#808080;" x="421.328683" xlink:href="#m1bb12aec9f" y="263.478766"/>
     <use style="fill:#808080;stroke:#808080;" x="423.768704" xlink:href="#m1bb12aec9f" y="334.522023"/>
     <use style="fill:#808080;stroke:#808080;" x="426.208725" xlink:href="#m1bb12aec9f" y="236.544612"/>
     <use style="fill:#808080;stroke:#808080;" x="428.648746" xlink:href="#m1bb12aec9f" y="244.009567"/>
     <use style="fill:#808080;stroke:#808080;" x="431.088767" xlink:href="#m1bb12aec9f" y="111.383078"/>
     <use style="fill:#808080;stroke:#808080;" x="433.528789" xlink:href="#m1bb12aec9f" y="258.539907"/>
     <use style="fill:#808080;stroke:#808080;" x="435.96881" xlink:href="#m1bb12aec9f" y="327.499331"/>
     <use style="fill:#808080;stroke:#808080;" x="438.408831" xlink:href="#m1bb12aec9f" y="287.217873"/>
     <use style="fill:#808080;stroke:#808080;" x="440.848852" xlink:href="#m1bb12aec9f" y="453.562841"/>
     <use style="fill:#808080;stroke:#808080;" x="443.288873" xlink:href="#m1bb12aec9f" y="254.846705"/>
     <use style="fill:#808080;stroke:#808080;" x="445.728894" xlink:href="#m1bb12aec9f" y="272.167853"/>
     <use style="fill:#808080;stroke:#808080;" x="448.168915" xlink:href="#m1bb12aec9f" y="249.598106"/>
     <use style="fill:#808080;stroke:#808080;" x="450.608937" xlink:href="#m1bb12aec9f" y="253.895514"/>
     <use style="fill:#808080;stroke:#808080;" x="453.048958" xlink:href="#m1bb12aec9f" y="229.394289"/>
     <use style="fill:#808080;stroke:#808080;" x="455.488979" xlink:href="#m1bb12aec9f" y="355.316835"/>
     <use style="fill:#808080;stroke:#808080;" x="457.929" xlink:href="#m1bb12aec9f" y="147.594881"/>
     <use style="fill:#808080;stroke:#808080;" x="460.369021" xlink:href="#m1bb12aec9f" y="153.485132"/>
     <use style="fill:#808080;stroke:#808080;" x="462.809042" xlink:href="#m1bb12aec9f" y="289.189956"/>
     <use style="fill:#808080;stroke:#808080;" x="465.249063" xlink:href="#m1bb12aec9f" y="261.556603"/>
     <use style="fill:#808080;stroke:#808080;" x="467.689085" xlink:href="#m1bb12aec9f" y="252.351975"/>
     <use style="fill:#808080;stroke:#808080;" x="470.129106" xlink:href="#m1bb12aec9f" y="323.450821"/>
     <use style="fill:#808080;stroke:#808080;" x="472.569127" xlink:href="#m1bb12aec9f" y="327.491614"/>
     <use style="fill:#808080;stroke:#808080;" x="475.009148" xlink:href="#m1bb12aec9f" y="263.596946"/>
     <use style="fill:#808080;stroke:#808080;" x="477.449169" xlink:href="#m1bb12aec9f" y="386.257936"/>
     <use style="fill:#808080;stroke:#808080;" x="479.88919" xlink:href="#m1bb12aec9f" y="305.920711"/>
     <use style="fill:#808080;stroke:#808080;" x="482.329211" xlink:href="#m1bb12aec9f" y="203.778891"/>
     <use style="fill:#808080;stroke:#808080;" x="484.769233" xlink:href="#m1bb12aec9f" y="356.826126"/>
     <use style="fill:#808080;stroke:#808080;" x="487.209254" xlink:href="#m1bb12aec9f" y="353.710892"/>
     <use style="fill:#808080;stroke:#808080;" x="489.649275" xlink:href="#m1bb12aec9f" y="317.297506"/>
     <use style="fill:#808080;stroke:#808080;" x="492.089296" xlink:href="#m1bb12aec9f" y="381.209495"/>
     <use style="fill:#808080;stroke:#808080;" x="494.529317" xlink:href="#m1bb12aec9f" y="307.689052"/>
     <use style="fill:#808080;stroke:#808080;" x="496.969338" xlink:href="#m1bb12aec9f" y="299.694446"/>
     <use style="fill:#808080;stroke:#808080;" x="499.409359" xlink:href="#m1bb12aec9f" y="264.231151"/>
     <use style="fill:#808080;stroke:#808080;" x="501.849381" xlink:href="#m1bb12aec9f" y="253.065695"/>
     <use style="fill:#808080;stroke:#808080;" x="504.289402" xlink:href="#m1bb12aec9f" y="274.267616"/>
     <use style="fill:#808080;stroke:#808080;" x="506.729423" xlink:href="#m1bb12aec9f" y="303.20953"/>
     <use style="fill:#808080;stroke:#808080;" x="509.169444" xlink:href="#m1bb12aec9f" y="338.814787"/>
     <use style="fill:#808080;stroke:#808080;" x="511.609465" xlink:href="#m1bb12aec9f" y="170.100417"/>
     <use style="fill:#808080;stroke:#808080;" x="514.049486" xlink:href="#m1bb12aec9f" y="293.393371"/>
     <use style="fill:#808080;stroke:#808080;" x="516.489507" xlink:href="#m1bb12aec9f" y="393.552289"/>
     <use style="fill:#808080;stroke:#808080;" x="518.929529" xlink:href="#m1bb12aec9f" y="283.829878"/>
     <use style="fill:#808080;stroke:#808080;" x="521.36955" xlink:href="#m1bb12aec9f" y="387.873395"/>
     <use style="fill:#808080;stroke:#808080;" x="523.809571" xlink:href="#m1bb12aec9f" y="276.965036"/>
     <use style="fill:#808080;stroke:#808080;" x="526.249592" xlink:href="#m1bb12aec9f" y="389.04226"/>
     <use style="fill:#808080;stroke:#808080;" x="528.689613" xlink:href="#m1bb12aec9f" y="308.233603"/>
     <use style="fill:#808080;stroke:#808080;" x="531.129634" xlink:href="#m1bb12aec9f" y="296.549431"/>
     <use style="fill:#808080;stroke:#808080;" x="533.569655" xlink:href="#m1bb12aec9f" y="350.332461"/>
     <use style="fill:#808080;stroke:#808080;" x="536.009677" xlink:href="#m1bb12aec9f" y="378.111202"/>
     <use style="fill:#808080;stroke:#808080;" x="538.449698" xlink:href="#m1bb12aec9f" y="318.122121"/>
     <use style="fill:#808080;stroke:#808080;" x="540.889719" xlink:href="#m1bb12aec9f" y="376.268812"/>
     <use style="fill:#808080;stroke:#808080;" x="543.32974" xlink:href="#m1bb12aec9f" y="343.707329"/>
     <use style="fill:#808080;stroke:#808080;" x="545.769761" xlink:href="#m1bb12aec9f" y="374.243716"/>
    </g>
   </g>
   <g id="matplotlib.axis_1">
    <g id="xtick_1">
     <g id="line2d_1">
      <defs>
       <path d="M 0 0 
L 0 3.5 
" id="m88ba04dc45" style="stroke:#000000;stroke-width:0.8;"/>
      </defs>
      <g>
       <use style="stroke:#000000;stroke-width:0.8;" x="143.166273" xlink:href="#m88ba04dc45" y="475.4736"/>
      </g>
     </g>
     <g id="text_1">
      <!-- 0 -->
      <g transform="translate(136.803773 497.670475)scale(0.2 -0.2)">
       <defs>
        <path d="M 31.78125 66.40625 
Q 24.171875 66.40625 20.328125 58.90625 
Q 16.5 51.421875 16.5 36.375 
Q 16.5 21.390625 20.328125 13.890625 
Q 24.171875 6.390625 31.78125 6.390625 
Q 39.453125 6.390625 43.28125 13.890625 
Q 47.125 21.390625 47.125 36.375 
Q 47.125 51.421875 43.28125 58.90625 
Q 39.453125 66.40625 31.78125 66.40625 
z
M 31.78125 74.21875 
Q 44.046875 74.21875 50.515625 64.515625 
Q 56.984375 54.828125 56.984375 36.375 
Q 56.984375 17.96875 50.515625 8.265625 
Q 44.046875 -1.421875 31.78125 -1.421875 
Q 19.53125 -1.421875 13.0625 8.265625 
Q 6.59375 17.96875 6.59375 36.375 
Q 6.59375 54.828125 13.0625 64.515625 
Q 19.53125 74.21875 31.78125 74.21875 
z
" id="DejaVuSans-48"/>
       </defs>
       <use xlink:href="#DejaVuSans-48"/>
      </g>
     </g>
    </g>
    <g id="xtick_2">
     <g id="line2d_2">
      <g>
       <use style="stroke:#000000;stroke-width:0.8;" x="265.16733" xlink:href="#m88ba04dc45" y="475.4736"/>
      </g>
     </g>
     <g id="text_2">
      <!-- 50 -->
      <g transform="translate(252.44233 497.670475)scale(0.2 -0.2)">
       <defs>
        <path d="M 10.796875 72.90625 
L 49.515625 72.90625 
L 49.515625 64.59375 
L 19.828125 64.59375 
L 19.828125 46.734375 
Q 21.96875 47.46875 24.109375 47.828125 
Q 26.265625 48.1875 28.421875 48.1875 
Q 40.625 48.1875 47.75 41.5 
Q 54.890625 34.8125 54.890625 23.390625 
Q 54.890625 11.625 47.5625 5.09375 
Q 40.234375 -1.421875 26.90625 -1.421875 
Q 22.3125 -1.421875 17.546875 -0.640625 
Q 12.796875 0.140625 7.71875 1.703125 
L 7.71875 11.625 
Q 12.109375 9.234375 16.796875 8.0625 
Q 21.484375 6.890625 26.703125 6.890625 
Q 35.15625 6.890625 40.078125 11.328125 
Q 45.015625 15.765625 45.015625 23.390625 
Q 45.015625 31 40.078125 35.4375 
Q 35.15625 39.890625 26.703125 39.890625 
Q 22.75 39.890625 18.8125 39.015625 
Q 14.890625 38.140625 10.796875 36.28125 
z
" id="DejaVuSans-53"/>
       </defs>
       <use xlink:href="#DejaVuSans-53"/>
       <use x="63.623047" xlink:href="#DejaVuSans-48"/>
      </g>
     </g>
    </g>
    <g id="xtick_3">
     <g id="line2d_3">
      <g>
       <use style="stroke:#000000;stroke-width:0.8;" x="387.168387" xlink:href="#m88ba04dc45" y="475.4736"/>
      </g>
     </g>
     <g id="text_3">
      <!-- 100 -->
      <g transform="translate(368.080887 497.670475)scale(0.2 -0.2)">
       <defs>
        <path d="M 12.40625 8.296875 
L 28.515625 8.296875 
L 28.515625 63.921875 
L 10.984375 60.40625 
L 10.984375 69.390625 
L 28.421875 72.90625 
L 38.28125 72.90625 
L 38.28125 8.296875 
L 54.390625 8.296875 
L 54.390625 0 
L 12.40625 0 
z
" id="DejaVuSans-49"/>
       </defs>
       <use xlink:href="#DejaVuSans-49"/>
       <use x="63.623047" xlink:href="#DejaVuSans-48"/>
       <use x="127.246094" xlink:href="#DejaVuSans-48"/>
      </g>
     </g>
    </g>
    <g id="xtick_4">
     <g id="line2d_4">
      <g>
       <use style="stroke:#000000;stroke-width:0.8;" x="509.169444" xlink:href="#m88ba04dc45" y="475.4736"/>
      </g>
     </g>
     <g id="text_4">
      <!-- 150 -->
      <g transform="translate(490.081944 497.670475)scale(0.2 -0.2)">
       <use xlink:href="#DejaVuSans-49"/>
       <use x="63.623047" xlink:href="#DejaVuSans-53"/>
       <use x="127.246094" xlink:href="#DejaVuSans-48"/>
      </g>
     </g>
    </g>
    <g id="xtick_5">
     <g id="line2d_5">
      <g>
       <use style="stroke:#000000;stroke-width:0.8;" x="631.170501" xlink:href="#m88ba04dc45" y="475.4736"/>
      </g>
     </g>
     <g id="text_5">
      <!-- 200 -->
      <g transform="translate(612.083001 497.670475)scale(0.2 -0.2)">
       <defs>
        <path d="M 19.1875 8.296875 
L 53.609375 8.296875 
L 53.609375 0 
L 7.328125 0 
L 7.328125 8.296875 
Q 12.9375 14.109375 22.625 23.890625 
Q 32.328125 33.6875 34.8125 36.53125 
Q 39.546875 41.84375 41.421875 45.53125 
Q 43.3125 49.21875 43.3125 52.78125 
Q 43.3125 58.59375 39.234375 62.25 
Q 35.15625 65.921875 28.609375 65.921875 
Q 23.96875 65.921875 18.8125 64.3125 
Q 13.671875 62.703125 7.8125 59.421875 
L 7.8125 69.390625 
Q 13.765625 71.78125 18.9375 73 
Q 24.125 74.21875 28.421875 74.21875 
Q 39.75 74.21875 46.484375 68.546875 
Q 53.21875 62.890625 53.21875 53.421875 
Q 53.21875 48.921875 51.53125 44.890625 
Q 49.859375 40.875 45.40625 35.40625 
Q 44.1875 33.984375 37.640625 27.21875 
Q 31.109375 20.453125 19.1875 8.296875 
z
" id="DejaVuSans-50"/>
       </defs>
       <use xlink:href="#DejaVuSans-50"/>
       <use x="63.623047" xlink:href="#DejaVuSans-48"/>
       <use x="127.246094" xlink:href="#DejaVuSans-48"/>
      </g>
     </g>
    </g>
    <g id="xtick_6">
     <g id="line2d_6">
      <g>
       <use style="stroke:#000000;stroke-width:0.8;" x="753.171558" xlink:href="#m88ba04dc45" y="475.4736"/>
      </g>
     </g>
     <g id="text_6">
      <!-- 250 -->
      <g transform="translate(734.084058 497.670475)scale(0.2 -0.2)">
       <use xlink:href="#DejaVuSans-50"/>
       <use x="63.623047" xlink:href="#DejaVuSans-53"/>
       <use x="127.246094" xlink:href="#DejaVuSans-48"/>
      </g>
     </g>
    </g>
    <g id="text_7">
     <!-- Time(Cycle) -->
     <g transform="translate(398.327438 521.026725)scale(0.2 -0.2)">
      <defs>
       <path d="M -0.296875 72.90625 
L 61.375 72.90625 
L 61.375 64.59375 
L 35.5 64.59375 
L 35.5 0 
L 25.59375 0 
L 25.59375 64.59375 
L -0.296875 64.59375 
z
" id="DejaVuSans-84"/>
       <path d="M 9.421875 54.6875 
L 18.40625 54.6875 
L 18.40625 0 
L 9.421875 0 
z
M 9.421875 75.984375 
L 18.40625 75.984375 
L 18.40625 64.59375 
L 9.421875 64.59375 
z
" id="DejaVuSans-105"/>
       <path d="M 52 44.1875 
Q 55.375 50.25 60.0625 53.125 
Q 64.75 56 71.09375 56 
Q 79.640625 56 84.28125 50.015625 
Q 88.921875 44.046875 88.921875 33.015625 
L 88.921875 0 
L 79.890625 0 
L 79.890625 32.71875 
Q 79.890625 40.578125 77.09375 44.375 
Q 74.3125 48.1875 68.609375 48.1875 
Q 61.625 48.1875 57.5625 43.546875 
Q 53.515625 38.921875 53.515625 30.90625 
L 53.515625 0 
L 44.484375 0 
L 44.484375 32.71875 
Q 44.484375 40.625 41.703125 44.40625 
Q 38.921875 48.1875 33.109375 48.1875 
Q 26.21875 48.1875 22.15625 43.53125 
Q 18.109375 38.875 18.109375 30.90625 
L 18.109375 0 
L 9.078125 0 
L 9.078125 54.6875 
L 18.109375 54.6875 
L 18.109375 46.1875 
Q 21.1875 51.21875 25.484375 53.609375 
Q 29.78125 56 35.6875 56 
Q 41.65625 56 45.828125 52.96875 
Q 50 49.953125 52 44.1875 
z
" id="DejaVuSans-109"/>
       <path d="M 56.203125 29.59375 
L 56.203125 25.203125 
L 14.890625 25.203125 
Q 15.484375 15.921875 20.484375 11.0625 
Q 25.484375 6.203125 34.421875 6.203125 
Q 39.59375 6.203125 44.453125 7.46875 
Q 49.3125 8.734375 54.109375 11.28125 
L 54.109375 2.78125 
Q 49.265625 0.734375 44.1875 -0.34375 
Q 39.109375 -1.421875 33.890625 -1.421875 
Q 20.796875 -1.421875 13.15625 6.1875 
Q 5.515625 13.8125 5.515625 26.8125 
Q 5.515625 40.234375 12.765625 48.109375 
Q 20.015625 56 32.328125 56 
Q 43.359375 56 49.78125 48.890625 
Q 56.203125 41.796875 56.203125 29.59375 
z
M 47.21875 32.234375 
Q 47.125 39.59375 43.09375 43.984375 
Q 39.0625 48.390625 32.421875 48.390625 
Q 24.90625 48.390625 20.390625 44.140625 
Q 15.875 39.890625 15.1875 32.171875 
z
" id="DejaVuSans-101"/>
       <path d="M 31 75.875 
Q 24.46875 64.65625 21.28125 53.65625 
Q 18.109375 42.671875 18.109375 31.390625 
Q 18.109375 20.125 21.3125 9.0625 
Q 24.515625 -2 31 -13.1875 
L 23.1875 -13.1875 
Q 15.875 -1.703125 12.234375 9.375 
Q 8.59375 20.453125 8.59375 31.390625 
Q 8.59375 42.28125 12.203125 53.3125 
Q 15.828125 64.359375 23.1875 75.875 
z
" id="DejaVuSans-40"/>
       <path d="M 64.40625 67.28125 
L 64.40625 56.890625 
Q 59.421875 61.53125 53.78125 63.8125 
Q 48.140625 66.109375 41.796875 66.109375 
Q 29.296875 66.109375 22.65625 58.46875 
Q 16.015625 50.828125 16.015625 36.375 
Q 16.015625 21.96875 22.65625 14.328125 
Q 29.296875 6.6875 41.796875 6.6875 
Q 48.140625 6.6875 53.78125 8.984375 
Q 59.421875 11.28125 64.40625 15.921875 
L 64.40625 5.609375 
Q 59.234375 2.09375 53.4375 0.328125 
Q 47.65625 -1.421875 41.21875 -1.421875 
Q 24.65625 -1.421875 15.125 8.703125 
Q 5.609375 18.84375 5.609375 36.375 
Q 5.609375 53.953125 15.125 64.078125 
Q 24.65625 74.21875 41.21875 74.21875 
Q 47.75 74.21875 53.53125 72.484375 
Q 59.328125 70.75 64.40625 67.28125 
z
" id="DejaVuSans-67"/>
       <path d="M 32.171875 -5.078125 
Q 28.375 -14.84375 24.75 -17.8125 
Q 21.140625 -20.796875 15.09375 -20.796875 
L 7.90625 -20.796875 
L 7.90625 -13.28125 
L 13.1875 -13.28125 
Q 16.890625 -13.28125 18.9375 -11.515625 
Q 21 -9.765625 23.484375 -3.21875 
L 25.09375 0.875 
L 2.984375 54.6875 
L 12.5 54.6875 
L 29.59375 11.921875 
L 46.6875 54.6875 
L 56.203125 54.6875 
z
" id="DejaVuSans-121"/>
       <path d="M 48.78125 52.59375 
L 48.78125 44.1875 
Q 44.96875 46.296875 41.140625 47.34375 
Q 37.3125 48.390625 33.40625 48.390625 
Q 24.65625 48.390625 19.8125 42.84375 
Q 14.984375 37.3125 14.984375 27.296875 
Q 14.984375 17.28125 19.8125 11.734375 
Q 24.65625 6.203125 33.40625 6.203125 
Q 37.3125 6.203125 41.140625 7.25 
Q 44.96875 8.296875 48.78125 10.40625 
L 48.78125 2.09375 
Q 45.015625 0.34375 40.984375 -0.53125 
Q 36.96875 -1.421875 32.421875 -1.421875 
Q 20.0625 -1.421875 12.78125 6.34375 
Q 5.515625 14.109375 5.515625 27.296875 
Q 5.515625 40.671875 12.859375 48.328125 
Q 20.21875 56 33.015625 56 
Q 37.15625 56 41.109375 55.140625 
Q 45.0625 54.296875 48.78125 52.59375 
z
" id="DejaVuSans-99"/>
       <path d="M 9.421875 75.984375 
L 18.40625 75.984375 
L 18.40625 0 
L 9.421875 0 
z
" id="DejaVuSans-108"/>
       <path d="M 8.015625 75.875 
L 15.828125 75.875 
Q 23.140625 64.359375 26.78125 53.3125 
Q 30.421875 42.28125 30.421875 31.390625 
Q 30.421875 20.453125 26.78125 9.375 
Q 23.140625 -1.703125 15.828125 -13.1875 
L 8.015625 -13.1875 
Q 14.5 -2 17.703125 9.0625 
Q 20.90625 20.125 20.90625 31.390625 
Q 20.90625 42.671875 17.703125 53.65625 
Q 14.5 64.65625 8.015625 75.875 
z
" id="DejaVuSans-41"/>
      </defs>
      <use xlink:href="#DejaVuSans-84"/>
      <use x="57.958984" xlink:href="#DejaVuSans-105"/>
      <use x="85.742188" xlink:href="#DejaVuSans-109"/>
      <use x="183.154297" xlink:href="#DejaVuSans-101"/>
      <use x="244.677734" xlink:href="#DejaVuSans-40"/>
      <use x="283.691406" xlink:href="#DejaVuSans-67"/>
      <use x="353.515625" xlink:href="#DejaVuSans-121"/>
      <use x="412.695312" xlink:href="#DejaVuSans-99"/>
      <use x="467.675781" xlink:href="#DejaVuSans-108"/>
      <use x="495.458984" xlink:href="#DejaVuSans-101"/>
      <use x="556.982422" xlink:href="#DejaVuSans-41"/>
     </g>
    </g>
   </g>
   <g id="matplotlib.axis_2">
    <g id="ytick_1">
     <g id="line2d_7">
      <defs>
       <path d="M 0 0 
L -3.5 0 
" id="m29a24f63d3" style="stroke:#000000;stroke-width:0.8;"/>
      </defs>
      <g>
       <use style="stroke:#000000;stroke-width:0.8;" x="111.69" xlink:href="#m29a24f63d3" y="456.7752"/>
      </g>
     </g>
     <g id="text_8">
      <!-- 0.0 -->
      <g transform="translate(72.88375 464.373638)scale(0.2 -0.2)">
       <defs>
        <path d="M 10.6875 12.40625 
L 21 12.40625 
L 21 0 
L 10.6875 0 
z
" id="DejaVuSans-46"/>
       </defs>
       <use xlink:href="#DejaVuSans-48"/>
       <use x="63.623047" xlink:href="#DejaVuSans-46"/>
       <use x="95.410156" xlink:href="#DejaVuSans-48"/>
      </g>
     </g>
    </g>
    <g id="ytick_2">
     <g id="line2d_8">
      <g>
       <use style="stroke:#000000;stroke-width:0.8;" x="111.69" xlink:href="#m29a24f63d3" y="392.096437"/>
      </g>
     </g>
     <g id="text_9">
      <!-- 0.2 -->
      <g transform="translate(72.88375 399.694874)scale(0.2 -0.2)">
       <use xlink:href="#DejaVuSans-48"/>
       <use x="63.623047" xlink:href="#DejaVuSans-46"/>
       <use x="95.410156" xlink:href="#DejaVuSans-50"/>
      </g>
     </g>
    </g>
    <g id="ytick_3">
     <g id="line2d_9">
      <g>
       <use style="stroke:#000000;stroke-width:0.8;" x="111.69" xlink:href="#m29a24f63d3" y="327.417673"/>
      </g>
     </g>
     <g id="text_10">
      <!-- 0.4 -->
      <g transform="translate(72.88375 335.016111)scale(0.2 -0.2)">
       <defs>
        <path d="M 37.796875 64.3125 
L 12.890625 25.390625 
L 37.796875 25.390625 
z
M 35.203125 72.90625 
L 47.609375 72.90625 
L 47.609375 25.390625 
L 58.015625 25.390625 
L 58.015625 17.1875 
L 47.609375 17.1875 
L 47.609375 0 
L 37.796875 0 
L 37.796875 17.1875 
L 4.890625 17.1875 
L 4.890625 26.703125 
z
" id="DejaVuSans-52"/>
       </defs>
       <use xlink:href="#DejaVuSans-48"/>
       <use x="63.623047" xlink:href="#DejaVuSans-46"/>
       <use x="95.410156" xlink:href="#DejaVuSans-52"/>
      </g>
     </g>
    </g>
    <g id="ytick_4">
     <g id="line2d_10">
      <g>
       <use style="stroke:#000000;stroke-width:0.8;" x="111.69" xlink:href="#m29a24f63d3" y="262.73891"/>
      </g>
     </g>
     <g id="text_11">
      <!-- 0.6 -->
      <g transform="translate(72.88375 270.337347)scale(0.2 -0.2)">
       <defs>
        <path d="M 33.015625 40.375 
Q 26.375 40.375 22.484375 35.828125 
Q 18.609375 31.296875 18.609375 23.390625 
Q 18.609375 15.53125 22.484375 10.953125 
Q 26.375 6.390625 33.015625 6.390625 
Q 39.65625 6.390625 43.53125 10.953125 
Q 47.40625 15.53125 47.40625 23.390625 
Q 47.40625 31.296875 43.53125 35.828125 
Q 39.65625 40.375 33.015625 40.375 
z
M 52.59375 71.296875 
L 52.59375 62.3125 
Q 48.875 64.0625 45.09375 64.984375 
Q 41.3125 65.921875 37.59375 65.921875 
Q 27.828125 65.921875 22.671875 59.328125 
Q 17.53125 52.734375 16.796875 39.40625 
Q 19.671875 43.65625 24.015625 45.921875 
Q 28.375 48.1875 33.59375 48.1875 
Q 44.578125 48.1875 50.953125 41.515625 
Q 57.328125 34.859375 57.328125 23.390625 
Q 57.328125 12.15625 50.6875 5.359375 
Q 44.046875 -1.421875 33.015625 -1.421875 
Q 20.359375 -1.421875 13.671875 8.265625 
Q 6.984375 17.96875 6.984375 36.375 
Q 6.984375 53.65625 15.1875 63.9375 
Q 23.390625 74.21875 37.203125 74.21875 
Q 40.921875 74.21875 44.703125 73.484375 
Q 48.484375 72.75 52.59375 71.296875 
z
" id="DejaVuSans-54"/>
       </defs>
       <use xlink:href="#DejaVuSans-48"/>
       <use x="63.623047" xlink:href="#DejaVuSans-46"/>
       <use x="95.410156" xlink:href="#DejaVuSans-54"/>
      </g>
     </g>
    </g>
    <g id="ytick_5">
     <g id="line2d_11">
      <g>
       <use style="stroke:#000000;stroke-width:0.8;" x="111.69" xlink:href="#m29a24f63d3" y="198.060146"/>
      </g>
     </g>
     <g id="text_12">
      <!-- 0.8 -->
      <g transform="translate(72.88375 205.658584)scale(0.2 -0.2)">
       <defs>
        <path d="M 31.78125 34.625 
Q 24.75 34.625 20.71875 30.859375 
Q 16.703125 27.09375 16.703125 20.515625 
Q 16.703125 13.921875 20.71875 10.15625 
Q 24.75 6.390625 31.78125 6.390625 
Q 38.8125 6.390625 42.859375 10.171875 
Q 46.921875 13.96875 46.921875 20.515625 
Q 46.921875 27.09375 42.890625 30.859375 
Q 38.875 34.625 31.78125 34.625 
z
M 21.921875 38.8125 
Q 15.578125 40.375 12.03125 44.71875 
Q 8.5 49.078125 8.5 55.328125 
Q 8.5 64.0625 14.71875 69.140625 
Q 20.953125 74.21875 31.78125 74.21875 
Q 42.671875 74.21875 48.875 69.140625 
Q 55.078125 64.0625 55.078125 55.328125 
Q 55.078125 49.078125 51.53125 44.71875 
Q 48 40.375 41.703125 38.8125 
Q 48.828125 37.15625 52.796875 32.3125 
Q 56.78125 27.484375 56.78125 20.515625 
Q 56.78125 9.90625 50.3125 4.234375 
Q 43.84375 -1.421875 31.78125 -1.421875 
Q 19.734375 -1.421875 13.25 4.234375 
Q 6.78125 9.90625 6.78125 20.515625 
Q 6.78125 27.484375 10.78125 32.3125 
Q 14.796875 37.15625 21.921875 38.8125 
z
M 18.3125 54.390625 
Q 18.3125 48.734375 21.84375 45.5625 
Q 25.390625 42.390625 31.78125 42.390625 
Q 38.140625 42.390625 41.71875 45.5625 
Q 45.3125 48.734375 45.3125 54.390625 
Q 45.3125 60.0625 41.71875 63.234375 
Q 38.140625 66.40625 31.78125 66.40625 
Q 25.390625 66.40625 21.84375 63.234375 
Q 18.3125 60.0625 18.3125 54.390625 
z
" id="DejaVuSans-56"/>
       </defs>
       <use xlink:href="#DejaVuSans-48"/>
       <use x="63.623047" xlink:href="#DejaVuSans-46"/>
       <use x="95.410156" xlink:href="#DejaVuSans-56"/>
      </g>
     </g>
    </g>
    <g id="ytick_6">
     <g id="line2d_12">
      <g>
       <use style="stroke:#000000;stroke-width:0.8;" x="111.69" xlink:href="#m29a24f63d3" y="133.381383"/>
      </g>
     </g>
     <g id="text_13">
      <!-- 1.0 -->
      <g transform="translate(72.88375 140.97982)scale(0.2 -0.2)">
       <use xlink:href="#DejaVuSans-49"/>
       <use x="63.623047" xlink:href="#DejaVuSans-46"/>
       <use x="95.410156" xlink:href="#DejaVuSans-48"/>
      </g>
     </g>
    </g>
    <g id="ytick_7">
     <g id="line2d_13">
      <g>
       <use style="stroke:#000000;stroke-width:0.8;" x="111.69" xlink:href="#m29a24f63d3" y="68.70262"/>
      </g>
     </g>
     <g id="text_14">
      <!-- 1.2 -->
      <g transform="translate(72.88375 76.301057)scale(0.2 -0.2)">
       <use xlink:href="#DejaVuSans-49"/>
       <use x="63.623047" xlink:href="#DejaVuSans-46"/>
       <use x="95.410156" xlink:href="#DejaVuSans-50"/>
      </g>
     </g>
    </g>
    <g id="text_15">
     <!-- HI value -->
     <g transform="translate(64.724375 310.755263)rotate(-90)scale(0.2 -0.2)">
      <defs>
       <path d="M 9.8125 72.90625 
L 19.671875 72.90625 
L 19.671875 43.015625 
L 55.515625 43.015625 
L 55.515625 72.90625 
L 65.375 72.90625 
L 65.375 0 
L 55.515625 0 
L 55.515625 34.71875 
L 19.671875 34.71875 
L 19.671875 0 
L 9.8125 0 
z
" id="DejaVuSans-72"/>
       <path d="M 9.8125 72.90625 
L 19.671875 72.90625 
L 19.671875 0 
L 9.8125 0 
z
" id="DejaVuSans-73"/>
       <path id="DejaVuSans-32"/>
       <path d="M 2.984375 54.6875 
L 12.5 54.6875 
L 29.59375 8.796875 
L 46.6875 54.6875 
L 56.203125 54.6875 
L 35.6875 0 
L 23.484375 0 
z
" id="DejaVuSans-118"/>
       <path d="M 34.28125 27.484375 
Q 23.390625 27.484375 19.1875 25 
Q 14.984375 22.515625 14.984375 16.5 
Q 14.984375 11.71875 18.140625 8.90625 
Q 21.296875 6.109375 26.703125 6.109375 
Q 34.1875 6.109375 38.703125 11.40625 
Q 43.21875 16.703125 43.21875 25.484375 
L 43.21875 27.484375 
z
M 52.203125 31.203125 
L 52.203125 0 
L 43.21875 0 
L 43.21875 8.296875 
Q 40.140625 3.328125 35.546875 0.953125 
Q 30.953125 -1.421875 24.3125 -1.421875 
Q 15.921875 -1.421875 10.953125 3.296875 
Q 6 8.015625 6 15.921875 
Q 6 25.140625 12.171875 29.828125 
Q 18.359375 34.515625 30.609375 34.515625 
L 43.21875 34.515625 
L 43.21875 35.40625 
Q 43.21875 41.609375 39.140625 45 
Q 35.0625 48.390625 27.6875 48.390625 
Q 23 48.390625 18.546875 47.265625 
Q 14.109375 46.140625 10.015625 43.890625 
L 10.015625 52.203125 
Q 14.9375 54.109375 19.578125 55.046875 
Q 24.21875 56 28.609375 56 
Q 40.484375 56 46.34375 49.84375 
Q 52.203125 43.703125 52.203125 31.203125 
z
" id="DejaVuSans-97"/>
       <path d="M 8.5 21.578125 
L 8.5 54.6875 
L 17.484375 54.6875 
L 17.484375 21.921875 
Q 17.484375 14.15625 20.5 10.265625 
Q 23.53125 6.390625 29.59375 6.390625 
Q 36.859375 6.390625 41.078125 11.03125 
Q 45.3125 15.671875 45.3125 23.6875 
L 45.3125 54.6875 
L 54.296875 54.6875 
L 54.296875 0 
L 45.3125 0 
L 45.3125 8.40625 
Q 42.046875 3.421875 37.71875 1 
Q 33.40625 -1.421875 27.6875 -1.421875 
Q 18.265625 -1.421875 13.375 4.4375 
Q 8.5 10.296875 8.5 21.578125 
z
M 31.109375 56 
z
" id="DejaVuSans-117"/>
      </defs>
      <use xlink:href="#DejaVuSans-72"/>
      <use x="75.195312" xlink:href="#DejaVuSans-73"/>
      <use x="104.6875" xlink:href="#DejaVuSans-32"/>
      <use x="136.474609" xlink:href="#DejaVuSans-118"/>
      <use x="195.654297" xlink:href="#DejaVuSans-97"/>
      <use x="256.933594" xlink:href="#DejaVuSans-108"/>
      <use x="284.716797" xlink:href="#DejaVuSans-117"/>
      <use x="348.095703" xlink:href="#DejaVuSans-101"/>
     </g>
    </g>
   </g>
   <g id="line2d_14">
    <path clip-path="url(#pe384321cf4)" d="M 143.166273 221.978168 
L 162.686442 222.089659 
L 174.886548 222.42126 
L 187.086653 222.97301 
L 199.286759 223.74487 
L 211.486865 224.736859 
L 223.68697 225.948958 
L 233.447055 227.119075 
L 245.647161 228.862472 
L 257.847266 230.749011 
L 270.047372 232.958034 
L 284.687499 235.671254 
L 311.527732 240.338593 
L 321.287816 241.642291 
L 331.047901 242.681467 
L 357.888133 245.340194 
L 362.768175 246.039769 
L 370.088239 247.355187 
L 377.408302 248.996673 
L 384.728366 250.976931 
L 392.048429 253.21109 
L 399.368493 255.711794 
L 406.688556 258.481761 
L 414.008619 261.447261 
L 423.768704 265.758462 
L 431.088767 269.26937 
L 438.408831 273.021554 
L 445.728894 276.984441 
L 453.048958 281.218846 
L 460.369021 285.837842 
L 470.129106 292.335455 
L 504.289402 315.245791 
L 516.489507 323.028597 
L 538.449698 336.713461 
L 545.769761 340.854476 
L 545.769761 340.854476 
" style="fill:none;stroke:#000000;stroke-linecap:square;stroke-width:2;"/>
   </g>
   <g id="line2d_15">
    <path clip-path="url(#pe384321cf4)" d="M 545.769761 340.854476 
L 548.209782 342.155186 
L 550.649803 343.420274 
L 553.089825 344.643389 
L 555.529846 345.822729 
L 557.969867 346.969647 
L 560.409888 348.081435 
L 562.849909 349.146971 
L 565.28993 350.162082 
L 567.729951 351.135952 
L 570.169973 352.068976 
L 572.609994 352.957223 
L 575.050015 353.80448 
L 577.490036 354.612684 
L 579.930057 355.391927 
L 582.370078 356.153898 
L 584.810099 356.881607 
L 587.250121 357.573154 
L 589.690142 358.233195 
L 592.130163 358.883627 
L 594.570184 359.544063 
L 597.010205 360.212191 
L 599.450226 360.88852 
L 601.890247 361.575354 
L 604.330268 362.273098 
L 606.77029 362.981445 
L 609.210311 363.706214 
L 611.650332 364.444032 
L 614.090353 365.213145 
L 616.530374 366.010266 
L 618.970395 366.833226 
L 621.410416 367.697446 
L 623.850438 368.598868 
L 626.290459 369.528885 
L 628.73048 370.489619 
L 631.170501 371.485029 
L 633.610522 372.519627 
L 636.050543 373.582523 
L 638.490564 374.669059 
L 640.930586 375.7853 
L 643.370607 376.930792 
L 645.810628 378.091068 
L 648.250649 379.264413 
L 650.69067 380.454644 
L 653.130691 381.660035 
L 655.570712 382.889849 
L 658.010734 384.140047 
L 660.450755 385.40661 
L 662.890776 386.697238 
L 665.330797 388.014381 
L 667.770818 389.36088 
L 670.210839 390.740689 
L 672.65086 392.156947 
L 675.090882 393.608365 
L 677.530903 395.053498 
L 679.970924 396.457623 
L 682.410945 397.85608 
L 684.850966 399.263144 
L 687.290987 400.67335 
L 689.731008 402.071846 
L 692.17103 403.48237 
L 694.611051 404.904913 
L 697.051072 406.339483 
L 699.491093 407.786082 
L 701.931114 409.244699 
L 704.371135 410.715344 
L 706.811156 412.198007 
L 709.251178 413.692699 
L 711.691199 415.199419 
L 714.13122 416.718157 
L 716.571241 418.248919 
L 719.011262 419.791708 
L 721.451283 421.346521 
L 723.891304 422.913357 
L 726.331326 424.492221 
L 728.771347 426.083104 
L 731.211368 427.686014 
L 733.651389 429.300948 
L 736.09141 430.92791 
L 738.531431 432.566891 
L 740.971452 434.217899 
L 743.411474 435.880931 
L 745.851495 437.555986 
L 748.291516 439.243065 
L 750.731537 440.942166 
L 753.171558 442.653296 
L 755.611579 444.376449 
L 758.0516 446.111625 
L 760.491622 447.85883 
L 762.931643 449.618052 
L 765.371664 451.389303 
L 767.811685 453.172577 
L 770.251706 454.967875 
L 772.691727 456.7752 
" style="fill:none;stroke:#ff0000;stroke-linecap:square;stroke-width:2;"/>
   </g>
   <g id="line2d_16">
    <path clip-path="url(#pe384321cf4)" d="M 545.769761 475.4736 
L 545.769761 64.1088 
" style="fill:none;stroke:#0000ff;stroke-dasharray:5.55,2.4;stroke-dashoffset:0;stroke-width:1.5;"/>
   </g>
   <g id="line2d_17">
    <path clip-path="url(#pe384321cf4)" d="M 111.69 456.7752 
L 804.168 456.7752 
" style="fill:none;stroke:#008000;stroke-dasharray:5.55,2.4;stroke-dashoffset:0;stroke-width:1.5;"/>
   </g>
   <g id="patch_3">
    <path d="M 111.69 475.4736 
L 111.69 64.1088 
" style="fill:none;stroke:#000000;stroke-linecap:square;stroke-linejoin:miter;stroke-width:0.8;"/>
   </g>
   <g id="patch_4">
    <path d="M 804.168 475.4736 
L 804.168 64.1088 
" style="fill:none;stroke:#000000;stroke-linecap:square;stroke-linejoin:miter;stroke-width:0.8;"/>
   </g>
   <g id="patch_5">
    <path d="M 111.69 475.4736 
L 804.168 475.4736 
" style="fill:none;stroke:#000000;stroke-linecap:square;stroke-linejoin:miter;stroke-width:0.8;"/>
   </g>
   <g id="patch_6">
    <path d="M 111.69 64.1088 
L 804.168 64.1088 
" style="fill:none;stroke:#000000;stroke-linecap:square;stroke-linejoin:miter;stroke-width:0.8;"/>
   </g>
   <g id="legend_1">
    <g id="patch_7">
     <path d="M 555.458625 197.5338 
L 790.168 197.5338 
Q 794.168 197.5338 794.168 193.5338 
L 794.168 78.1088 
Q 794.168 74.1088 790.168 74.1088 
L 555.458625 74.1088 
Q 551.458625 74.1088 551.458625 78.1088 
L 551.458625 193.5338 
Q 551.458625 197.5338 555.458625 197.5338 
z
" style="fill:#ffffff;opacity:0.8;stroke:#cccccc;stroke-linejoin:miter;"/>
    </g>
    <g id="line2d_18">
     <path d="M 559.458625 90.305675 
L 599.458625 90.305675 
" style="fill:none;stroke:#000000;stroke-linecap:square;stroke-width:2;"/>
    </g>
    <g id="line2d_19"/>
    <g id="text_16">
     <!-- Raw HI Data -->
     <g transform="translate(615.458625 97.305675)scale(0.2 -0.2)">
      <defs>
       <path d="M 44.390625 34.1875 
Q 47.5625 33.109375 50.5625 29.59375 
Q 53.5625 26.078125 56.59375 19.921875 
L 66.609375 0 
L 56 0 
L 46.6875 18.703125 
Q 43.0625 26.03125 39.671875 28.421875 
Q 36.28125 30.8125 30.421875 30.8125 
L 19.671875 30.8125 
L 19.671875 0 
L 9.8125 0 
L 9.8125 72.90625 
L 32.078125 72.90625 
Q 44.578125 72.90625 50.734375 67.671875 
Q 56.890625 62.453125 56.890625 51.90625 
Q 56.890625 45.015625 53.6875 40.46875 
Q 50.484375 35.9375 44.390625 34.1875 
z
M 19.671875 64.796875 
L 19.671875 38.921875 
L 32.078125 38.921875 
Q 39.203125 38.921875 42.84375 42.21875 
Q 46.484375 45.515625 46.484375 51.90625 
Q 46.484375 58.296875 42.84375 61.546875 
Q 39.203125 64.796875 32.078125 64.796875 
z
" id="DejaVuSans-82"/>
       <path d="M 4.203125 54.6875 
L 13.1875 54.6875 
L 24.421875 12.015625 
L 35.59375 54.6875 
L 46.1875 54.6875 
L 57.421875 12.015625 
L 68.609375 54.6875 
L 77.59375 54.6875 
L 63.28125 0 
L 52.6875 0 
L 40.921875 44.828125 
L 29.109375 0 
L 18.5 0 
z
" id="DejaVuSans-119"/>
       <path d="M 19.671875 64.796875 
L 19.671875 8.109375 
L 31.59375 8.109375 
Q 46.6875 8.109375 53.6875 14.9375 
Q 60.6875 21.78125 60.6875 36.53125 
Q 60.6875 51.171875 53.6875 57.984375 
Q 46.6875 64.796875 31.59375 64.796875 
z
M 9.8125 72.90625 
L 30.078125 72.90625 
Q 51.265625 72.90625 61.171875 64.09375 
Q 71.09375 55.28125 71.09375 36.53125 
Q 71.09375 17.671875 61.125 8.828125 
Q 51.171875 0 30.078125 0 
L 9.8125 0 
z
" id="DejaVuSans-68"/>
       <path d="M 18.3125 70.21875 
L 18.3125 54.6875 
L 36.8125 54.6875 
L 36.8125 47.703125 
L 18.3125 47.703125 
L 18.3125 18.015625 
Q 18.3125 11.328125 20.140625 9.421875 
Q 21.96875 7.515625 27.59375 7.515625 
L 36.8125 7.515625 
L 36.8125 0 
L 27.59375 0 
Q 17.1875 0 13.234375 3.875 
Q 9.28125 7.765625 9.28125 18.015625 
L 9.28125 47.703125 
L 2.6875 47.703125 
L 2.6875 54.6875 
L 9.28125 54.6875 
L 9.28125 70.21875 
z
" id="DejaVuSans-116"/>
      </defs>
      <use xlink:href="#DejaVuSans-82"/>
      <use x="67.232422" xlink:href="#DejaVuSans-97"/>
      <use x="128.511719" xlink:href="#DejaVuSans-119"/>
      <use x="210.298828" xlink:href="#DejaVuSans-32"/>
      <use x="242.085938" xlink:href="#DejaVuSans-72"/>
      <use x="317.28125" xlink:href="#DejaVuSans-73"/>
      <use x="346.773438" xlink:href="#DejaVuSans-32"/>
      <use x="378.560547" xlink:href="#DejaVuSans-68"/>
      <use x="455.5625" xlink:href="#DejaVuSans-97"/>
      <use x="516.841797" xlink:href="#DejaVuSans-116"/>
      <use x="556.050781" xlink:href="#DejaVuSans-97"/>
     </g>
    </g>
    <g id="line2d_20">
     <path d="M 559.458625 119.661925 
L 599.458625 119.661925 
" style="fill:none;stroke:#ff0000;stroke-linecap:square;stroke-width:2;"/>
    </g>
    <g id="line2d_21"/>
    <g id="text_17">
     <!-- Prediction Data -->
     <g transform="translate(615.458625 126.661925)scale(0.2 -0.2)">
      <defs>
       <path d="M 19.671875 64.796875 
L 19.671875 37.40625 
L 32.078125 37.40625 
Q 38.96875 37.40625 42.71875 40.96875 
Q 46.484375 44.53125 46.484375 51.125 
Q 46.484375 57.671875 42.71875 61.234375 
Q 38.96875 64.796875 32.078125 64.796875 
z
M 9.8125 72.90625 
L 32.078125 72.90625 
Q 44.34375 72.90625 50.609375 67.359375 
Q 56.890625 61.8125 56.890625 51.125 
Q 56.890625 40.328125 50.609375 34.8125 
Q 44.34375 29.296875 32.078125 29.296875 
L 19.671875 29.296875 
L 19.671875 0 
L 9.8125 0 
z
" id="DejaVuSans-80"/>
       <path d="M 41.109375 46.296875 
Q 39.59375 47.171875 37.8125 47.578125 
Q 36.03125 48 33.890625 48 
Q 26.265625 48 22.1875 43.046875 
Q 18.109375 38.09375 18.109375 28.8125 
L 18.109375 0 
L 9.078125 0 
L 9.078125 54.6875 
L 18.109375 54.6875 
L 18.109375 46.1875 
Q 20.953125 51.171875 25.484375 53.578125 
Q 30.03125 56 36.53125 56 
Q 37.453125 56 38.578125 55.875 
Q 39.703125 55.765625 41.0625 55.515625 
z
" id="DejaVuSans-114"/>
       <path d="M 45.40625 46.390625 
L 45.40625 75.984375 
L 54.390625 75.984375 
L 54.390625 0 
L 45.40625 0 
L 45.40625 8.203125 
Q 42.578125 3.328125 38.25 0.953125 
Q 33.9375 -1.421875 27.875 -1.421875 
Q 17.96875 -1.421875 11.734375 6.484375 
Q 5.515625 14.40625 5.515625 27.296875 
Q 5.515625 40.1875 11.734375 48.09375 
Q 17.96875 56 27.875 56 
Q 33.9375 56 38.25 53.625 
Q 42.578125 51.265625 45.40625 46.390625 
z
M 14.796875 27.296875 
Q 14.796875 17.390625 18.875 11.75 
Q 22.953125 6.109375 30.078125 6.109375 
Q 37.203125 6.109375 41.296875 11.75 
Q 45.40625 17.390625 45.40625 27.296875 
Q 45.40625 37.203125 41.296875 42.84375 
Q 37.203125 48.484375 30.078125 48.484375 
Q 22.953125 48.484375 18.875 42.84375 
Q 14.796875 37.203125 14.796875 27.296875 
z
" id="DejaVuSans-100"/>
       <path d="M 30.609375 48.390625 
Q 23.390625 48.390625 19.1875 42.75 
Q 14.984375 37.109375 14.984375 27.296875 
Q 14.984375 17.484375 19.15625 11.84375 
Q 23.34375 6.203125 30.609375 6.203125 
Q 37.796875 6.203125 41.984375 11.859375 
Q 46.1875 17.53125 46.1875 27.296875 
Q 46.1875 37.015625 41.984375 42.703125 
Q 37.796875 48.390625 30.609375 48.390625 
z
M 30.609375 56 
Q 42.328125 56 49.015625 48.375 
Q 55.71875 40.765625 55.71875 27.296875 
Q 55.71875 13.875 49.015625 6.21875 
Q 42.328125 -1.421875 30.609375 -1.421875 
Q 18.84375 -1.421875 12.171875 6.21875 
Q 5.515625 13.875 5.515625 27.296875 
Q 5.515625 40.765625 12.171875 48.375 
Q 18.84375 56 30.609375 56 
z
" id="DejaVuSans-111"/>
       <path d="M 54.890625 33.015625 
L 54.890625 0 
L 45.90625 0 
L 45.90625 32.71875 
Q 45.90625 40.484375 42.875 44.328125 
Q 39.84375 48.1875 33.796875 48.1875 
Q 26.515625 48.1875 22.3125 43.546875 
Q 18.109375 38.921875 18.109375 30.90625 
L 18.109375 0 
L 9.078125 0 
L 9.078125 54.6875 
L 18.109375 54.6875 
L 18.109375 46.1875 
Q 21.34375 51.125 25.703125 53.5625 
Q 30.078125 56 35.796875 56 
Q 45.21875 56 50.046875 50.171875 
Q 54.890625 44.34375 54.890625 33.015625 
z
" id="DejaVuSans-110"/>
      </defs>
      <use xlink:href="#DejaVuSans-80"/>
      <use x="58.552734" xlink:href="#DejaVuSans-114"/>
      <use x="97.416016" xlink:href="#DejaVuSans-101"/>
      <use x="158.939453" xlink:href="#DejaVuSans-100"/>
      <use x="222.416016" xlink:href="#DejaVuSans-105"/>
      <use x="250.199219" xlink:href="#DejaVuSans-99"/>
      <use x="305.179688" xlink:href="#DejaVuSans-116"/>
      <use x="344.388672" xlink:href="#DejaVuSans-105"/>
      <use x="372.171875" xlink:href="#DejaVuSans-111"/>
      <use x="433.353516" xlink:href="#DejaVuSans-110"/>
      <use x="496.732422" xlink:href="#DejaVuSans-32"/>
      <use x="528.519531" xlink:href="#DejaVuSans-68"/>
      <use x="605.521484" xlink:href="#DejaVuSans-97"/>
      <use x="666.800781" xlink:href="#DejaVuSans-116"/>
      <use x="706.009766" xlink:href="#DejaVuSans-97"/>
     </g>
    </g>
    <g id="line2d_22">
     <path d="M 559.458625 149.018175 
L 599.458625 149.018175 
" style="fill:none;stroke:#008000;stroke-dasharray:5.55,2.4;stroke-dashoffset:0;stroke-width:1.5;"/>
    </g>
    <g id="line2d_23"/>
    <g id="text_18">
     <!-- Failure Threshold -->
     <g transform="translate(615.458625 156.018175)scale(0.2 -0.2)">
      <defs>
       <path d="M 9.8125 72.90625 
L 51.703125 72.90625 
L 51.703125 64.59375 
L 19.671875 64.59375 
L 19.671875 43.109375 
L 48.578125 43.109375 
L 48.578125 34.8125 
L 19.671875 34.8125 
L 19.671875 0 
L 9.8125 0 
z
" id="DejaVuSans-70"/>
       <path d="M 54.890625 33.015625 
L 54.890625 0 
L 45.90625 0 
L 45.90625 32.71875 
Q 45.90625 40.484375 42.875 44.328125 
Q 39.84375 48.1875 33.796875 48.1875 
Q 26.515625 48.1875 22.3125 43.546875 
Q 18.109375 38.921875 18.109375 30.90625 
L 18.109375 0 
L 9.078125 0 
L 9.078125 75.984375 
L 18.109375 75.984375 
L 18.109375 46.1875 
Q 21.34375 51.125 25.703125 53.5625 
Q 30.078125 56 35.796875 56 
Q 45.21875 56 50.046875 50.171875 
Q 54.890625 44.34375 54.890625 33.015625 
z
" id="DejaVuSans-104"/>
       <path d="M 44.28125 53.078125 
L 44.28125 44.578125 
Q 40.484375 46.53125 36.375 47.5 
Q 32.28125 48.484375 27.875 48.484375 
Q 21.1875 48.484375 17.84375 46.4375 
Q 14.5 44.390625 14.5 40.28125 
Q 14.5 37.15625 16.890625 35.375 
Q 19.28125 33.59375 26.515625 31.984375 
L 29.59375 31.296875 
Q 39.15625 29.25 43.1875 25.515625 
Q 47.21875 21.78125 47.21875 15.09375 
Q 47.21875 7.46875 41.1875 3.015625 
Q 35.15625 -1.421875 24.609375 -1.421875 
Q 20.21875 -1.421875 15.453125 -0.5625 
Q 10.6875 0.296875 5.421875 2 
L 5.421875 11.28125 
Q 10.40625 8.6875 15.234375 7.390625 
Q 20.0625 6.109375 24.8125 6.109375 
Q 31.15625 6.109375 34.5625 8.28125 
Q 37.984375 10.453125 37.984375 14.40625 
Q 37.984375 18.0625 35.515625 20.015625 
Q 33.0625 21.96875 24.703125 23.78125 
L 21.578125 24.515625 
Q 13.234375 26.265625 9.515625 29.90625 
Q 5.8125 33.546875 5.8125 39.890625 
Q 5.8125 47.609375 11.28125 51.796875 
Q 16.75 56 26.8125 56 
Q 31.78125 56 36.171875 55.265625 
Q 40.578125 54.546875 44.28125 53.078125 
z
" id="DejaVuSans-115"/>
      </defs>
      <use xlink:href="#DejaVuSans-70"/>
      <use x="48.394531" xlink:href="#DejaVuSans-97"/>
      <use x="109.673828" xlink:href="#DejaVuSans-105"/>
      <use x="137.457031" xlink:href="#DejaVuSans-108"/>
      <use x="165.240234" xlink:href="#DejaVuSans-117"/>
      <use x="228.619141" xlink:href="#DejaVuSans-114"/>
      <use x="267.482422" xlink:href="#DejaVuSans-101"/>
      <use x="329.005859" xlink:href="#DejaVuSans-32"/>
      <use x="360.792969" xlink:href="#DejaVuSans-84"/>
      <use x="421.876953" xlink:href="#DejaVuSans-104"/>
      <use x="485.255859" xlink:href="#DejaVuSans-114"/>
      <use x="524.119141" xlink:href="#DejaVuSans-101"/>
      <use x="585.642578" xlink:href="#DejaVuSans-115"/>
      <use x="637.742188" xlink:href="#DejaVuSans-104"/>
      <use x="701.121094" xlink:href="#DejaVuSans-111"/>
      <use x="762.302734" xlink:href="#DejaVuSans-108"/>
      <use x="790.085938" xlink:href="#DejaVuSans-100"/>
     </g>
    </g>
    <g id="PathCollection_2">
     <g>
      <use style="fill:#808080;stroke:#808080;" x="579.458625" xlink:href="#m1bb12aec9f" y="180.124425"/>
     </g>
    </g>
    <g id="text_19">
     <!-- Raw data -->
     <g transform="translate(615.458625 185.374425)scale(0.2 -0.2)">
      <use xlink:href="#DejaVuSans-82"/>
      <use x="67.232422" xlink:href="#DejaVuSans-97"/>
      <use x="128.511719" xlink:href="#DejaVuSans-119"/>
      <use x="210.298828" xlink:href="#DejaVuSans-32"/>
      <use x="242.085938" xlink:href="#DejaVuSans-100"/>
      <use x="305.5625" xlink:href="#DejaVuSans-97"/>
      <use x="366.841797" xlink:href="#DejaVuSans-116"/>
      <use x="406.050781" xlink:href="#DejaVuSans-97"/>
     </g>
    </g>
   </g>
  </g>
 </g>
 <defs>
  <clipPath id="pe384321cf4">
   <rect height="411.3648" width="692.478" x="111.69" y="64.1088"/>
  </clipPath>
 </defs>
</svg>
